<?xml version="1.0" encoding="UTF-8" standalone="no"?>
<!-- Created with Inkscape (http://www.inkscape.org/) -->
<svg
   xmlns:svg="http://www.w3.org/2000/svg"
   xmlns="http://www.w3.org/2000/svg"
   version="1.0"
   width="814.96063"
   height="223.58267"
   id="svg26043">
  <defs
     id="defs26045">
    <linearGradient
       id="linearGradient5905">
      <stop
         style="stop-color:#eb008b;stop-opacity:1"
         offset="0"
         id="stop5907" />
      <stop
         style="stop-color:white;stop-opacity:1"
         offset="0.49565217"
         id="stop5913" />
      <stop
         style="stop-color:#eb008b;stop-opacity:1"
         offset="1"
         id="stop5909" />
    </linearGradient>
  </defs>
  <g
     transform="translate(807.0477,561.1851)"
     id="g7010">
    <path
       d="M -781.18921,-445.81172 C -781.18921,-445.81172 -780.47281,-511.96037 -678.02611,-512.19914 C -635.51913,-511.96037 -582.50465,-500.49777 -582.74343,-457.75194 L -582.74343,-355.30524 L -657.96661,-355.30524 L -657.96661,-400.20028 C -658.20547,-399.72265 -676.5933,-393.27503 -690.68265,-388.97654 C -699.99604,-386.3497 -707.39891,-380.85718 -708.35409,-371.3051 C -708.59294,-363.18574 -699.27964,-355.5441 -699.51841,-355.30524 L -774.02511,-355.30524 C -773.54748,-355.5441 -790.02489,-361.51408 -789.30849,-379.42438 C -787.87568,-413.09568 -761.8462,-425.51344 -697.13043,-432.9164 C -662.26502,-437.2149 -658.20547,-440.55805 -657.96661,-448.91618 C -658.20547,-456.55799 -662.50379,-464.67718 -681.84697,-464.91604 C -710.74215,-464.91604 -708.83172,-445.57294 -708.35409,-445.81172 L -781.18921,-445.81172 z "
       style="font-size:10px;letter-spacing:0;word-spacing:0;fill:#eb741b;fill-rule:nonzero;stroke:none;font-family:fnt0, &quot;TheSans&quot;, Arial"
       id="path8509" />
    <path
       d="M -541.90803,-507.42302 L -541.90803,-355.30524 L -465.01335,-355.30524 L -465.01335,-428.14028 C -464.77458,-441.27445 -461.19248,-447.2446 -456.17767,-451.30424 C -451.16278,-457.03554 -441.84939,-461.09518 -431.34213,-461.09518 L -409.84983,-461.09518 L -409.84983,-507.42302 C -410.0886,-507.90065 -421.31234,-512.91554 -437.07335,-510.52748 C -462.38652,-506.94547 -471.22228,-486.16957 -471.46113,-485.93071 L -471.46113,-507.42302 L -541.90803,-507.42302 z "
       style="font-size:10px;letter-spacing:0;word-spacing:0;fill:#eb741b;fill-rule:nonzero;stroke:none;font-family:fnt0, &quot;TheSans&quot;, Arial"
       id="path8511" />
    <path
       d="M -391.46191,-507.42302 L -391.46191,-461.09518 L -360.17859,-461.09518 L -360.17859,-399.48388 C -359.93982,-385.39445 -360.41744,-374.64834 -350.62651,-364.14092 C -341.79075,-355.30524 -330.56701,-355.78287 -316.95521,-355.30524 L -284.00031,-355.30524 L -284.00031,-461.09518 L -238.38887,-461.09518 L -238.38887,-507.42302 L -284.00031,-507.42302 L -284.00031,-543.48238 L -360.17859,-543.48238 L -360.17859,-507.42302 L -391.46191,-507.42302 z "
       style="font-size:10px;letter-spacing:0;word-spacing:0;fill:#eb741b;fill-rule:nonzero;stroke:none;font-family:fnt0, &quot;TheSans&quot;, Arial"
       id="path8513" />
    <path
       d="M -120.65872,-432.9164 L -84.838294,-432.9164 C -84.838294,-432.67763 -81.494975,-463.72201 -117.55425,-463.48315 C -152.89721,-463.96078 -149.07626,-432.67763 -148.83749,-432.9164 L -120.65872,-432.9164 L -120.65872,-394.70784 L -147.166,-394.70784 L -147.166,-355.30524 L -202.56837,-355.30524 C -202.56837,-355.5441 -225.73233,-376.32 -224.77707,-417.8718 C -224.29945,-512.67677 -121.85275,-511.00511 -118.50951,-510.52748 C 9.7279862,-509.57231 -11.047914,-394.23021 -11.047914,-394.70784 L -120.65872,-394.70784 L -120.65872,-432.9164 z "
       style="font-size:10px;letter-spacing:0;word-spacing:0;fill:#eb741b;fill-rule:nonzero;stroke:none;font-family:fnt0, &quot;TheSans&quot;, Arial"
       id="path8515" />
  </g>
</svg>
