<?xml version="1.0" encoding="UTF-8" standalone="no"?>
<!-- Created with Inkscape (http://www.inkscape.org/) -->
<svg xmlns:dc="http://purl.org/dc/elements/1.1/" xmlns:cc="http://web.resource.org/cc/" xmlns:rdf="http://www.w3.org/1999/02/22-rdf-syntax-ns#" xmlns:svg="http://www.w3.org/2000/svg" xmlns="http://www.w3.org/2000/svg" xmlns:sodipodi="http://sodipodi.sourceforge.net/DTD/sodipodi-0.dtd" xmlns:inkscape="http://www.inkscape.org/namespaces/inkscape" width="315" height="50" id="svg2" sodipodi:version="0.32" inkscape:version="0.45.1" version="1.0" inkscape:output_extension="org.inkscape.output.svg.inkscape">
  <g inkscape:label="Layer 1" inkscape:groupmode="layer" id="layer1" transform="translate(-68.780392,-643.44107)">
    <g id="g7231" clip-path="url(#id54)" transform="matrix(1,0,0,-1,-176.02023,535.69873)"/>
    <g id="g7233" clip-path="url(#id55)" transform="matrix(1,0,0,-1,-176.02023,535.69873)"/>
    <g id="g7235" clip-path="url(#id56)" transform="matrix(1,0,0,-1,-176.02023,535.69873)"/>
    <g id="g2258" transform="translate(58.561062,-271.45123)">
      <path style="fill:#000000;fill-rule:evenodd;stroke:none" d="M 132.71544,914.8923 L 185.88098,914.8923 L 185.88098,964.8923 L 132.71544,964.8923 L 132.71544,914.8923 z " id="path11513"/>
      <path style="fill:#000000;fill-rule:evenodd;stroke:none" d="M 10.21933,914.8923 L 63.371899,914.8923 L 63.371899,964.8923 L 10.21933,964.8923 L 10.21933,914.8923 z " id="path11515"/>
      <path style="fill:#ffffff;fill-rule:nonzero;stroke:none" d="M 173.64694,929.63023 C 169.1062,926.98363 165.21414,925.81602 160.94585,925.81602 C 152.51305,925.81602 146.24683,931.78384 146.24683,939.85338 C 146.24683,948.10455 152.30547,953.79993 161.1664,953.79993 C 165.31793,953.79993 169.85867,952.34689 174.02317,949.6484 L 174.02317,955.42162 C 170.40355,957.30278 166.4596,958.65203 160.68638,958.65203 C 146.84362,958.65203 140.772,948.03968 140.772,940.34637 C 140.772,929.13724 149.26967,920.95094 161.01072,920.95094 C 164.78601,920.95094 168.62618,921.85909 173.64694,923.97377 L 173.64694,929.63023" id="path11517"/>
      <path style="fill:#000000;fill-rule:nonzero;stroke:none" d="M 228.73256,926.93174 L 216.16121,926.93174 L 216.16121,958.61311 L 210.94585,958.61311 L 210.94585,926.93174 L 198.36152,926.93174 L 198.36152,922.24829 L 228.73256,922.24829 L 228.73256,926.93174" id="path11519"/>
      <path style="fill:#000000;fill-rule:nonzero;stroke:none" d="M 271.38954,958.97637 L 270.37761,958.97637 L 258.44196,929.17616 L 246.40252,958.97637 L 245.39058,958.97637 L 230.69157,922.24829 L 235.9199,922.24829 L 245.93547,947.33911 L 255.98996,922.24829 L 260.94585,922.24829 L 271.0652,947.33911 L 280.97698,922.24829 L 286.14045,922.24829 L 271.38954,958.97637" id="path11521"/>
      <path style="fill:#000000;fill-rule:nonzero;stroke:none" d="M 290.84984,940.43719 C 290.84984,932.43252 296.85659,926.56848 304.96505,926.56848 C 313.11243,926.56848 319.11917,932.43252 319.11917,940.43719 C 319.11917,948.37699 313.11243,954.29292 304.96505,954.29292 C 296.85659,954.29292 290.84984,948.37699 290.84984,940.43719 z M 285.46583,940.43719 C 285.46583,950.29707 292.9775,959.06718 304.84829,959.06718 C 317.16017,959.06718 324.51616,950.25815 324.51616,940.43719 C 324.51616,930.30486 316.93962,921.79422 304.96505,921.79422 C 293.18508,921.79422 285.46583,930.35675 285.46583,940.43719" id="path11523"/>
      <path style="fill:#000000;fill-rule:evenodd;stroke:none" d="M 71.480358,914.8923 L 124.63293,914.8923 L 124.63293,964.8923 L 71.480358,964.8923 L 71.480358,914.8923 z " id="path11525"/>
      <path style="fill:#ffffff;fill-rule:evenodd;stroke:none" d="M 104.43313,938.71171 C 104.43313,938.71171 109.3501,936.84352 109.05171,931.08327 C 109.05171,931.08327 109.5966,922.49479 97.829605,921.84611 L 85.712324,921.84611 L 85.712324,957.89957 L 99.568059,957.89957 C 99.568059,957.89957 112.2951,958.14606 112.2951,947.8321 C 112.2951,947.8321 112.95675,941.22857 104.43313,938.71171 z M 92.186118,927.47663 L 97.167955,927.47663 C 97.167955,927.47663 102.38332,927.42473 102.38332,931.74492 C 102.38332,931.74492 103.29146,936.3635 96.389543,936.79163 L 92.186118,936.79163 L 92.186118,927.47663 z M 98.854514,952.26905 L 92.186118,952.26905 L 92.186118,942.42214 L 98.906408,942.42214 C 98.906408,942.42214 105.69157,942.42214 105.69157,947.40398 C 105.69157,947.40398 106.17159,952.26905 98.854514,952.26905" id="path11527"/>
      <path style="fill:#ffffff;fill-rule:evenodd;stroke:none" d="M 42.860742,938.71171 C 42.860742,938.71171 47.777711,936.84352 47.47932,931.08327 C 47.47932,931.08327 48.024208,922.49479 36.257213,921.84611 L 24.139932,921.84611 L 24.139932,957.89957 L 37.995666,957.89957 C 37.995666,957.89957 50.722703,958.14606 50.722703,947.8321 C 50.722703,947.8321 51.384353,941.22857 42.860742,938.71171 z M 30.613725,927.47663 L 35.595562,927.47663 C 35.595562,927.47663 40.823897,927.42473 40.823897,931.74492 C 40.823897,931.74492 41.719071,936.3635 34.830124,936.79163 L 30.613725,936.79163 L 30.613725,927.47663 z M 37.282122,952.26905 L 30.613725,952.26905 L 30.613725,942.42214 L 37.334016,942.42214 C 37.334016,942.42214 44.119174,942.42214 44.119174,947.40398 C 44.119174,947.40398 44.599195,952.26905 37.282122,952.26905" id="path11529"/>
    </g>
  </g>
</svg>