<?xml version="1.0" encoding="utf-8"?>
<!-- Generator: Adobe Illustrator 15.1.0, SVG Export Plug-In . SVG Version: 6.00 Build 0)  -->
<!DOCTYPE svg PUBLIC "-//W3C//DTD SVG 1.1//EN" "http://www.w3.org/Graphics/SVG/1.1/DTD/svg11.dtd">
<svg version="1.1" id="Layer_1" xmlns="http://www.w3.org/2000/svg" xmlns:xlink="http://www.w3.org/1999/xlink" x="0px" y="0px"
	 width="69.039px" height="10px" viewBox="0 0 69.039 10" enable-background="new 0 0 69.039 10" xml:space="preserve">
<g>
	<defs>
		<rect id="SVGID_1_" width="69.039" height="10"/>
	</defs>
	<clipPath id="SVGID_2_">
		<use xlink:href="#SVGID_1_"  overflow="visible"/>
	</clipPath>
	<path clip-path="url(#SVGID_2_)" fill="#CAC2B8" d="M17.178,10c1.863,0,2.971-0.664,3.965-1.725l-1.356-1.367
		c-0.758,0.688-1.434,1.131-2.538,1.131c-1.658,0-2.805-1.379-2.805-3.037V4.975c0-1.659,1.174-3.014,2.805-3.014
		c0.967,0,1.725,0.416,2.471,1.092l1.352-1.56C20.176,0.609,19.084,0,17.261,0C14.29,0,12.22,2.251,12.22,5.002v0.027
		C12.22,7.804,14.333,10,17.178,10"/>
	<path clip-path="url(#SVGID_2_)" fill="#CAC2B8" d="M25.27,5.788l1.285-3.135l1.284,3.135H25.27z M21.458,9.836h2.169l0.884-2.17
		h4.087l0.884,2.17h2.224l-4.145-9.737H25.6L21.458,9.836z"/>
	<polygon clip-path="url(#SVGID_2_)" fill="#CAC2B8" points="32.917,9.834 35.016,9.834 35.016,3.689 39.699,9.834 41.507,9.834 
		41.507,0.168 39.408,0.168 39.408,6.117 34.879,0.168 32.917,0.168 	"/>
	<polygon clip-path="url(#SVGID_2_)" fill="#CAC2B8" points="46.628,9.903 48.506,9.903 52.416,0.167 50.121,0.167 47.595,6.977 
		45.068,0.167 42.719,0.167 	"/>
	<path clip-path="url(#SVGID_2_)" fill="#CAC2B8" d="M54.681,5.788l1.284-3.135l1.285,3.135H54.681z M50.869,9.836h2.169l0.884-2.17
		h4.087l0.884,2.17h2.225l-4.146-9.737h-1.961L50.869,9.836z"/>
	<path clip-path="url(#SVGID_2_)" fill="#CAC2B8" d="M65.49,9.973c2.087,0,3.549-1.076,3.549-2.998V6.947
		c0-1.686-1.104-2.39-3.064-2.899c-1.671-0.429-2.088-0.633-2.088-1.27V2.75c0-0.472,0.43-0.845,1.246-0.845
		c0.814,0,1.658,0.361,2.512,0.955l1.107-1.603c-0.982-0.786-2.185-1.23-3.592-1.23c-1.976,0-3.383,1.163-3.383,2.915v0.028
		c0,1.921,1.254,2.46,3.203,2.955c1.614,0.416,1.948,0.692,1.948,1.229v0.027c0,0.565-0.526,0.911-1.395,0.911
		c-1.108,0-2.02-0.455-2.888-1.174l-1.258,1.504C62.548,9.462,64.029,9.973,65.49,9.973"/>
	<rect y="0.096" clip-path="url(#SVGID_2_)" fill="#CAC2B8" width="9.737" height="9.736"/>
</g>
</svg>
