<?xml version="1.0" encoding="utf-8"?>
<!-- Generator: Adobe Illustrator 15.1.0, SVG Export Plug-In . SVG Version: 6.00 Build 0)  -->
<!DOCTYPE svg PUBLIC "-//W3C//DTD SVG 1.1//EN" "http://www.w3.org/Graphics/SVG/1.1/DTD/svg11.dtd">
<svg version="1.1" id="Layer_1" xmlns="http://www.w3.org/2000/svg" xmlns:xlink="http://www.w3.org/1999/xlink" x="0px" y="0px"
	 width="595.28px" height="841.89px" viewBox="0 0 595.28 841.89" enable-background="new 0 0 595.28 841.89" xml:space="preserve">
<path fill="#CC2035" d="M333.441,408.986c-0.238-0.247-0.358-0.583-0.332-0.925s0.197-0.657,0.471-0.864
	c12.593-9.525,13.438-17.588,13.377-23.298c0-13.495-11.248-25.107-23.459-24.435c-6.789,0.206-24.593,8.205-36.513,13.467
	c0,0-1.251,0.646-2.242-0.077c-3.833-2.502-8.515-3.981-13.58-3.981c-12.956,0-23.459,9.626-23.459,21.501v38
	c0,9.051,6.104,16.791,14.745,19.962c0.627,0.23,1.045,0.828,1.045,1.497v21.44l0,0v0.001c0,6.109,4.953,11.062,11.062,11.062h46.38
	c6.109,0,11.062-4.953,11.062-11.062c0-0.003,0-0.006,0-0.01l0,0V457.75v-0.746c0-0.65,0.395-1.235,0.998-1.479
	c8.664-3.497,14.791-12.074,14.791-22.108C347.789,421.877,342.159,418.016,333.441,408.986z"/>
<path fill="#43BFEF" d="M317.484,442.455c-2.431,0-4.861-0.928-6.717-2.783l-30.812-30.812l30.812-30.812
	c3.71-3.71,9.725-3.71,13.435,0s3.71,9.725,0,13.435l-17.377,17.377l17.377,17.377c3.71,3.71,3.71,9.725,0,13.435
	C322.348,441.527,319.916,442.455,317.484,442.455z"/>
<path fill="#43BFEF" d="M265.142,436.133c-5.247,0-9.5-4.254-9.5-9.5v-34.016c0-5.247,4.253-9.5,9.5-9.5s9.5,4.253,9.5,9.5v34.016
	C274.642,431.879,270.388,436.133,265.142,436.133z"/>
<g>
	<path id="path5830_1_" fill="#2A4D99" d="M317.83,464.239l0.004,5.87c-0.004,1.288,1.113,2.308,2.486,2.308h5.58
		c0.498,0,0.908-0.379,0.902-0.849c0-0.472-0.393-0.851-0.898-0.852l-5.649,0.001c-0.402,0-0.694-0.228-0.694-0.567l-0.006-3.272
		c0-0.074,0.061-0.13,0.131-0.13h4.838c0.498,0,0.903-0.398,0.897-0.869c0.006-0.471-0.393-0.833-0.897-0.833h-4.832
		c-0.072,0-0.131-0.058-0.131-0.128l-0.005-0.689c0.005-0.486-0.38-0.88-0.862-0.87C318.203,463.358,317.83,463.742,317.83,464.239"
		/>
	<path id="path5832_1_" fill="#2A4D99" d="M299.842,465.046c-1.324,0-2.416,1.021-2.415,2.268l-0.001,4.255
		c0.001,0.489,0.386,0.849,0.874,0.849c0.482,0,0.852-0.349,0.852-0.849v-4.198c0-0.34,0.311-0.622,0.69-0.622h4.583
		c0.391,0,0.708,0.282,0.708,0.622v4.198c0,0.5,0.377,0.849,0.854,0.849c0.492,0,0.873-0.359,0.873-0.849v-4.255
		c0-1.246-1.096-2.268-2.43-2.268H299.842z"/>
	<path id="path5834_1_" fill="#2A4D99" d="M287.813,464.229l-0.001,5.881c-0.003,1.288,1.126,2.308,2.491,2.308h5.586
		c0.493,0,0.908-0.379,0.901-0.849c0.007-0.46-0.39-0.851-0.901-0.852l-5.645,0.001c-0.406,0-0.705-0.228-0.707-0.568v-3.271
		c0-0.074,0.061-0.13,0.141-0.13h4.823c0.508,0,0.905-0.398,0.905-0.869s-0.397-0.833-0.905-0.833h-4.823
		c-0.081,0-0.139-0.058-0.139-0.128l-0.002-0.689c0.002-0.486-0.372-0.88-0.855-0.869
		C288.188,463.358,287.81,463.742,287.813,464.229"/>
	<path id="path5836_1_" fill="#2A4D99" d="M279.74,467.896c-0.073,0-0.13-0.06-0.13-0.129v-0.418
		c-0.006-0.279,0.266-0.602,0.656-0.602h4.049c0.377,0,0.659,0.34,0.66,0.565c-0.002,0.364-0.257,0.584-0.66,0.584L279.74,467.896z
		 M286.708,471.568c0-0.455-0.38-0.852-0.857-0.851l-5.593-0.001c-0.361,0.001-0.649-0.278-0.654-0.607l0.005-0.36
		c0-0.093,0.058-0.153,0.13-0.153l4.581,0.001c1.336,0,2.388-0.979,2.398-2.283c-0.01-1.235-1.097-2.268-2.398-2.268h-4.046
		c-1.315,0-2.397,1.021-2.397,2.268l0.004,2.845c-0.004,1.25,1.075,2.259,2.384,2.259h5.587
		C286.332,472.417,286.708,472.049,286.708,471.568"/>
	<path id="path5838_1_" fill="#2A4D99" d="M309.814,467.897c-0.078,0.011-0.142-0.06-0.139-0.13v-0.43
		c0-0.268,0.277-0.59,0.666-0.59h4.039c0.391,0,0.67,0.339,0.67,0.569c0,0.361-0.266,0.591-0.67,0.591L309.814,467.897z
		 M316.791,471.568c-0.006-0.455-0.395-0.851-0.865-0.852l-5.6,0.001c-0.346,0-0.653-0.279-0.65-0.608l-0.003-0.359
		c0-0.094,0.063-0.16,0.141-0.16l4.589,0.007c1.337,0,2.383-0.987,2.383-2.283c0-1.226-1.098-2.268-2.383-2.268h-4.049
		c-1.322,0-2.403,1.021-2.403,2.268l0.001,2.837c0,1.258,1.068,2.267,2.391,2.267h5.574
		C316.396,472.417,316.791,472.049,316.791,471.568"/>
	<path id="path5840_1_" fill="#2A4D99" d="M268.692,465.309v6.145c0,0.512,0.425,0.924,0.935,0.925c0.521,0,0.941-0.413,0.941-0.925
		V465.3c-0.005-0.52-0.426-0.935-0.935-0.935C269.112,464.365,268.692,464.78,268.692,465.309"/>
	<path id="path5842_1_" fill="#2A4D99" d="M275.562,463.58L275.562,463.58l-4.436,4.498l4.44,4.511
		c0.373,0.399,0.962,0.458,1.368,0.118c0.204-0.171,0.323-0.409,0.347-0.687c0-0.031,0.004-0.056,0.004-0.072
		c-0.005-0.23-0.081-0.437-0.22-0.608l-3.285-3.29l3.3-3.252c0.143-0.15,0.213-0.417,0.194-0.669
		c-0.02-0.274-0.155-0.54-0.356-0.689C276.493,463.117,275.974,463.168,275.562,463.58"/>
</g>
</svg>
