<?xml version="1.0" encoding="UTF-8" standalone="no"?>
<!-- Created with Inkscape (http://www.inkscape.org/) -->
<svg
   xmlns:dc="http://purl.org/dc/elements/1.1/"
   xmlns:cc="http://creativecommons.org/ns#"
   xmlns:rdf="http://www.w3.org/1999/02/22-rdf-syntax-ns#"
   xmlns:svg="http://www.w3.org/2000/svg"
   xmlns="http://www.w3.org/2000/svg"
   xmlns:xlink="http://www.w3.org/1999/xlink"
   xmlns:sodipodi="http://sodipodi.sourceforge.net/DTD/sodipodi-0.dtd"
   xmlns:inkscape="http://www.inkscape.org/namespaces/inkscape"
   version="1.0"
   width="1024"
   height="975"
   id="svg3305"
   sodipodi:version="0.32"
   inkscape:version="0.46"
   sodipodi:docname="Nickelodeon.svg"
   inkscape:output_extension="org.inkscape.output.svg.inkscape">
  <metadata
     id="metadata48">
    <rdf:RDF>
      <cc:Work
         rdf:about="">
        <dc:format>image/svg+xml</dc:format>
        <dc:type
           rdf:resource="http://purl.org/dc/dcmitype/StillImage" />
      </cc:Work>
    </rdf:RDF>
  </metadata>
  <sodipodi:namedview
     inkscape:window-height="718"
     inkscape:window-width="1008"
     inkscape:pageshadow="2"
     inkscape:pageopacity="0.0"
     guidetolerance="10.0"
     gridtolerance="10.0"
     objecttolerance="10.0"
     borderopacity="1.0"
     bordercolor="#666666"
     pagecolor="#ffffff"
     id="base"
     showgrid="false"
     showguides="true"
     inkscape:guide-bbox="true"
     inkscape:zoom="0.35355339"
     inkscape:cx="648.24989"
     inkscape:cy="506.57717"
     inkscape:window-x="0"
     inkscape:window-y="14"
     inkscape:current-layer="svg3305" />
  <defs
     id="defs3307">
    <inkscape:perspective
       sodipodi:type="inkscape:persp3d"
       inkscape:vp_x="0 : 262.08734 : 1"
       inkscape:vp_y="0 : 1000 : 0"
       inkscape:vp_z="708.66138 : 262.08734 : 1"
       inkscape:persp3d-origin="354.33069 : 174.72489 : 1"
       id="perspective50" />
    <clipPath
       id="clp3">
      <path
         d="M 700.97,32.332 L 773.67,32.332 L 773.67,83.732 L 700.97,83.732 L 700.97,32.332 z"
         id="path2933" />
    </clipPath>
    <clipPath
       id="clipPath3316">
      <path
         d="M 700.97,32.332 L 773.67,32.332 L 773.67,83.732 L 700.97,83.732 L 700.97,32.332 z"
         id="path3318" />
    </clipPath>
    <inkscape:perspective
       id="perspective2478"
       inkscape:persp3d-origin="150 : 100 : 1"
       inkscape:vp_z="300 : 150 : 1"
       inkscape:vp_y="0 : 1000 : 0"
       inkscape:vp_x="0 : 150 : 1"
       sodipodi:type="inkscape:persp3d" />
  </defs>
  <g
     id="g2481"
     transform="matrix(3.4574651,0,0,3.4574651,-6.472258,-26.487043)">
    <path
       id="path2421"
       d="M 281.176,100.281 C 279.344,100.29 271.518,102.403 272.476,102.049 C 273.409,101.733 259.252,106.935 259.607,104.534 C 259.952,102.133 269.164,99.769 274.478,99.071 L 276.422,98.252 C 281.455,94.251 295.647,90.575 296.29,93.981 C 296.921,97.405 283.027,100.263 281.176,100.281"
       style="fill:#f47e20" />
    <path
       id="path2423"
       d="M 269.563,266.834 C 267.581,266.834 265.962,265.278 265.962,263.213 C 265.933,261.148 267.58,259.566 269.59,259.566 C 271.592,259.566 273.21,261.148 273.21,263.213 C 273.21,265.251 271.618,266.834 269.59,266.834 L 269.563,266.834"
       style="fill:#f6921e" />
    <g
       id="g2425">
	<g
   id="g2427">
		<path
   id="path2429"
   d="M 257.828,121.786 C 258.675,122.102 261.57,122.252 263.142,122.326 L 264.835,121.638 C 267.57,118.372 262.583,116.678 260.981,117.2 C 257.093,118.438 254.747,115.357 252.225,113.208 C 251.388,112.491 250.708,110.677 250.912,109.197 C 251.407,105.763 253.518,105.447 255.081,102.162 C 255.231,101.847 256.813,100.031 255.239,98.002 C 251.703,94.931 246.24,101.677 241.756,103.576 L 238.138,103.446 C 225.081,98.765 241.701,90.511 239.254,82.108 C 239.086,81.568 236.628,79.316 234.767,78.87 C 227.827,76.804 234.954,64.958 225.594,67.517 L 223.499,66.922 C 219.134,63.423 211.494,64.595 208.674,59.682 L 208.723,57.932 C 215.477,42.783 227.426,22.589 227.696,20.924 C 227.974,19.23 226.458,20.152 226.458,20.152 C 223.678,22.282 222.876,25.921 221.629,28.843 C 220.364,32.919 214.352,33.486 215.004,38.157 L 215.106,39.776 C 214.027,47.211 206.033,47.77 199.733,49.733 L 197.11,50.18 C 190.577,49.724 190.317,41.303 185.728,37.552 C 185.254,37.152 184.165,36.594 183.14,36.761 C 179.316,37.822 176.944,40.539 174.822,43.461 C 173.891,44.801 170.634,45.164 167.871,45.294 C 154.047,45.629 144.714,54.06 134.822,39.962 C 133.333,37.347 130.29,36.36 127.815,37.124 C 120.669,38.845 117.262,44.578 109.464,40.67 C 108.552,39.86 107.147,37.543 106.784,36.593 C 106.411,35.653 105.639,32.405 105.109,31.708 C 102.69,28.535 99.554,18.568 99.526,18.261 C 99.219,14.855 97.478,4.852 95.143,10.863 C 93.524,16.298 98.782,19.211 100,24.114 C 101.145,32.656 106.784,40.371 108.561,49.872 L 108.496,51.687 C 107.77,53.427 105.993,53.817 104.253,54.274 L 102.457,54.134 C 97.749,52.198 93.291,46.541 88.424,49.081 L 87.986,50.198 C 91.234,53.567 88.601,58.461 91.299,61.979 L 91.783,63.105 L 91.532,64.928 C 90.165,68.623 87.596,68.809 86.126,72.364 L 85.159,73.378 C 77.565,75.76 76.951,83.122 71.265,87.765 C 64.91,95.033 57.949,87.225 51.472,86.36 C 49.285,86.071 47.331,87.273 46.475,87.681 C 45.554,88.128 44.8,90.25 45.014,91.189 C 45.293,92.418 53.073,95.386 57.725,97.499 L 58.795,98.336 C 64.639,105.865 56.655,112.053 54.021,118.94 C 51.369,123.313 47.777,117.33 44.111,120.764 C 39.57,124.234 40.891,125.956 42.845,128.598 C 43.952,129.696 47.451,131.595 49.712,131.827 C 61.252,132.917 59.371,147.685 57.073,156.432 C 55.072,161.168 48.102,163.113 45.496,164.388 C 43.03,165.449 31.873,166.342 26.503,169.934 C 22.25,172.772 20.743,177.22 21.841,179.714 C 22.949,182.226 32.272,178.635 34.934,175.246 C 37.223,172.753 46.054,176.41 50.391,175.358 C 63.437,171.887 65.642,180.234 75.041,186.618 C 76.939,188.582 80.867,190.341 81.527,192.499 C 83.146,196.53 85.863,203.461 88.282,206.718 C 91.502,210.748 97.709,217.961 97.821,221.329 C 97.654,226.939 94.341,232.645 91.707,237.185 C 90.292,240.182 94.071,242.553 96.397,242.599 C 98.835,242.284 103.339,236.906 104.158,232.987 C 107.257,223.059 120.229,228.903 128.315,228.204 C 128.66,228.187 131.172,228.877 132.866,229.602 C 137.118,231.145 136.681,233.9 141.687,232.327 C 143.604,231.611 145.902,232.876 147.894,233.89 C 156.79,236.933 145.438,257.658 154.315,261.985 C 163.174,266.283 154.631,243.885 160.038,235.547 C 163.882,230.586 169.86,227.143 176.076,225.99 C 181.027,225.951 187.15,234.122 188.145,239.558 C 189.431,244.683 190.836,251.038 196.018,251.495 L 196.838,250.648 C 197.144,246.071 193.972,241.176 194.11,236.597 L 193.803,233.993 C 191.961,228.744 184.542,225.17 188.173,221.207 C 190.173,219.086 193.478,217.028 193.961,216.638 C 198.558,212.971 201.686,222.688 207.155,220.443 C 208.17,220.046 210.579,218.48 210.579,215.344 C 211.232,207.472 217.355,204.81 224.613,202.725 L 226.577,201.674 C 229.722,198.752 227.339,196.211 228.914,192.639 C 230.346,189.428 231.268,189.139 232.998,188.869 C 243.681,186.944 258.923,201.591 261.491,203.331 C 262.607,204.094 267.121,204.904 268.201,203.692 C 268.834,202.986 268.677,200.538 268.266,198.351 L 267.009,196.591 C 260.783,191.483 251.274,190.59 244.09,186.812 L 241.809,185.054 L 240.581,183.407 C 237.659,177.321 236.058,169.523 234.327,163.735 C 233.098,159.631 234.625,151.386 239.277,144.361 C 240.673,142.611 241.214,137.065 241.138,136.488 C 239.881,128.187 250.127,126.707 254.966,122.268 C 255.204,122.057 256.619,121.367 257.828,121.786 M 80.971,274.398 C 78.105,272.63 80.404,267.326 80.655,266.115 C 80.925,264.917 79.873,264.237 82.665,262.339 C 85.475,260.44 84.07,269.858 83.967,270.443 C 83.855,270.993 82.59,273.915 80.971,274.398 z M 68.008,280.169 C 68.064,279.218 66.491,278.8 65.719,279.815 C 64.947,280.81 62.937,285.557 65.766,287.11 C 68.278,285.872 67.934,281.135 68.008,280.169 z M 9.057,186.907 C 9.95,184.692 7.679,180.952 4.981,183.026 L 4.404,183.724 C 3.827,184.766 2.599,185.651 3.483,186.803 C 5.019,188.078 6.74,188.172 8.452,187.502 L 9.057,186.907 z"
   style="fill:#f47e20" />

	</g>

</g>
    <g
       id="g2431">
	<defs
   id="defs2433">
		<path
   d="M 257.791,121.814 C 258.648,122.065 261.561,122.242 263.106,122.326 L 264.817,121.638 C 267.561,118.382 262.593,116.668 260.965,117.18 C 257.102,118.465 254.786,115.375 252.216,113.236 C 251.353,112.463 250.673,110.657 250.923,109.206 C 251.444,105.772 253.5,105.427 255.046,102.171 C 255.213,101.826 256.842,100.03 255.213,97.964 C 251.697,94.968 246.205,101.659 241.747,103.548 L 238.145,103.455 C 225.109,98.737 241.664,90.512 239.264,82.108 C 239.086,81.587 236.602,79.269 234.806,78.841 C 227.853,76.784 234.973,64.948 225.63,67.526 L 223.48,66.922 C 219.107,63.404 211.477,64.614 208.648,59.719 L 208.73,57.923 C 215.505,42.829 227.426,22.589 227.686,20.952 C 227.938,19.24 226.487,20.188 226.487,20.188 C 223.658,22.245 222.885,25.93 221.592,28.843 C 220.391,32.881 214.389,33.477 214.993,38.195 L 215.078,39.74 C 214.044,47.203 206.07,47.799 199.724,49.771 L 197.072,50.199 C 190.55,49.687 190.297,41.284 185.747,37.59 C 185.234,37.162 184.2,36.566 183.179,36.734 C 179.316,37.851 176.916,40.512 174.86,43.425 C 173.91,44.802 170.653,45.137 167.908,45.314 C 154.019,45.659 144.677,54.062 134.812,39.992 C 133.352,37.34 130.262,36.39 127.778,37.163 C 120.659,38.885 117.234,44.542 109.427,40.681 C 108.571,39.825 107.11,37.508 106.766,36.568 C 106.421,35.619 105.649,32.455 105.138,31.673 C 102.653,28.509 99.563,18.553 99.563,18.301 C 99.219,14.868 97.506,4.836 95.106,10.838 C 93.561,16.329 98.791,19.241 99.992,24.136 C 101.108,32.622 106.766,40.336 108.572,49.856 L 108.479,51.661 C 107.799,53.457 105.995,53.802 104.282,54.323 L 102.477,54.146 C 97.759,52.174 93.302,46.516 88.416,49.084 L 87.988,50.201 C 91.245,53.552 88.584,58.436 91.329,61.954 L 91.757,63.071 L 91.506,64.95 C 90.129,68.644 87.561,68.812 86.1,72.329 L 85.161,73.362 C 77.53,75.762 76.925,83.133 71.267,87.767 C 64.92,95.053 57.969,87.246 51.455,86.39 C 49.305,86.055 47.332,87.246 46.476,87.683 C 45.536,88.111 44.763,90.252 45.024,91.191 C 45.275,92.392 53.083,95.398 57.716,97.538 L 58.823,98.31 C 64.657,105.857 56.683,112.036 54.021,118.977 C 52.569,121.211 50.941,120.699 49.136,120.095 C 47.591,119.583 45.879,119.155 44.157,120.783 C 39.532,124.217 40.9,125.929 42.873,128.591 C 43.99,129.697 47.423,131.587 49.74,131.848 C 61.224,132.871 59.344,147.714 57.11,156.462 C 55.053,161.18 48.103,163.152 45.534,164.353 C 43.05,165.469 31.902,166.326 26.495,169.927 C 22.289,172.755 20.754,177.213 21.861,179.698 C 22.978,182.192 32.237,178.675 34.899,175.241 C 36.183,173.78 39.533,174.385 42.958,174.896 C 45.703,175.325 48.448,175.752 50.421,175.325 C 63.458,171.9 65.599,180.22 75.035,186.649 C 76.923,188.622 80.869,190.334 81.558,192.475 C 83.186,196.513 85.838,203.455 88.248,206.712 C 91.505,210.75 97.674,217.953 97.852,221.292 C 97.675,226.951 94.334,232.618 91.673,237.158 C 90.306,240.165 94.074,242.565 96.391,242.565 C 98.875,242.305 103.342,236.899 104.199,232.953 C 106.339,225.928 113.458,226.866 120.232,227.724 C 123.061,228.069 125.89,228.412 128.291,228.245 C 128.636,228.15 131.213,228.84 132.842,229.611 C 137.132,231.157 136.704,233.902 141.673,232.358 C 143.645,231.584 145.879,232.87 147.935,233.902 C 156.766,236.899 145.451,257.66 154.282,261.95 C 163.197,266.323 154.626,243.849 160.024,235.53 C 163.885,230.552 169.883,227.129 176.061,226.009 C 181.031,225.927 187.127,234.163 188.149,239.561 C 189.435,244.706 190.811,251.051 196.042,251.481 L 196.813,250.625 C 197.158,246.074 193.986,241.189 194.153,236.564 L 193.808,233.986 C 191.928,228.757 184.547,225.156 188.149,221.21 C 190.208,219.069 193.474,217.004 193.986,216.659 C 196.386,214.696 198.359,216.492 200.582,218.298 C 202.473,219.831 204.528,221.47 207.19,220.439 C 208.129,220.009 210.624,218.465 210.624,215.376 C 211.219,207.484 217.397,204.831 224.6,202.767 L 226.574,201.658 C 229.748,198.736 227.345,196.254 228.891,192.652 C 230.342,189.395 231.291,189.134 233.004,188.873 C 243.723,186.91 258.9,201.566 261.48,203.371 C 262.596,204.06 267.137,204.917 268.17,203.716 C 268.85,203.028 268.683,200.542 268.253,198.395 L 267.054,196.596 C 260.79,191.451 251.271,190.595 244.068,186.817 L 241.836,185.021 L 240.552,183.393 C 237.64,177.298 236.094,169.499 234.381,163.748 C 233.087,159.636 234.633,151.4 239.269,144.365 C 240.73,142.653 241.24,137.078 241.157,136.473 C 239.864,128.154 250.156,126.703 254.958,122.245 C 255.214,122.065 256.59,121.377 257.791,121.814 M 80.952,274.381 C 78.123,272.668 80.44,267.346 80.701,266.145 C 80.952,264.944 79.835,264.257 82.664,262.376 C 85.502,260.402 84.041,269.828 83.957,270.435 C 83.874,271.029 82.581,273.951 80.952,274.381 M 68.008,280.205 C 68.092,279.181 66.464,278.837 65.691,279.778 C 64.919,280.809 62.946,285.527 65.774,287.073 C 68.259,285.872 67.915,281.154 68.008,280.205 M 9.085,186.907 C 9.941,184.674 7.717,180.988 4.972,183.045 L 4.367,183.725 C 3.855,184.757 2.571,185.614 3.511,186.814 C 5.056,188.099 6.768,188.192 8.49,187.503 L 9.085,186.907"
   id="SVGID_1_" />

	</defs>

	<clipPath
   id="SVGID_2_">
		<use
   id="use2437"
   overflow="visible"
   xlink:href="#SVGID_1_"
   style="overflow:visible"
   x="0"
   y="0"
   width="1024"
   height="768" />

	</clipPath>

	<g
   id="g2439"
   clip-path="url(#SVGID_2_)">
		<g
   id="g2441">
			<path
   id="path2443"
   d="M 191.368,131.129 C 194.421,135.782 193.259,142.25 190.708,146.698 C 188.065,150.122 184.677,153.295 180.219,153.044 C 178.796,152.012 176.74,151.369 176.078,149.564 C 175.586,144.911 176.162,140.351 176.189,135.772 L 175.539,135.483 L 173.985,136.154 L 173.696,135.716 C 174.18,133.426 172.691,130.049 175.539,128.969 C 180.284,126.29 188.131,125.583 191.368,131.129"
   style="fill:#ffffff" />

			<path
   id="path2445"
   d="M 247.499,112.891 C 247.992,120.13 247.647,127.099 247.342,134.033 L 247.752,135.968 C 246.114,137.271 243.498,137.271 241.58,136.666 C 239.403,133.26 238.259,129.232 236.239,125.816 L 236.249,138.071 L 234.984,139.699 C 233.438,139.867 230.992,140.593 230.106,138.965 C 230.155,131.185 229.791,123.238 230.694,115.729 C 230.832,114.268 232.378,114.641 233.307,114.305 C 235.217,114.445 237.486,114.594 238.399,116.679 C 239.59,118.522 240.503,120.569 241.478,122.522 L 241.702,122.197 C 241.629,118.857 241.413,115.497 241.859,112.389 C 243.238,111.225 245.369,111.765 246.905,112.035 L 247.499,112.891"
   style="fill:#ffffff" />

			<path
   id="path2447"
   d="M 227.129,121.052 C 229.456,128.57 229.68,137.783 223.065,142.938 C 221.204,144.231 218.308,144.66 216.207,143.683 C 211.339,141.236 210.249,135.615 210.577,130.432 C 210.807,125.77 212.819,120.875 217.127,118.326 C 217.836,117.953 218.774,117.748 219.639,117.87 L 220.469,120.13 C 221.621,118.958 222.321,116.297 224.386,117.023 C 225.809,118.055 226.338,119.683 227.129,121.052"
   style="fill:#ffffff" />

			<path
   id="path2449"
   d="M 209.431,121.303 C 209.588,123.247 210.045,125.463 208.565,126.784 C 205.951,127.519 203.001,127.612 200.525,128.617 C 201.084,129.119 202.331,129.008 202.406,129.947 C 202.731,130.598 201.996,131.539 202.927,131.808 C 204.871,131.491 206.808,130.636 208.836,130.868 C 209.739,132.506 209.227,134.74 208.844,136.49 L 208.072,137.048 L 202.462,138.23 L 202.163,138.621 C 202.091,139.504 201.772,140.658 202.406,141.459 L 208.519,140.24 L 209.366,141.85 C 209.487,143.2 209.31,144.419 208.863,145.609 L 207.774,146.242 L 199.389,148.01 C 197.967,147.87 196.634,146.465 196.06,145.283 L 195.817,140.295 C 195.128,139.924 194.356,139.524 194.346,138.555 C 194.589,136.76 193.601,134.023 195.965,133.428 C 196.431,132.423 196.106,131.121 196.188,129.958 C 195.668,129.418 194.533,130.191 194.271,129.232 C 194.665,127.203 193.21,123.946 195.807,123.211 C 199.566,122.085 203.558,121.312 207.524,120.568 C 208.259,120.464 209.365,120.307 209.431,121.303"
   style="fill:#ffffff" />

			<path
   id="path2451"
   d="M 220.635,136.191 L 219.007,137.02 C 216.541,135.484 217.201,131.781 217.405,129.268 C 217.546,127.008 219.174,125.164 220.346,123.313 C 222.29,127.007 222.45,132.506 220.635,136.191"
   style="fill:#f47e20" />

			<path
   id="path2453"
   d="M 172.347,134.238 C 174.442,141.142 174.907,149.452 169.817,155.017 C 167.899,156.776 165.295,158.069 162.563,157.288 C 158.58,156.2 156.514,152.225 156.048,148.419 C 155.462,141.98 156.43,135.345 162.209,131.624 C 163.027,131.345 163.939,130.757 164.898,131.112 L 165.59,133.205 C 166.949,132.246 167.563,129.344 169.648,130.283 C 171.016,131.269 171.64,132.823 172.347,134.238"
   style="fill:#ffffff" />

			<path
   id="path2455"
   d="M 150.223,136.35 C 150.261,142.146 149.581,147.73 149.888,153.64 L 150.159,153.854 C 152.364,153.584 154.392,152.737 156.533,152.561 C 157.351,153.454 156.859,154.775 156.989,155.892 C 156.896,156.915 156.905,157.949 156.272,158.804 L 155.072,159.409 L 147.897,160.907 C 146.036,160.33 144.314,158.507 143.477,156.822 C 143.039,149.796 143.672,143.105 144.184,136.386 C 145.542,135.399 147.497,135.633 149.19,135.651 L 150.223,136.35"
   style="fill:#ffffff" />

			<path
   id="path2457"
   d="M 184.762,133.781 C 186.605,135.093 186.959,137.428 186.874,139.513 C 186.493,141.848 185.366,144.687 182.918,145.543 C 182.629,142.016 183.002,138.46 182.815,134.888 C 182.369,133.585 180.944,133.492 179.828,133.362 C 181.41,132.711 183.384,132.795 184.762,133.781"
   style="fill:#f47e20" />

			<path
   id="path2459"
   d="M 141.987,138.025 C 142.471,139.775 142.118,141.505 141.811,143.115 L 140.861,143.72 C 138.237,144.167 135.612,144.743 133.128,145.45 L 134.971,146.427 L 135.492,148.605 C 137.455,148.298 139.252,147.489 141.383,147.684 C 142.071,148.437 141.848,149.749 141.885,150.736 C 141.811,151.759 141.764,152.793 141.178,153.658 C 139.149,154.271 136.981,154.523 134.952,155.119 C 134.431,155.966 134.608,156.98 134.589,157.948 L 136.199,158.078 C 137.892,157.733 139.484,157.017 141.289,157.082 C 142.433,158.469 141.903,160.609 141.615,162.136 L 140.935,162.834 L 132.318,164.881 C 130.68,164.908 129.275,163.513 128.53,162.154 C 128.325,160.535 128.371,158.803 128.298,157.147 C 127.916,156.496 126.827,156.802 126.949,155.798 C 126.707,154.152 126.669,152.522 127.181,151.069 C 127.525,150.465 128.474,150.745 128.661,149.86 C 128.419,148.744 129.144,147.618 128.391,146.613 C 127.665,146.733 126.697,146.817 126.613,145.858 C 126.864,143.867 125.925,141.066 128.121,140.136 C 131.797,139.02 135.678,138.257 139.567,137.511 C 140.406,137.532 141.671,137.02 141.987,138.025"
   style="fill:#ffffff" />

			<path
   id="path2461"
   d="M 166.028,149.257 L 164.348,150.299 C 163.38,149.739 162.506,144.287 162.599,143.059 C 162.841,140.685 163.939,138.658 165.609,136.759 C 167.573,140.333 167.555,145.608 166.028,149.257"
   style="fill:#f47e20" />

			<path
   id="path2463"
   d="M 81.734,145.963 C 81.817,151.137 81.269,156.124 81.324,161.298 L 80.989,174.475 C 81.129,175.323 82.004,176.066 81.371,176.941 C 79.724,178.003 77.156,178.254 75.313,177.621 L 74.41,176.541 C 72.214,171.572 70.027,166.575 67.84,161.615 L 67.635,162.257 L 67.747,179.855 L 66.351,181.279 C 64.611,181.67 62.201,182.21 60.973,180.786 L 60.684,179.549 C 60.479,169.806 60.628,160.175 61.205,150.701 L 62.163,149.11 C 64.443,148.505 66.899,148.868 68.882,149.77 C 71.004,152.98 72.697,156.358 74.167,159.849 L 74.391,159.476 L 75.079,147.211 L 76.354,145.508 C 78.067,145.273 80.552,144.446 81.734,145.963"
   style="fill:#ffffff" />

			<path
   id="path2465"
   d="M 126.02,142.473 C 125.833,147.963 124.103,153.406 119.552,157.046 C 121.897,159.856 124.782,162.396 126.838,165.327 C 127.006,167.282 124.902,168.398 123.618,169.347 C 121.813,170.306 121.087,167.943 119.943,167.16 L 115.439,161.913 L 115.225,162.555 C 115.336,164.703 115.43,166.798 115.123,168.799 C 114.36,169.814 112.582,169.431 111.373,169.552 C 110.536,169.357 109.41,169.626 108.963,168.687 L 109.382,147.853 C 109.53,146.68 109.326,145.452 109.912,144.456 C 111.438,143.637 113.858,143.377 115.467,144.057 C 116.305,145.648 115.523,147.378 115.709,149.091 C 115.653,150.068 115.411,151.027 115.514,152.049 L 115.784,152.282 C 119.32,149.834 119.506,145.72 120.465,142.119 C 121.256,141.403 122.605,141.644 123.61,141.598 C 124.502,141.672 125.405,141.821 126.02,142.473"
   style="fill:#ffffff" />

			<path
   id="path2467"
   d="M 106.924,148.243 C 107.715,149.964 108.366,152.263 107.407,154.049 C 106.291,155.334 104.522,155.733 102.904,155.585 C 101.703,154.886 103.155,152.439 101.266,152.867 C 99.442,155.501 99.61,158.748 99.507,161.913 C 99.833,163.215 99.6,164.898 100.8,165.653 C 102.819,165.253 101.703,162.973 102.987,161.913 C 104.122,160.926 105.918,160.293 107.417,160.907 C 108.273,161.809 108.078,163.447 108.031,164.601 C 107.585,167.373 106.301,170.436 103.555,171.887 C 102.188,172.706 100.438,173.191 98.744,172.93 C 93.663,170.966 93.263,165.235 93.058,160.208 C 93.412,154.988 95.068,148.623 100.753,146.678 C 102.904,145.841 105.593,146.13 106.924,148.243"
   style="fill:#ffffff" />

			<path
   id="path2469"
   d="M 91.849,150.903 L 91.877,153.658 L 91.3,174.325 C 89.885,175.898 86.964,175.796 85.149,175.107 C 83.986,174.195 84.758,172.641 84.386,171.347 C 84.563,164.75 84.535,157.948 85.391,151.266 C 86.564,149.814 88.965,149.767 90.788,150.018 L 91.849,150.903"
   style="fill:#ffffff" />

			<path
   id="path2471"
   d="M 248.432,113.132 L 249.37,111.541 L 250.933,112.536 L 249.994,114.109 L 248.432,113.132 M 250.05,114.379 C 250.888,114.184 251.465,113.365 251.259,112.462 C 251.055,111.559 250.162,111.094 249.324,111.28 C 248.487,111.475 247.909,112.313 248.113,113.207 C 248.319,114.1 249.203,114.575 250.05,114.379 z M 249.39,113.021 L 249.696,112.956 L 250.34,113.617 L 250.655,113.552 L 249.975,112.892 L 250.31,112.278 L 249.558,111.924 L 248.878,112.073 L 249.295,113.859 L 249.574,113.795 L 249.39,113.021 z M 249.342,112.797 L 249.213,112.23 L 249.574,112.156 L 250.02,112.323 L 249.659,112.723 L 249.342,112.797 z"
   style="fill:#ffffff" />

		</g>

	</g>

</g>
  </g>
</svg>
