<?xml version="1.0" encoding="UTF-8" standalone="no"?>
<!-- Created with Inkscape (http://www.inkscape.org/) -->
<svg
   xmlns:dc="http://purl.org/dc/elements/1.1/"
   xmlns:cc="http://creativecommons.org/ns#"
   xmlns:rdf="http://www.w3.org/1999/02/22-rdf-syntax-ns#"
   xmlns:svg="http://www.w3.org/2000/svg"
   xmlns="http://www.w3.org/2000/svg"
   xmlns:xlink="http://www.w3.org/1999/xlink"
   xmlns:sodipodi="http://sodipodi.sourceforge.net/DTD/sodipodi-0.dtd"
   xmlns:inkscape="http://www.inkscape.org/namespaces/inkscape"
   width="1024"
   height="280"
   id="svg2409"
   sodipodi:version="0.32"
   inkscape:version="0.46"
   version="1.0"
   sodipodi:docname="RTL.svg"
   inkscape:output_extension="org.inkscape.output.svg.inkscape">
  <defs
     id="defs2411">
    <inkscape:perspective
       sodipodi:type="inkscape:persp3d"
       inkscape:vp_x="0 : 526.18109 : 1"
       inkscape:vp_y="0 : 1000 : 0"
       inkscape:vp_z="744.09448 : 526.18109 : 1"
       inkscape:persp3d-origin="372.04724 : 350.78739 : 1"
       id="perspective2417" />
    <metadata
       id="CorelCorpID_0Corel-Layer" />
    <style
       id="style6"
       type="text/css">
   
    .fil9 {fill:none;fill-rule:nonzero}
    .fil4 {fill:#1F1A17}
    .fil3 {fill:#255393}
    .fil1 {fill:#B63546}
    .fil2 {fill:#E2AC19}
    .fil0 {fill:white}
    .fil8 {fill:white;fill-rule:nonzero}
    .fil5 {fill:#235598;fill-rule:nonzero}
    .fil6 {fill:#BD4748;fill-rule:nonzero}
    .fil7 {fill:#EDAC2F;fill-rule:nonzero}
   
  </style>
    <inkscape:perspective
       id="perspective61"
       inkscape:persp3d-origin="372.04724 : 350.78739 : 1"
       inkscape:vp_z="744.09448 : 526.18109 : 1"
       inkscape:vp_y="0 : 1000 : 0"
       inkscape:vp_x="0 : 526.18109 : 1"
       sodipodi:type="inkscape:persp3d" />
    <inkscape:perspective
       sodipodi:type="inkscape:persp3d"
       inkscape:vp_x="0 : 80.5 : 1"
       inkscape:vp_y="0 : 1000 : 0"
       inkscape:vp_z="587 : 80.5 : 1"
       inkscape:persp3d-origin="293.5 : 53.666667 : 1"
       id="perspective38" />
    <defs
       id="defs10">
      <rect
         width="737.34302"
         height="365.832"
         x="0"
         y="0"
         id="XMLID_24_" />
    </defs>
    <clipPath
       id="XMLID_33_">
      <use
         id="use14"
         x="0"
         y="0"
         width="587"
         height="161"
         xlink:href="#XMLID_24_" />
    </clipPath>
    <defs
       id="defs18">
      <rect
         id="XMLID_23_"
         y="0"
         x="0"
         height="365.832"
         width="737.34302" />
    </defs>
    <clipPath
       id="XMLID_34_">
      <use
         xlink:href="#XMLID_23_"
         height="161"
         width="587"
         y="0"
         x="0"
         id="use22" />
    </clipPath>
    <defs
       id="defs26">
      <rect
         width="737.34302"
         height="365.832"
         x="0"
         y="0"
         id="XMLID_22_" />
    </defs>
    <clipPath
       id="XMLID_35_">
      <use
         id="use30"
         x="0"
         y="0"
         width="587"
         height="161"
         xlink:href="#XMLID_22_" />
    </clipPath>
    <defs
       id="defs34">
      <polyline
         points="32.162,78.613 32.162,238.962 618.639,238.962 618.639,78.613 "
         id="XMLID_21_" />
    </defs>
    <clipPath
       id="XMLID_36_">
      <use
         xlink:href="#XMLID_21_"
         height="161"
         width="587"
         y="0"
         x="0"
         id="use38" />
    </clipPath>
    <inkscape:perspective
       id="perspective3313"
       inkscape:persp3d-origin="372.04724 : 350.78739 : 1"
       inkscape:vp_z="744.09448 : 526.18109 : 1"
       inkscape:vp_y="0 : 1000 : 0"
       inkscape:vp_x="0 : 526.18109 : 1"
       sodipodi:type="inkscape:persp3d" />
  </defs>
  <sodipodi:namedview
     id="base"
     pagecolor="#ffffff"
     bordercolor="#666666"
     borderopacity="1.0"
     inkscape:pageopacity="0.0"
     inkscape:pageshadow="2"
     inkscape:zoom="0.7"
     inkscape:cx="632.15815"
     inkscape:cy="9.9653781"
     inkscape:document-units="px"
     inkscape:current-layer="layer1"
     showgrid="false"
     inkscape:window-width="1440"
     inkscape:window-height="850"
     inkscape:window-x="-8"
     inkscape:window-y="-8" />
  <metadata
     id="metadata2414">
    <rdf:RDF>
      <cc:Work
         rdf:about="">
        <dc:format>image/svg+xml</dc:format>
        <dc:type
           rdf:resource="http://purl.org/dc/dcmitype/StillImage" />
      </cc:Work>
    </rdf:RDF>
  </metadata>
  <g
     inkscape:label="Ebene 1"
     inkscape:groupmode="layer"
     id="layer1">
    <g
       id="g3221">
      <g
         id="g2539">
        <polygon
           id="_12021680"
           class="fil4"
           points="83.1838,114.932 83.1838,114.695 85.5785,114.695 85.5785,114.932 84.582,114.932 84.582,116.779 84.1885,116.779 84.1885,114.932 83.1838,114.932 "
           style="fill:#1f1a17;fill-rule:evenodd"
           transform="matrix(15.313361,0,0,15.313361,-1261.7633,-1515.8943)" />
        <polygon
           id="_12021392"
           class="fil4"
           points="92.754,114.695 92.754,114.932 91.029,114.932 91.029,115.59 92.6868,115.59 92.6868,115.827 91.029,115.827 91.029,116.542 92.8249,116.542 92.8249,116.779 90.6356,116.779 90.6356,114.695 92.754,114.695 "
           style="fill:#1f1a17;fill-rule:evenodd"
           transform="matrix(15.313361,0,0,15.313361,-1261.7633,-1515.8943)" />
        <polygon
           id="_11983328"
           class="fil4"
           points="98.3851,116.542 99.8881,116.542 99.8881,116.779 97.9915,116.779 97.9915,114.695 98.3851,114.695 98.3851,116.542 "
           style="fill:#1f1a17;fill-rule:evenodd"
           transform="matrix(15.313361,0,0,15.313361,-1261.7633,-1515.8943)" />
        <polygon
           id="_88564536"
           class="fil4"
           points="107.085,114.695 107.085,114.932 105.36,114.932 105.36,115.59 107.018,115.59 107.018,115.827 105.36,115.827 105.36,116.542 107.156,116.542 107.156,116.779 104.966,116.779 104.966,114.695 107.085,114.695 "
           style="fill:#1f1a17;fill-rule:evenodd"
           transform="matrix(15.313361,0,0,15.313361,-1261.7633,-1515.8943)" />
        <polygon
           id="_12021272"
           class="fil4"
           points="114.688,114.695 113.616,116.779 113.193,116.779 112.113,114.695 112.532,114.695 113.415,116.459 114.269,114.695 114.688,114.695 "
           style="fill:#1f1a17;fill-rule:evenodd"
           transform="matrix(15.313361,0,0,15.313361,-1261.7633,-1515.8943)" />
        <polygon
           id="_88564512"
           class="fil4"
           points="120.198,114.695 120.198,116.779 119.804,116.779 119.804,114.695 120.198,114.695 "
           style="fill:#1f1a17;fill-rule:evenodd"
           transform="matrix(15.313361,0,0,15.313361,-1261.7633,-1515.8943)" />
        <path
           id="_88564704"
           class="fil4"
           d="M 683.0336,244.63685 C 679.89436,243.3689 677.64789,243.41331 675.27892,243.41331 C 664.50597,243.41331 662.58567,250.19713 667.96679,252.20777 C 669.63441,252.86472 671.94504,253.39456 675.0829,253.78505 C 678.92962,254.48181 682.77465,255.2291 686.62612,255.93198 C 690.66272,256.89213 694.3808,259.95787 694.57069,263.06495 C 695.02687,269.45215 686.24175,273.60973 676.17475,273.39381 C 670.01878,273.25599 665.40318,272.7338 661.23503,269.36793 C 658.09579,266.78303 657.97022,264.76779 657.83853,262.27325 L 663.41412,262.27325 C 663.35119,264.15526 664.37887,268.57776 672.45513,269.5425 C 673.86396,269.71248 676.23891,269.84877 678.61263,269.71248 C 681.04424,269.54097 683.54507,269.14741 685.21269,268.18114 C 688.22636,266.42929 690.53562,262.75715 684.95849,260.13091 C 682.20209,259.16617 678.35384,258.55823 675.20985,258.07279 C 668.86874,257.06517 671.94504,257.59501 665.66059,256.1479 C 663.6086,255.66247 660.01609,254.26589 659.44031,250.28135 C 658.67158,245.11463 663.79849,239.95555 675.14722,239.95555 C 679.06285,239.95555 683.67217,240.43793 686.49442,241.61859 C 692.84334,244.28617 693.22617,248.35646 693.03629,249.80051 L 687.20343,249.79898 C 687.329,247.9185 686.55705,246.12378 683.0336,244.63685 L 683.0336,244.63685 z"
           style="fill:#1f1a17;fill-rule:evenodd" />
        <polygon
           id="_88564776"
           class="fil4"
           points="133.364,114.695 133.364,116.779 132.971,116.779 132.971,114.695 133.364,114.695 "
           style="fill:#1f1a17;fill-rule:evenodd"
           transform="matrix(15.313361,0,0,15.313361,-1261.7633,-1515.8943)" />
        <path
           id="_88564872"
           class="fil4"
           d="M 903.95931,256.67315 C 904.02362,261.17681 901.78022,266.56405 895.75594,270.1045 C 893.50947,271.41685 887.86956,273.34787 881.3966,273.39075 C 874.91905,273.34787 869.27776,271.41685 867.03114,270.1045 C 861.00548,266.56405 858.76361,261.17834 858.82639,256.67315 C 858.88918,252.16183 861.00548,246.78072 867.03114,243.23414 C 869.27914,241.92026 874.91752,239.99537 881.3966,239.95249 C 887.86956,239.99384 893.50947,241.92179 895.75594,243.23414 C 901.78022,246.77919 903.89652,252.16183 903.95931,256.67315 z M 864.91483,256.67315 C 864.78773,260.56581 866.90266,264.41712 870.04787,266.64827 C 872.93459,268.70639 877.2283,269.70941 881.3966,269.70941 C 885.55877,269.70941 889.85723,268.70639 892.73768,266.64827 C 895.88457,264.41712 897.99782,260.56581 897.86612,256.67315 C 897.99935,252.77437 895.88304,248.92306 892.73768,246.6919 C 889.85876,244.63379 885.55724,243.62617 881.3966,243.62617 C 877.22984,243.62617 872.93291,244.63379 870.04787,246.6919 C 866.90419,248.92153 864.7862,252.77437 864.91483,256.67315 z"
           style="fill:#1f1a17;fill-rule:evenodd" />
        <polygon
           id="_12020984"
           class="fil4"
           points="146.894,115.11 146.894,116.779 146.501,116.779 146.501,114.695 146.966,114.695 148.494,116.381 148.494,114.695 148.887,114.695 148.887,116.779 148.439,116.779 146.894,115.11 "
           style="fill:#1f1a17;fill-rule:evenodd"
           transform="matrix(15.313361,0,0,15.313361,-1261.7633,-1515.8943)" />
      </g>
      <g
         id="g3213">
        <rect
           transform="matrix(5.0571804,0,0,4.9141382,-570.94352,-377.13714)"
           width="48.855"
           height="25.124001"
           x="188.51601"
           y="85.525002"
           style="fill:#ffffff"
           clip-path="url(#XMLID_36_)"
           id="rect50" />
        <rect
           transform="matrix(5.0571804,0,0,4.9141382,-570.94352,-377.13714)"
           width="48.560001"
           height="29.362"
           x="257.13501"
           y="83.824997"
           style="fill:#ffffff"
           clip-path="url(#XMLID_36_)"
           id="rect52" />
        <path
           transform="matrix(5.0571804,0,0,4.9141382,-570.94352,-377.13714)"
           d="M 302.993,104.059 L 279.595,104.059 L 279.595,87.768 L 261.181,87.768 L 261.181,109.337 L 302.993,109.337 L 302.993,104.059 M 249.861,78.613 L 314.138,78.613 L 314.138,118.491 L 249.861,118.491 L 249.861,78.613 z"
           style="fill:#2056ae;fill-opacity:1;fill-rule:evenodd"
           clip-path="url(#XMLID_36_)"
           id="path54" />
        <path
           transform="matrix(5.0571804,0,0,4.9141382,-570.94352,-377.13714)"
           d="M 222.414,92.979 L 234.437,92.979 L 234.437,87.8 L 193.148,87.8 L 193.148,92.979 L 205.406,92.979 L 205.406,109.303 L 222.414,109.303 L 222.414,92.979 M 182.183,78.613 L 246.107,78.613 L 246.107,118.491 L 182.183,118.491 L 182.183,78.613 z"
           style="fill:#f9a70c;fill-opacity:1;fill-rule:evenodd"
           clip-path="url(#XMLID_36_)"
           id="path56" />
        <rect
           transform="matrix(5.0571804,0,0,4.9141382,-570.94352,-377.13714)"
           width="55.306"
           height="27.951"
           x="118.256"
           y="84.671997"
           style="fill:#ffffff;stroke:none;stroke-width:10.87584019;stroke-miterlimit:4;stroke-dasharray:none;stroke-opacity:1"
           clip-path="url(#XMLID_36_)"
           id="rect48" />
        <path
           transform="matrix(5.0571804,0,0,4.9141382,-570.94352,-377.13714)"
           d="M 158.782,87.784 L 124.471,87.784 L 124.471,109.254 L 140.659,109.254 L 140.659,102.2 L 143.826,102.2 L 152.097,109.255 L 169.397,109.255 L 158.782,101.812 C 162.533,101.911 165.703,98.591 165.642,94.747 C 165.585,90.929 162.477,87.691 158.782,87.784 M 114.384,78.613 L 178.371,78.613 L 178.371,118.491 L 114.384,118.491 L 114.384,78.613 L 114.384,78.613 z M 140.659,92.865 L 148.635,92.865 C 150.571,93.554 150.689,96.463 148.87,97.338 L 140.659,97.36 L 140.659,92.865 z"
           style="fill:#ee2233;fill-opacity:1;fill-rule:evenodd"
           clip-path="url(#XMLID_36_)"
           id="path58" />
      </g>
    </g>
  </g>
</svg>
