<?xml version="1.0" encoding="UTF-8" standalone="no"?>
<!-- Created with Inkscape (http://www.inkscape.org/) -->

<svg
   xmlns:dc="http://purl.org/dc/elements/1.1/"
   xmlns:cc="http://creativecommons.org/ns#"
   xmlns:rdf="http://www.w3.org/1999/02/22-rdf-syntax-ns#"
   xmlns:svg="http://www.w3.org/2000/svg"
   xmlns="http://www.w3.org/2000/svg"
   version="1.1"
   width="1000"
   height="572.34003"
   id="svg3854">
  <defs
     id="defs3856">
    <clipPath
       id="clipPath328">
      <path
         d="m 0,0 1190.551,0 0,1190.551 L 0,1190.551 0,0 z"
         id="path330" />
    </clipPath>
  </defs>
  <metadata
     id="metadata3859">
    <rdf:RDF>
      <cc:Work
         rdf:about="">
        <dc:format>image/svg+xml</dc:format>
        <dc:type
           rdf:resource="http://purl.org/dc/dcmitype/StillImage" />
        <dc:title></dc:title>
      </cc:Work>
    </rdf:RDF>
  </metadata>
  <g
     transform="translate(-457.75016,26.547716)"
     id="layer1">
    <g
       transform="matrix(12.318221,0,0,12.335019,-5130.9155,-6236.5676)"
       id="g3983">
      <path
         d="m 493.6875,511.34375 -5.53125,1.90625 c -0.1475,0.0375 -0.28125,0.18375 -0.28125,0.34375 l 0,21.53125 c 0,2.00625 0.1237,4.325 1.25,6.1875 0.92375,1.58875 2.28125,2.9525 3.625,4.28125 0.13,0.11375 0.34125,0.12125 0.46875,0 l 3.625,-3.625 c 0.10375,-0.13125 0.0888,-0.315 -0.0312,-0.4375 -0.73625,-0.7325 -1.26875,-1.325 -1.96875,-2.46875 l -0.0312,0 c -0.535,-0.91 -0.78125,-2.31875 -0.78125,-4.1875 l 0,-23.1875 c 0,-0.185 -0.16625,-0.3925 -0.34375,-0.34375 z m -14.65625,3.21875 -5.15625,1.875 c -0.11875,0.0525 -0.1875,0.14375 -0.1875,0.28125 l -0.0625,2.84375 c 0,0.185 -0.16,0.34 -0.34375,0.34375 l -0.65625,0 -1.25,0 c -0.18375,0.004 -0.34375,0.1275 -0.34375,0.3125 l 0,4.28125 c 0,0.18625 0.15875,0.3425 0.34375,0.34375 l 1.53125,0 c 0.17875,0.01 0.3125,0.16375 0.3125,0.34375 l 0.0312,0 0,5.96875 0,0.0312 c 0,3.875 2.08,7.25 5.15625,8.96875 0.1225,0.0613 0.27,0.035 0.375,-0.0625 l 3.375,-3.3125 c 0.1225,-0.1325 0.13025,-0.34 0,-0.46875 -1.60875,-1.225 -2.67625,-3.12875 -2.78125,-5.28125 -0.004,-0.05 0.002,-2.67 0,-5.84375 0,-0.15375 0.08,-0.3025 0.21875,-0.34375 l 3.25,0 c 0.1875,0 0.34375,-0.15625 0.34375,-0.34375 l 0,-4.28125 c 0,-0.1875 -0.15625,-0.3125 -0.34375,-0.3125 l -2.6875,0 -0.46875,0 c -0.1825,-0.004 -0.31,-0.16125 -0.3125,-0.34375 l 0,-4.65625 c 0,-0.1875 -0.16375,-0.40125 -0.34375,-0.34375 z m -14.375,5.34375 c -4.7575,0 -6.90625,3.25125 -6.90625,6.5 l 0,9.65625 c 0.004,0.18375 0.15875,0.3125 0.34375,0.3125 l 5.4375,0 c 0.18625,-10e-4 0.34375,-0.12625 0.34375,-0.3125 l 0,-9.09375 c 0,-1.32125 0.80375,-2.125 2.125,-2.125 l 1.4375,0 c 0.15375,-0.0337 0.28125,-0.15 0.28125,-0.3125 l 0,-4.3125 c 0,-0.18375 -0.16,-0.30875 -0.34375,-0.3125 l -2.71875,0 z"
         id="path334"
         style="fill:#000000;fill-opacity:1;fill-rule:nonzero;stroke:none" />
      <path
         d="m 525.71875,507.5 c -0.0812,0.002 -0.155,0.0331 -0.21875,0.0937 l -3.625,3.625 c -0.10375,0.13125 -0.0888,0.315 0.0312,0.4375 0.73625,0.7325 1.26875,1.325 1.96875,2.46875 0.535,0.90875 0.8125,2.31875 0.8125,4.1875 l 0,16.65625 c 0,1.86875 -0.2775,3.27875 -0.8125,4.1875 l 0,0.0312 c -0.7,1.14375 -1.2325,1.705 -1.96875,2.4375 -0.12,0.1225 -0.13505,0.30625 -0.0312,0.4375 l 3.625,3.625 c 0.1275,0.12125 0.3075,0.145 0.4375,0.0312 1.34375,-1.32875 2.7325,-2.72375 3.65625,-4.3125 1.12625,-1.8625 1.21875,-4.15 1.21875,-6.15625 l 0,-17.1875 0,-0.0312 c 0,-2.00625 -0.0924,-4.29375 -1.21875,-6.15625 -0.92375,-1.58875 -2.3125,-2.9525 -3.65625,-4.28125 -0.065,-0.0569 -0.1375,-0.0953 -0.21875,-0.0937 z m -23.03125,6.40625 -0.84375,13.96875 c 1.9875,-0.31375 3.57125,-0.59375 5.59375,-0.59375 2.545,0 3.6875,0.89625 3.6875,2.5 0,3.45125 -4.07625,3.65625 -6.65625,3.65625 l -2.46875,0 0,5.78125 2.5625,0 c 7.49625,0 12.78125,-2.87125 12.78125,-9.53125 0,-4.3225 -2.1,-7.84375 -7.46875,-7.84375 -0.59375,0 -1.335,-0.008 -1.71875,0.0625 l 0.1875,-2.59375 8.34375,0 0,-5.40625 -14,0 z"
         id="path346"
         style="fill:#dc0000;fill-opacity:1;fill-rule:nonzero;stroke:none" />
    </g>
  </g>
</svg>
