<?xml version="1.0" encoding="UTF-8" standalone="no"?>
<!-- Created with Inkscape (http://www.inkscape.org/) -->

<svg
   xmlns:dc="http://purl.org/dc/elements/1.1/"
   xmlns:cc="http://creativecommons.org/ns#"
   xmlns:rdf="http://www.w3.org/1999/02/22-rdf-syntax-ns#"
   xmlns:svg="http://www.w3.org/2000/svg"
   xmlns="http://www.w3.org/2000/svg"
   version="1.1"
   width="1000"
   height="571.63"
   id="svg4047">
  <defs
     id="defs4049">
    <clipPath
       id="clipPath112">
      <path
         d="m 0,0 1190.551,0 0,1190.551 L 0,1190.551 0,0 z"
         id="path114" />
    </clipPath>
  </defs>
  <metadata
     id="metadata4052">
    <rdf:RDF>
      <cc:Work
         rdf:about="">
        <dc:format>image/svg+xml</dc:format>
        <dc:type
           rdf:resource="http://purl.org/dc/dcmitype/StillImage" />
        <dc:title></dc:title>
      </cc:Work>
    </rdf:RDF>
  </metadata>
  <g
     transform="translate(-449.09359,317.23134)"
     id="layer1">
    <g
       transform="matrix(12.291933,0,0,12.291933,-5021.1367,-2922.6732)"
       id="g4127">
      <path
         d="m 485.125,219.875 -5.5625,1.90625 c -0.1475,0.0375 -0.25,0.185 -0.25,0.34375 l 0,21.59375 c 0,2.01 0.0899,4.32 1.21875,6.1875 0.92625,1.59125 2.31,2.98125 3.65625,4.3125 0.13125,0.11375 0.31,0.089 0.4375,-0.0312 0.83,-0.83125 2.8125,-2.8125 3.625,-3.625 0.10375,-0.1325 0.12,-0.315 0,-0.4375 -0.73875,-0.735 -1.2975,-1.32375 -2,-2.46875 -0.53625,-0.91125 -0.8125,-2.315 -0.8125,-4.1875 l 0,-23.25 c 0,-0.185 -0.13625,-0.39375 -0.3125,-0.34375 z m -14.71875,3.21875 -5.15625,1.875 c -0.11875,0.0525 -0.1875,0.17375 -0.1875,0.3125 L 465,228.125 c 0,0.185 -0.16,0.3075 -0.34375,0.3125 l -0.625,0 -1.28125,0 c -0.18375,0.004 -0.34375,0.15875 -0.34375,0.34375 l 0,4.3125 c 0,0.18625 0.1575,0.31 0.34375,0.3125 l 1.53125,0 c 0.1775,0.01 0.34375,0.1625 0.34375,0.34375 l 0,5.96875 0,0.0312 0,0.0312 c 0,3.88375 2.07375,7.24625 5.15625,8.96875 0.1225,0.0613 0.3,0.0662 0.40625,-0.0312 l 3.375,-3.34375 c 0.12375,-0.1325 0.1295,-0.34 0,-0.46875 l 0,-0.0312 c -1.6125,-1.2275 -2.67625,-3.12375 -2.78125,-5.28125 -0.005,-0.05 -0.0312,-2.6625 -0.0312,-5.84375 0,-0.15375 0.11,-0.3025 0.25,-0.34375 l 3.25,0 c 0.1875,0 0.34375,-0.12375 0.34375,-0.3125 l 0,-4.3125 c 0,-0.1875 -0.15625,-0.34375 -0.34375,-0.34375 l -2.6875,0 -0.46875,0 c -0.1825,-0.004 -0.34125,-0.13 -0.34375,-0.3125 l 0,-4.6875 c 0,-0.1875 -0.1625,-0.4025 -0.34375,-0.34375 z M 456,228.4375 c -4.7675,0 -6.90625,3.305 -6.90625,6.5625 l 0,9.65625 c 0.004,0.185 0.1575,0.3125 0.34375,0.3125 l 5.46875,0 c 0.18625,-0.001 0.34375,-0.125 0.34375,-0.3125 l 0,-9.125 c 0,-1.325 0.77,-2.125 2.09375,-2.125 l 1.46875,0 c 0.1525,-0.0325 0.25,-0.15 0.25,-0.3125 l 0,-4.3125 c 0,-0.185 -0.12875,-0.34 -0.3125,-0.34375 l -2.75,0 z"
         id="path118"
         style="fill:#000000;fill-opacity:1;fill-rule:nonzero;stroke:none" />
      <path
         d="m 517.21875,216.03125 c -0.0817,0.001 -0.155,0.033 -0.21875,0.0937 -0.83,0.83125 -2.8125,2.81125 -3.625,3.625 -0.10375,0.1325 -0.12,0.34625 0,0.46875 0.73875,0.73375 1.2975,1.29125 2,2.4375 l 0,0.0312 c 0.53625,0.91125 0.8125,2.315 0.8125,4.1875 l 0,16.6875 c 0,1.8725 -0.27625,3.27625 -0.8125,4.1875 l 0,0.0312 c -0.7025,1.145 -1.26125,1.73375 -2,2.46875 -0.12,0.1225 -0.1038,0.305 0,0.4375 0.8125,0.8125 2.795,2.79375 3.625,3.625 0.1275,0.12125 0.30625,0.11375 0.4375,0 1.34625,-1.3325 2.73,-2.68875 3.65625,-4.28125 1.12875,-1.86625 1.21875,-4.17625 1.21875,-6.1875 l 0,-17.25 c 0,-2.01 -0.09,-4.32 -1.21875,-6.1875 -0.92625,-1.59125 -2.31,-2.95 -3.65625,-4.28125 -0.0656,-0.0575 -0.13703,-0.0952 -0.21875,-0.0937 z m -16.5,6.0625 c -4.3425,0 -8.21875,2.58625 -8.21875,6.71875 0,1.295 0.3425,2.17625 0.9375,3.15625 0.42,0.7 1.4,1.5375 2.03125,2.0625 -0.91125,0.63 -1.8425,1.31625 -2.4375,2.15625 -0.87625,1.225 -1.21875,2.315 -1.21875,4.03125 0,5.07625 3.72375,7.78125 8.90625,7.78125 5.1825,0 8.9375,-2.705 8.9375,-7.78125 0,-1.75125 -0.3425,-2.80625 -1.21875,-4.03125 -0.595,-0.84 -1.5275,-1.52625 -2.4375,-2.15625 0.63125,-0.525 1.61125,-1.3625 2.03125,-2.0625 0.595,-0.98 0.9375,-1.86125 0.9375,-3.15625 0,-4.1325 -3.9075,-6.71875 -8.25,-6.71875 z m 0,5.25 c 1.85625,0 2.09375,1.33375 2.09375,1.71875 0,0.91 -0.7275,1.5275 -2.09375,2.4375 -1.36625,-0.91 -2.0625,-1.5275 -2.0625,-2.4375 0,-0.56 0.3825,-1.71875 2.0625,-1.71875 z m 0,9.53125 c 1.26,0.805 2.71875,1.53125 2.71875,3.28125 0,1.015 -0.7225,2.375 -2.71875,2.375 -1.99625,0 -2.6875,-1.36 -2.6875,-2.375 0,-1.75 1.4275,-2.47625 2.6875,-3.28125 z"
         id="path130"
         style="fill:#64b7ec;fill-opacity:1;fill-rule:nonzero;stroke:none" />
    </g>
  </g>
</svg>
