<?xml version="1.0" encoding="utf-8"?>
<!-- Generator: Adobe Illustrator 15.1.0, SVG Export Plug-In . SVG Version: 6.00 Build 0)  -->
<!DOCTYPE svg PUBLIC "-//W3C//DTD SVG 1.1//EN" "http://www.w3.org/Graphics/SVG/1.1/DTD/svg11.dtd">
<svg version="1.1" id="Layer_1" xmlns="http://www.w3.org/2000/svg" xmlns:xlink="http://www.w3.org/1999/xlink" x="0px" y="0px"
	 width="612px" height="792px" viewBox="0 0 612 792" enable-background="new 0 0 612 792" xml:space="preserve">
<g>
	<g>
		<path d="M305.688,291.875c-54.704,0-99,44.295-99,99c0,54.705,44.296,99,99,99c54.705,0,99-44.295,99-99
			C404.688,336.17,360.393,291.875,305.688,291.875z M272.633,424.875c-2.603,0-4.471-1.299-5.628-4.007l-5.883-13.381l-6.4,13.54
			c-1.351,2.745-2.797,3.848-4.918,3.848c-3.568,0-6.268-2.279-6.268-5.734c0-1.605,0.578-3.101,1.543-4.865l9.45-18.251
			l-8.293-16.169c-1.351-2.708-1.929-4.632-1.929-6.2c0-3.946,2.989-5.771,5.979-5.771c3.375,0,4.533,1.237,6.111,4.925
			l5.111,11.188l5.497-11.972c1.253-2.708,2.833-4.141,5.436-4.141c3.665,0,5.979,2.414,5.979,5.771
			c0,1.373-0.482,2.806-2.122,6.004l-8.329,15.856l9.004,17.424c1.639,3.26,2.025,4.632,2.025,6.164
			C278.998,422.362,276.202,424.875,272.633,424.875z M298.224,417.535c0,5.023-2.312,7.34-5.881,7.34s-5.883-2.316-5.883-7.34
			v-42.312c0-5.024,2.314-7.339,5.883-7.339s5.881,2.315,5.881,7.339V417.535z M292.343,363.607c-3.761,0-6.75-3.101-6.75-7.046
			c0-3.885,2.99-6.985,6.75-6.985s6.689,3.1,6.689,6.985C299.033,360.506,296.104,363.607,292.343,363.607z M325.202,414.079
			c2.701,0.159,4.279,1.14,4.279,4.277c0,4.202-2.35,5.771-7.365,5.771c-9.064,0-11.8-4.986-11.8-10.048v-35.756h-1.313
			c-3.412,0-5.148-1.176-5.148-4.473c0-3.455,1.736-4.632,5.148-4.632h1.313v-9.361c0-4.963,2.314-7.279,5.821-7.279
			s5.821,2.316,5.821,7.279v9.361h2.7c3.472,0,5.208,1.177,5.208,4.632c0,3.296-1.736,4.473-5.208,4.473h-2.7v31.908
			C321.959,412.548,322.503,413.883,325.202,414.079z M349.962,415.219c2.508,0,4.437-2.708,4.472-5.612
			c0.192-5.379,2.507-6.556,5.786-6.556c3.472,0,5.979,1.177,5.979,6.005c0,9.852-6.399,15.819-16.008,15.819
			c-15.886,0-17.815-9.031-17.815-22.805v-11.383c0-13.834,1.93-22.804,17.815-22.804c12.308,0,16.395,7.144,16.395,21.431
			c0,4.865-0.579,8.712-6.559,8.712h-15.308v5.575C344.719,410.036,345.141,415.219,349.962,415.219z"/>
		<path d="M354.819,384.879c0-4.142-1.192-7.34-5.05-7.34s-5.051,3.198-5.051,7.34v4.534h10.101V384.879z"/>
	</g>
	<path d="M67.747,385.704c-5.905,0-9.425,3.44-9.491,9.698v0.13c0,4.883-1.695,8.962-5.183,12.457
		c-3.44,3.479-7.497,5.171-12.363,5.171c-4.758,0-8.856-1.672-12.453-5.132c-3.482-3.451-5.035-7.578-5.174-12.496
		c-0.139-2.271-0.139-5.527,0-8.039c0.2-5.182,1.691-8.927,5.19-12.362c3.497-3.486,7.564-5.189,12.438-5.189
		c4.175,0,7.733,1.238,10.815,3.782l0.043,0.043c2.03,1.722,5.059,1.48,6.785-0.545c1.714-2.019,1.456-5.06-0.562-6.782
		l-0.005-0.014c-4.854-3.993-10.576-6.015-17.075-6.015c-7.384,0-13.83,2.698-19.13,8.011c-5.274,5.281-7.84,11.688-7.95,19.072
		c-0.057,1.756-0.112,5.045,0,8.039c0.109,7.458,2.676,13.874,7.95,19.164c5.374,4.792,11.796,7.214,19.13,7.214
		c4.083,0,7.943-0.755,11.481-2.188c2.233-0.899,4.252-2.147,6.066-3.67v0.193c0,4.354-1.688,8.125-5.17,11.491
		c-3.456,3.537-7.511,5.226-12.377,5.226c-2.609,0-5.009-0.46-7.16-1.449l-0.743-0.363c-4.127-2.139-8.986-2.302-12.881,1.629
		l1.146,1.182c5.261,5.668,11.886,8.52,19.637,8.52c7.387,0,13.826-2.676,19.157-7.983c5.262-5.29,7.921-11.405,7.921-18.251
		v-28.753C67.789,386.887,67.771,386.292,67.747,385.704"/>
	<path d="M131.328,385.704c-5.908,0-9.434,3.44-9.491,9.698v0.123c0,4.89-1.699,8.97-5.185,12.464
		c-3.448,3.476-7.493,5.171-12.362,5.171c-4.762,0-8.858-1.672-12.461-5.136c-3.476-3.447-5.028-7.574-5.167-12.5
		c-0.135-2.264-0.135-5.519,0-8.032c0.197-5.182,1.687-8.927,5.19-12.362c3.5-3.487,7.565-5.189,12.438-5.189
		c4.182,0,7.726,1.238,10.81,3.778l0.053,0.047c2.025,1.718,5.059,1.48,6.781-0.546c1.713-2.018,1.455-5.059-0.562-6.781
		l-0.014-0.013c-4.844-3.993-10.571-6.016-17.068-6.016c-7.389,0-13.827,2.698-19.13,8.012c-5.272,5.276-7.842,11.688-7.955,19.072
		c-0.048,1.756-0.107,5.045,0,8.033c0.117,7.465,2.683,13.879,7.955,19.169c5.377,4.793,11.8,7.216,19.13,7.216
		c4.086,0,7.937-0.759,11.479-2.196c2.232-0.893,4.251-2.14,6.069-3.663v0.193c0,4.345-1.691,8.125-5.169,11.491
		c-3.465,3.537-7.508,5.226-12.378,5.226c-2.613,0-5.011-0.46-7.156-1.449l-0.754-0.367c-4.117-2.135-8.979-2.298-12.874,1.625
		l1.138,1.188c5.274,5.669,11.894,8.521,19.646,8.521c7.385,0,13.826-2.678,19.162-7.983c5.258-5.29,7.912-11.405,7.912-18.251
		v-28.753C131.363,386.887,131.35,386.292,131.328,385.704"/>
	<path d="M-27.246,411.846h-37.147l40.925-36.859c1.542-1.456,2.5-3.56,2.5-5.846c-0.008-4.505-3.64-8.133-8.133-8.133h-41.411
		c0,5.235,4.263,9.475,9.496,9.475h28.375l-40.922,36.863c-1.545,1.486-2.508,3.535-2.508,5.845c0,4.491,3.638,8.158,8.125,8.158
		h50.195C-17.766,416.085-22.011,411.846-27.246,411.846"/>
	<path d="M167.909,413.163c-4.763,0-8.853-1.672-12.461-5.132c-3.476-3.455-5.132-7.527-5.174-12.5
		c-0.074-1.986-0.074-6.142,0-8.036c0.042-4.863,1.699-8.931,5.175-12.366c3.516-3.49,7.573-5.189,12.46-5.189h-0.008
		c4.887,0,8.944,1.7,12.462,5.189c3.485,3.435,5.143,7.503,5.173,12.366c0.079,1.894,0.106,6.022,0,8.036
		c-0.016,4.972-1.703,9.044-5.146,12.5c-3.625,3.46-7.704,5.132-12.488,5.132 M167.901,421.913c7.357,0,13.778-2.42,19.169-7.212
		c5.262-5.295,7.862-11.72,7.922-19.169c0.042-1.641,0.042-6.85,0-8.037c-0.016-7.387-2.66-13.793-7.922-19.074
		c-5.332-5.315-11.77-8.014-19.169-8.014h0.008c-7.388,0-13.827,2.699-19.167,8.014c-5.253,5.28-7.896,11.687-7.915,19.074
		c-0.046,1.187-0.046,6.395,0,8.037c0.056,7.45,2.663,13.874,7.915,19.169c5.41,4.793,11.833,7.212,19.167,7.212H167.901z"/>
	<path d="M2.867,411.822v-50.815c-5.236,0.001-9.507,4.253-9.507,9.492v50.85C-1.372,421.337,2.867,417.082,2.867,411.822"/>
	<path d="M-10.444,427.763c-2.36,2.403-5.646,3.882-9.279,3.882h-54.706c-7.22,0-13.111-5.908-13.111-13.115V363.81
		c0-7.215,5.891-13.103,13.111-13.103h54.713c3.946,0,7.492,1.747,9.898,4.5l0.032,0.047c1.713,1.94,4.68,2.149,6.621,0.427
		c1.952-1.71,2.153-4.682,0.438-6.649l-0.031-0.007h0.008c-4.152-4.754-10.236-7.756-17.013-7.756h-54.601
		c-12.474,0-22.614,10.132-22.614,22.589v54.622c0,12.441,10.14,22.58,22.614,22.58h54.601c6.228,0,11.862-2.547,15.967-6.612
		c1.839-1.854,1.839-4.805,0-6.663C-5.644,425.942-8.603,425.942-10.444,427.763"/>
</g>
</svg>
