<?xml version="1.0" encoding="UTF-8" standalone="no"?>
<!-- Created with Inkscape (http://www.inkscape.org/) -->
<svg xmlns:dc="http://purl.org/dc/elements/1.1/" xmlns:cc="http://web.resource.org/cc/" xmlns:rdf="http://www.w3.org/1999/02/22-rdf-syntax-ns#" xmlns:svg="http://www.w3.org/2000/svg" xmlns="http://www.w3.org/2000/svg" xmlns:sodipodi="http://sodipodi.sourceforge.net/DTD/sodipodi-0.dtd" xmlns:inkscape="http://www.inkscape.org/namespaces/inkscape" width="295" height="50" id="svg2" sodipodi:version="0.32" inkscape:version="0.45.1" version="1.0" inkscape:output_extension="org.inkscape.output.svg.inkscape">
  <g inkscape:label="Layer 1" inkscape:groupmode="layer" id="layer1" transform="translate(-106.54958,-371.28329)">
    <g id="g7231" clip-path="url(#id54)" transform="matrix(1,0,0,-1,-176.02023,535.69873)"/>
    <g id="g7233" clip-path="url(#id55)" transform="matrix(1,0,0,-1,-176.02023,535.69873)"/>
    <g id="g7235" clip-path="url(#id56)" transform="matrix(1,0,0,-1,-176.02023,535.69873)"/>
    <g id="g2269" transform="translate(96.293247,-518.05801)">
      <path style="fill:#000000;fill-rule:evenodd;stroke:none" d="M 132.77248,889.3413 L 185.95181,889.3413 L 185.95181,939.3413 L 132.77248,939.3413 L 132.77248,889.3413 z " id="path11493"/>
      <path style="fill:#000000;fill-rule:evenodd;stroke:none" d="M 71.533031,889.3413 L 124.68753,889.3413 L 124.68753,939.3413 L 71.533031,939.3413 L 71.533031,889.3413 z " id="path11495"/>
      <path style="fill:#000000;fill-rule:evenodd;stroke:none" d="M 10.25633,889.3413 L 63.423245,889.3413 L 63.423245,939.3413 L 10.25633,939.3413 L 10.25633,889.3413 z " id="path11497"/>
      <path style="fill:#ffffff;fill-rule:nonzero;stroke:none" d="M 173.7064,904.07056 C 169.17337,901.42525 165.27372,900.25784 161.01391,900.25784 C 152.58122,900.25784 146.30948,906.23151 146.30948,914.30404 C 146.30948,922.53802 152.35767,928.25089 161.22503,928.25089 C 165.38549,928.25089 169.93095,926.79783 174.0914,924.10285 L 174.0914,929.87781 C 170.46497,931.76554 166.51564,933.10682 160.74068,933.10682 C 146.90561,933.10682 140.83258,922.48834 140.83258,914.78839 C 140.83258,903.58621 149.33979,895.38949 161.06358,895.38949 C 164.85146,895.38949 168.68902,896.30851 173.7064,898.41979 L 173.7064,904.07056" id="path11499"/>
      <path style="fill:#ffffff;fill-rule:evenodd;stroke:none" d="M 42.906603,913.16147 C 42.906603,913.16147 47.824636,911.28616 47.526573,905.53603 C 47.526573,905.53603 48.060602,896.95432 36.299549,896.29609 L 24.178337,896.29609 L 24.178337,932.36167 L 38.038248,932.36167 C 38.038248,932.36167 50.768004,932.59763 50.768004,922.28964 C 50.768004,922.28964 51.426226,915.68258 42.906603,913.16147 z M 30.661198,901.93444 L 35.641328,901.93444 C 35.641328,901.93444 40.857423,901.87235 40.857423,906.19426 C 40.857423,906.19426 41.76403,910.81423 34.858913,911.23648 L 30.661198,911.23648 L 30.661198,901.93444 z M 37.31793,926.72332 L 30.661198,926.72332 L 30.661198,916.87483 L 37.380026,916.87483 C 37.380026,916.87483 44.16095,916.87483 44.16095,921.86738 C 44.16095,921.86738 44.645302,926.72332 37.31793,926.72332" id="path11501"/>
      <path style="fill:#ffffff;fill-rule:evenodd;stroke:none" d="M 104.49379,913.16147 C 104.49379,913.16147 109.3994,911.28616 109.10134,905.53603 C 109.10134,905.53603 109.64779,896.95432 97.886732,896.29609 L 85.753101,896.29609 L 85.753101,932.36167 L 99.625431,932.36167 C 99.625431,932.36167 112.34277,932.59763 112.34277,922.28964 C 112.34277,922.28964 113.00099,915.68258 104.49379,913.16147 z M 92.248382,901.93444 L 97.216092,901.93444 C 97.216092,901.93444 102.44461,901.87235 102.44461,906.19426 C 102.44461,906.19426 103.33879,910.81423 96.446097,911.23648 L 92.248382,911.23648 L 92.248382,901.93444 z M 98.892694,926.72332 L 92.248382,926.72332 L 92.248382,916.87483 L 98.95479,916.87483 C 98.95479,916.87483 105.73571,916.87483 105.73571,921.86738 C 105.73571,921.86738 106.22007,926.72332 98.892694,926.72332" id="path11503"/>
      <path style="fill:#000000;fill-rule:nonzero;stroke:none" d="M 203.51266,914.52759 C 203.51266,906.52958 209.52359,900.66768 217.63338,900.66768 C 225.78042,900.66768 231.80377,906.52958 231.80377,914.52759 C 231.80377,922.46351 225.78042,928.3875 217.63338,928.3875 C 209.52359,928.3875 203.51266,922.46351 203.51266,914.52759 z M 198.1227,914.52759 C 198.1227,924.38849 205.63636,933.16892 217.52161,933.16892 C 229.82911,933.16892 237.18132,924.33882 237.18132,914.52759 C 237.18132,904.39346 229.61798,895.88626 217.63338,895.88626 C 205.85991,895.88626 198.1227,904.44314 198.1227,914.52759" id="path11505"/>
      <path style="fill:#000000;fill-rule:nonzero;stroke:none" d="M 276.11574,932.72183 L 271.66964,932.72183 L 247.30303,904.70394 L 247.30303,932.72183 L 242.44709,932.72183 L 242.44709,896.33335 L 246.57029,896.33335 L 271.24739,924.50027 L 271.24739,896.33335 L 276.11574,896.33335 L 276.11574,932.72183" id="path11507"/>
      <path style="fill:#000000;fill-rule:nonzero;stroke:none" d="M 304.69249,901.02784 L 289.29259,901.02784 L 289.29259,912.00648 L 304.15847,912.00648 L 304.15847,916.68854 L 289.29259,916.68854 L 289.29259,928.02734 L 305.16443,928.02734 L 305.16443,932.72183 L 284.0765,932.72183 L 284.0765,896.33335 L 304.69249,896.33335 L 304.69249,901.02784" id="path11509"/>
    </g>
  </g>
</svg>