<?xml version="1.0" encoding="utf-8"?>
<!-- Generator: Adobe Illustrator 15.1.0, SVG Export Plug-In . SVG Version: 6.00 Build 0)  -->
<!DOCTYPE svg PUBLIC "-//W3C//DTD SVG 1.1//EN" "http://www.w3.org/Graphics/SVG/1.1/DTD/svg11.dtd">
<svg version="1.1" id="Layer_1" xmlns="http://www.w3.org/2000/svg" xmlns:xlink="http://www.w3.org/1999/xlink" x="0px" y="0px"
	 width="595.279px" height="841.89px" viewBox="0 0 595.279 841.89" enable-background="new 0 0 595.279 841.89"
	 xml:space="preserve">
<g>
	<g>
		
			<linearGradient id="SVGID_1_" gradientUnits="userSpaceOnUse" x1="284.7073" y1="391.7866" x2="284.7073" y2="505.1983" gradientTransform="matrix(1 0 0 1 0.2803 -1.001)">
			<stop  offset="0.3187" style="stop-color:#333333"/>
			<stop  offset="0.4615" style="stop-color:#000000"/>
			<stop  offset="0.6099" style="stop-color:#404040"/>
			<stop  offset="0.7308" style="stop-color:#666666"/>
		</linearGradient>
		<path fill="url(#SVGID_1_)" d="M307.824,466.976l16.11-57.065h13.156l-22.753,75.926h-13.165l-16.257-58.086l-16.264,58.086
			h-13.006l-22.761-75.926h13.152l16.261,57.065l16.259-57.065h13.008L307.824,466.976z"/>
		
			<linearGradient id="SVGID_2_" gradientUnits="userSpaceOnUse" x1="374.3064" y1="391.7729" x2="374.3064" y2="505.203" gradientTransform="matrix(1 0 0 1 0.2803 -1.001)">
			<stop  offset="0.3187" style="stop-color:#333333"/>
			<stop  offset="0.4615" style="stop-color:#000000"/>
			<stop  offset="0.6099" style="stop-color:#404040"/>
			<stop  offset="0.7308" style="stop-color:#666666"/>
		</linearGradient>
		<path fill="url(#SVGID_2_)" d="M412.876,448.097c0,21.824-16.555,39.52-38.295,39.52c-21.574,0-38.283-17.695-38.283-39.52
			c0-22.115,16.709-40.108,38.283-40.108C396.322,407.989,412.876,425.982,412.876,448.097z M400.31,448.097
			c0-15.777-11.527-28.602-25.729-28.602c-14.034,0-25.567,12.825-25.567,28.602c0,15.479,11.533,28.014,25.567,28.014
			C388.781,476.111,400.31,463.578,400.31,448.097z"/>
		
			<linearGradient id="SVGID_3_" gradientUnits="userSpaceOnUse" x1="441.0203" y1="391.7861" x2="441.0203" y2="505.1941" gradientTransform="matrix(1 0 0 1 0.2803 -1.001)">
			<stop  offset="0.3187" style="stop-color:#333333"/>
			<stop  offset="0.4615" style="stop-color:#000000"/>
			<stop  offset="0.6099" style="stop-color:#404040"/>
			<stop  offset="0.7308" style="stop-color:#666666"/>
		</linearGradient>
		<path fill="url(#SVGID_3_)" d="M459.78,420.525c-13.161-0.737-24.393,6.197-24.393,21.377v43.936h-12.565v-75.925h12.121v8.554
			c5.759-8.116,16.112-11.354,24.837-10.32V420.525z"/>
		
			<linearGradient id="SVGID_4_" gradientUnits="userSpaceOnUse" x1="472.5027" y1="391.7769" x2="472.5027" y2="505.1898" gradientTransform="matrix(1 0 0 1 0.2803 -1.001)">
			<stop  offset="0.3187" style="stop-color:#333333"/>
			<stop  offset="0.4615" style="stop-color:#000000"/>
			<stop  offset="0.6099" style="stop-color:#404040"/>
			<stop  offset="0.7308" style="stop-color:#666666"/>
		</linearGradient>
		<path fill="url(#SVGID_4_)" d="M479.063,485.835h-12.56V376.142h12.56V485.835z"/>
		
			<linearGradient id="SVGID_5_" gradientUnits="userSpaceOnUse" x1="526.4382" y1="391.7769" x2="526.4382" y2="505.1993" gradientTransform="matrix(1 0 0 1 0.2803 -1.001)">
			<stop  offset="0.3187" style="stop-color:#333333"/>
			<stop  offset="0.4615" style="stop-color:#000000"/>
			<stop  offset="0.6099" style="stop-color:#404040"/>
			<stop  offset="0.7308" style="stop-color:#666666"/>
		</linearGradient>
		<path fill="url(#SVGID_5_)" d="M565.001,485.835H552.88v-12.229c-5.318,7.812-15.075,14.146-26.307,14.146
			c-21.879,0-38.136-17.836-38.136-39.801c0-21.975,16.257-39.968,38.136-39.968c10.936,0,20.399,6.047,25.872,13.421V376.14h12.556
			V485.835z M526.573,419.642c-14.334,0-25.582,12.678-25.582,28.455c0,15.479,11.248,28.17,25.582,28.17
			c14.042,0,25.872-12.689,25.872-28.17C552.446,432.32,540.615,419.642,526.573,419.642z"/>
	</g>
	<g>
		<path fill="#060505" d="M265.07,371.863h5.283v22.869h-5.283V371.863z M289.938,383.405c-0.689-0.501-1.461-0.932-2.3-1.274
			c-0.842-0.351-1.684-0.656-2.525-0.913c-0.675-0.225-1.313-0.45-1.94-0.646c-0.631-0.202-1.18-0.429-1.654-0.669
			c-0.479-0.25-0.873-0.523-1.152-0.827c-0.307-0.307-0.442-0.656-0.442-1.062v-0.087c0-0.658,0.277-1.206,0.863-1.643
			c0.562-0.433,1.34-0.65,2.375-0.65c0.962,0,2.002,0.196,3.133,0.584c1.13,0.386,2.249,0.92,3.351,1.58l2.104-3.728
			c-1.222-0.799-2.578-1.438-4.06-1.902c-1.486-0.456-2.958-0.692-4.411-0.692c-1.135,0-2.19,0.162-3.198,0.478
			c-1.016,0.322-1.886,0.779-2.627,1.383c-0.729,0.608-1.312,1.34-1.733,2.192c-0.437,0.85-0.632,1.82-0.632,2.919v0.086
			c0,1.097,0.21,2.023,0.641,2.77c0.446,0.749,1.012,1.381,1.687,1.883c0.688,0.507,1.451,0.918,2.306,1.239
			c0.862,0.319,1.725,0.588,2.562,0.824c0.671,0.201,1.316,0.395,1.946,0.584c0.611,0.186,1.163,0.404,1.654,0.646
			c0.472,0.248,0.854,0.529,1.134,0.847c0.272,0.323,0.406,0.692,0.406,1.127v0.082c0,0.749-0.307,1.354-0.927,1.795
			c-0.632,0.458-1.52,0.676-2.656,0.676c-1.188,0-2.429-0.236-3.715-0.716c-1.303-0.476-2.578-1.176-3.836-2.097l-2.341,3.551
			c1.457,1.123,3.036,1.981,4.727,2.551c1.71,0.583,3.389,0.87,5.049,0.87c1.19,0,2.309-0.149,3.35-0.458
			c1.056-0.301,1.964-0.746,2.729-1.35c0.778-0.581,1.377-1.329,1.816-2.221c0.434-0.896,0.645-1.945,0.645-3.161v-0.088
			c0-1.039-0.211-1.922-0.645-2.639C291.179,384.526,290.614,383.907,289.938,383.405z M341.803,383.253v0.085
			c0,1.613-0.328,3.141-0.952,4.595c-0.631,1.445-1.487,2.698-2.571,3.785c-1.098,1.092-2.387,1.94-3.9,2.576
			c-1.5,0.644-3.156,0.958-4.935,0.958c-1.745,0-3.38-0.31-4.851-0.932c-1.508-0.625-2.808-1.465-3.897-2.53
			c-1.083-1.069-1.943-2.329-2.554-3.772s-0.904-2.969-0.904-4.592v-0.088c0-1.641,0.303-3.185,0.938-4.627
			c0.628-1.443,1.485-2.709,2.571-3.789c1.091-1.085,2.39-1.945,3.869-2.584c1.502-0.628,3.146-0.945,4.918-0.945
			c1.779,0,3.422,0.312,4.912,0.93c1.482,0.619,2.793,1.472,3.875,2.556c1.092,1.083,1.946,2.333,2.555,3.762
			C341.486,380.07,341.803,381.613,341.803,383.253z M336.518,383.338c0-1.006-0.178-1.961-0.518-2.855
			c-0.356-0.894-0.851-1.674-1.476-2.338c-0.622-0.665-1.359-1.189-2.218-1.576c-0.865-0.404-1.801-0.586-2.864-0.586
			c-1.044,0-1.991,0.182-2.846,0.586c-0.856,0.387-1.595,0.902-2.212,1.556c-0.613,0.643-1.071,1.412-1.396,2.296
			c-0.318,0.874-0.492,1.821-0.492,2.832v0.085c0,0.987,0.189,1.916,0.538,2.82c0.34,0.896,0.828,1.679,1.459,2.357
			c0.632,0.684,1.359,1.218,2.222,1.6c0.852,0.391,1.81,0.588,2.817,0.588c1.072,0,2.031-0.197,2.891-0.588
			c0.876-0.382,1.615-0.91,2.214-1.58c0.603-0.658,1.092-1.435,1.397-2.32c0.312-0.868,0.479-1.805,0.479-2.788L336.518,383.338
			L336.518,383.338z M353.88,388.671l-6.199-16.809h-5.659l9.461,23.044h4.734l9.441-23.044h-5.546L353.88,388.671z
			 M388.456,383.691c0,0.226-0.018,0.466-0.018,0.708c-0.017,0.249-0.039,0.505-0.073,0.763h-16.921
			c0.285,1.875,1.049,3.313,2.237,4.299c1.21,1.001,2.676,1.5,4.392,1.5c1.304,0,2.435-0.229,3.396-0.688
			c0.971-0.465,1.907-1.146,2.837-2.042l3.108,2.73c-1.125,1.297-2.434,2.341-3.957,3.121c-1.527,0.779-3.354,1.169-5.479,1.169
			c-1.657,0-3.196-0.298-4.644-0.864c-1.431-0.578-2.69-1.391-3.742-2.433c-1.072-1.027-1.906-2.277-2.517-3.737
			c-0.611-1.458-0.913-3.073-0.913-4.832v-0.092c0-1.644,0.271-3.188,0.823-4.626c0.559-1.45,1.331-2.705,2.35-3.788
			c0.984-1.084,2.169-1.937,3.54-2.556c1.364-0.618,2.889-0.93,4.526-0.93c1.844,0,3.45,0.33,4.833,0.99
			c1.391,0.658,2.521,1.56,3.445,2.681c0.913,1.135,1.611,2.437,2.078,3.928C388.222,380.483,388.456,382.042,388.456,383.691z
			 M383.222,381.152c-0.085-0.838-0.274-1.082-0.574-1.817c-0.28-0.731-0.687-1.38-1.177-1.925c-0.48-0.547-1.083-0.971-1.756-1.278
			c-0.688-0.303-1.47-0.451-2.344-0.451c-1.623,0-2.973,0.548-4.033,1.662c-1.058,1.116-1.709,2.013-1.94,3.809H383.222z
			 M306.808,390.695c-4.056,0-6.896-3.295-6.896-7.402c0-4.028,2.795-7.322,6.633-7.322c2.653,0,4.354,1.167,5.979,2.856
			l3.261-3.509c-2.13-2.332-4.845-3.932-9.188-3.932c-6.893,0-11.959,5.452-11.959,11.99c0,6.532,5.066,11.86,11.909,11.86
			c4.499,0,7.158-1.778,9.423-4.285l-3.187-3.115C311.13,389.518,309.294,390.695,306.808,390.695z M397.672,375.647v-3.784h-5.265
			v22.869h5.265v-8.704c0-1.536,0.146-2.873,0.562-3.985c1.606-4.16,6.027-5.342,8.321-5.686l-1.812-4.367
			C402.91,372.31,399.675,373.195,397.672,375.647z M425.258,371.863l-5.913,16.766l-5.51-16.766h-5.625l8.547,22.71l-0.062,0.15
			c0,0-1.717,4.636-3.278,5.751c-1.197,0.617-4.001,0.563-5.077,0.497v4.28c1.847,0,6.231,0.112,7.628-0.768
			c1.768-1.112,2.169-1.591,3.38-4.019c1.303-2.645,11.404-28.602,11.404-28.602L425.258,371.863L425.258,371.863z"/>
		<path fill="#060505" d="M232.662,362.892h12.118c10.208,0,17.263,7.059,17.263,16.268v0.09c0,9.211-7.055,16.364-17.263,16.364
			h-12.118V362.892z M244.781,390.382c6.82,0,11.277-4.627,11.277-11.037v-0.095c0-6.4-4.458-11.121-11.277-11.121h-6.404v22.253
			H244.781z"/>
	</g>
	<g>
		<g>
			<defs>
				<path id="SVGID_6_" d="M-2585.248-1585.392c0-376.784,305.312-682.32,682.328-682.32l0,0
					c376.792,0,682.648,305.536,682.648,682.32l0,0c0,377.024-305.856,682.176-682.648,682.176l0,0
					C-2279.936-903.208-2585.248-1208.368-2585.248-1585.392"/>
			</defs>
			<clipPath id="SVGID_7_">
				<use xlink:href="#SVGID_6_"  overflow="visible"/>
			</clipPath>
			<g id="g5389_1_" transform="matrix(8,0,0,-8,-2941.0084,1797.1523)" clip-path="url(#SVGID_7_)">
				<g id="g5391_1_" transform="matrix(6.5231171,0,0,6.5231628,419.72629,96.208649)">
					<g id="use5393_1_">
						
							<image overflow="visible" enable-background="new    " width="453" height="451" id="id73_1_" xlink:href="C7472513.png"  transform="matrix(0.0084 0 0 -0.0085 -7.4342 13.5069)">
						</image>
					</g>
				</g>
			</g>
		</g>
	</g>
</g>
<g>
	<defs>
		<path id="SVGID_8_" d="M41.538,421.45c0,47.757,38.694,86.453,86.519,86.453l0,0c47.753,0,86.526-38.696,86.526-86.453l0,0
			c0-47.759-38.772-86.46-86.526-86.46l0,0C80.232,334.989,41.538,373.69,41.538,421.45"/>
	</defs>
	<clipPath id="SVGID_9_">
		<use xlink:href="#SVGID_8_"  overflow="visible"/>
	</clipPath>
	<g id="g5389" transform="matrix(8,0,0,-8,-2941.0084,1797.1523)" clip-path="url(#SVGID_9_)">
		<g id="g5391" transform="matrix(6.5231171,0,0,6.5231628,419.72629,96.208649)">
			<g id="use5393">
				
					<image overflow="visible" enable-background="new    " width="450" height="450" id="id73" xlink:href="C7472511.png"  transform="matrix(0.0086 0 0 -0.0086 -7.4939 13.5598)">
				</image>
			</g>
		</g>
	</g>
</g>
</svg>
