<?xml version="1.0" encoding="UTF-8" standalone="no"?>
<!-- Created with Inkscape (http://www.inkscape.org/) -->
<svg
   xmlns:dc="http://purl.org/dc/elements/1.1/"
   xmlns:cc="http://web.resource.org/cc/"
   xmlns:rdf="http://www.w3.org/1999/02/22-rdf-syntax-ns#"
   xmlns:svg="http://www.w3.org/2000/svg"
   xmlns="http://www.w3.org/2000/svg"
   xmlns:xlink="http://www.w3.org/1999/xlink"
   xmlns:sodipodi="http://sodipodi.sourceforge.net/DTD/sodipodi-0.dtd"
   xmlns:inkscape="http://www.inkscape.org/namespaces/inkscape"
   width="117"
   height="148"
   id="svg2"
   sodipodi:version="0.32"
   inkscape:version="0.45.1"
   version="1.0"
   inkscape:output_extension="org.inkscape.output.svg.inkscape">
  <g
     inkscape:label="Layer 1"
     inkscape:groupmode="layer"
     id="layer1"
     transform="translate(-371.76208,-396.86287)">
    <g
       id="g4055"
       clip-path="url(#id12)"
       transform="matrix(1,0,0,-1,-215.68221,258.83758)">
      <g
         id="g4057"
         transform="matrix(3.7550049,0,0,3.7550354,322.48117,128.2226)">
        <use
           id="use4059"
           xlink:href="#id13"
           x="0"
           y="0"
           width="744.09448"
           height="1052.3622" />
      </g>
    </g>
    <g
       id="g4113"
       clip-path="url(#id15)"
       transform="matrix(1,0,0,-1,-215.68221,258.83758)">
      <g
         id="g4115"
         transform="matrix(11.096527,0,0,11.096542,276.86743,97.773315)">
        <use
           id="use4117"
           xlink:href="#id16"
           x="0"
           y="0"
           width="744.09448"
           height="1052.3622" />
      </g>
    </g>
    <g
       id="g4243"
       clip-path="url(#id21)"
       transform="matrix(1,0,0,-1,-215.68221,258.83758)">
      <g
         id="g4245"
         transform="matrix(7.7266388,0,0,7.8470306,494.46542,96.690109)">
        <use
           id="use4247"
           xlink:href="#id22"
           x="0"
           y="0"
           width="744.09448"
           height="1052.3622" />
      </g>
    </g>
    <g
       id="g4343"
       clip-path="url(#id27)"
       transform="matrix(1,0,0,-1,-215.68221,258.83758)">
      <g
         id="g4345"
         transform="matrix(6.7638245,0,0,6.763855,371.34442,97.652954)">
        <use
           id="use4347"
           xlink:href="#id28"
           x="0"
           y="0"
           width="744.09448"
           height="1052.3622" />
      </g>
    </g>
    <path
       style="fill:#2d2b2d;fill-rule:nonzero;stroke:none"
       d="M 488.75866,508.88179 L 371.78908,508.88179 L 371.78908,396.86287 L 488.75866,396.86287 L 488.75866,508.88179 z "
       id="path5035" />
    <g
       transform="matrix(7.8963521,0,0,-7.8963521,452.18643,478.04919)"
       id="g5037">
      <path
         style="fill:#ffffff;fill-rule:nonzero;stroke:none"
         d="M 0,0 C -0.239,-0.523 -0.7,-0.823 -1.264,-0.823 C -2.223,-0.823 -2.725,-0.008 -2.725,0.797 C -2.725,1.396 -2.414,2.408 -1.247,2.408 C -0.488,2.408 -0.165,1.925 0.012,1.561 L 0.076,1.43 L 1.604,1.43 L 1.53,1.721 C 1.326,2.513 0.39,3.768 -1.255,3.768 C -3.08,3.768 -4.17,2.258 -4.17,0.797 C -4.17,-0.647 -3.152,-2.184 -1.264,-2.184 C 0.012,-2.184 1.107,-1.394 1.525,-0.172 L 1.63,0.137 L 0.062,0.137 L 0,0 z M -10.184,-1.001 L -10.184,0.826 L -9.073,0.826 C -9.009,-0.152 -8.505,-0.766 -7.59,-0.766 C -6.849,-0.766 -6.329,-0.31 -6.329,0.432 C -6.329,1.205 -7.007,1.474 -7.858,1.773 C -8.635,2.057 -9.794,2.398 -10.185,3.541 L -10.185,5.183 C -9.847,6.152 -8.891,6.931 -7.574,6.931 C -6.58,6.931 -4.939,6.316 -4.892,4.376 L -6.534,4.376 C -6.627,5.085 -7.055,5.432 -7.653,5.432 C -8.252,5.432 -8.678,5.053 -8.678,4.502 C -8.678,3.776 -8.048,3.587 -7.321,3.366 C -6.644,3.161 -4.687,2.609 -4.687,0.526 C -4.687,-1.02 -5.761,-2.265 -7.622,-2.265 C -8.368,-2.265 -9.518,-1.948 -10.184,-1.001"
         id="path5039" />
    </g>
    <g
       transform="matrix(7.8963521,0,0,-7.8963521,469.26073,517.89133)"
       id="g5041">
      <path
         style="fill:#2d2b2d;fill-rule:nonzero;stroke:none"
         d="M 0,0 C 0.161,0 0.28,-0.13 0.288,-0.262 L -0.288,-0.262 C -0.281,-0.13 -0.16,0 0,0 M 0.226,-0.531 C 0.178,-0.588 0.102,-0.632 0.005,-0.632 C -0.107,-0.632 -0.246,-0.561 -0.288,-0.39 L 0.45,-0.39 C 0.452,-0.378 0.456,-0.333 0.456,-0.305 C 0.454,-0.044 0.244,0.153 0.002,0.153 C -0.25,0.153 -0.455,-0.049 -0.455,-0.316 C -0.455,-0.568 -0.255,-0.786 -0.001,-0.786 C 0.127,-0.786 0.311,-0.723 0.405,-0.531 L 0.226,-0.531 z M 1.533,-0.992 L 1.359,-0.992 L 1.461,-0.744 L 1.105,0.127 L 1.287,0.127 L 1.548,-0.562 L 1.815,0.127 L 1.995,0.127 L 1.533,-0.992 z M 0.62,-0.762 L 0.62,0.127 L 0.775,0.127 L 0.775,0.047 L 0.779,0.047 C 0.849,0.147 0.965,0.15 1.006,0.152 L 1.006,-0.021 C 0.98,-0.021 0.926,-0.031 0.886,-0.053 C 0.831,-0.08 0.787,-0.149 0.787,-0.275 L 0.787,-0.762 L 0.62,-0.762 z M -0.856,-0.762 L -0.973,-0.762 L -1.327,0.127 L -1.148,0.127 L -0.916,-0.508 L -0.912,-0.508 L -0.685,0.127 L -0.505,0.127 L -0.856,-0.762 z M -1.841,-0.001 C -2.03,-0.001 -2.154,-0.157 -2.154,-0.316 C -2.154,-0.476 -2.028,-0.632 -1.841,-0.632 C -1.661,-0.632 -1.53,-0.483 -1.53,-0.314 C -1.53,-0.157 -1.654,-0.001 -1.841,-0.001 M -1.841,-0.784 C -2.14,-0.784 -2.323,-0.536 -2.323,-0.312 C -2.323,-0.069 -2.118,0.152 -1.841,0.152 C -1.573,0.152 -1.363,-0.061 -1.363,-0.314 C -1.363,-0.531 -1.54,-0.784 -1.841,-0.784 M -2.619,-0.169 C -2.646,-0.112 -2.71,-0.001 -2.869,-0.001 C -3.084,-0.001 -3.161,-0.181 -3.161,-0.316 C -3.161,-0.47 -3.064,-0.632 -2.872,-0.632 C -2.747,-0.632 -2.663,-0.559 -2.621,-0.468 L -2.434,-0.468 C -2.501,-0.666 -2.675,-0.784 -2.872,-0.784 C -3.164,-0.784 -3.328,-0.545 -3.328,-0.316 C -3.328,-0.075 -3.151,0.152 -2.87,0.152 C -2.619,0.152 -2.467,-0.036 -2.434,-0.169 L -2.619,-0.169 z M -3.613,-0.109 C -3.622,-0.036 -3.666,-0.001 -3.726,-0.001 C -3.788,-0.001 -3.83,-0.039 -3.83,-0.096 C -3.83,-0.169 -3.766,-0.189 -3.692,-0.212 C -3.624,-0.232 -3.424,-0.289 -3.424,-0.501 C -3.424,-0.657 -3.534,-0.784 -3.723,-0.784 C -3.834,-0.784 -4.038,-0.714 -4.038,-0.47 L -3.871,-0.47 C -3.864,-0.569 -3.813,-0.632 -3.72,-0.632 C -3.644,-0.632 -3.591,-0.586 -3.591,-0.509 C -3.591,-0.431 -3.66,-0.404 -3.747,-0.373 C -3.842,-0.339 -3.997,-0.295 -3.997,-0.106 C -3.997,0.026 -3.886,0.152 -3.717,0.152 C -3.617,0.152 -3.451,0.089 -3.445,-0.109 L -3.613,-0.109 z M -4.238,-0.762 L -4.405,-0.762 L -4.405,0.127 L -4.238,0.127 L -4.238,-0.762 z M -5.083,-0.001 C -5.289,-0.001 -5.388,-0.179 -5.388,-0.319 C -5.388,-0.479 -5.259,-0.632 -5.084,-0.632 C -4.909,-0.632 -4.774,-0.489 -4.774,-0.319 C -4.774,-0.129 -4.911,-0.001 -5.083,-0.001 M -4.774,-0.762 L -4.774,-0.635 L -4.778,-0.635 C -4.848,-0.734 -4.962,-0.784 -5.092,-0.784 C -5.388,-0.784 -5.554,-0.554 -5.554,-0.32 C -5.554,-0.104 -5.407,0.152 -5.092,0.152 C -4.969,0.152 -4.854,0.1 -4.791,0.019 L -4.788,0.019 L -4.788,0.425 L -4.621,0.425 L -4.621,-0.762 L -4.774,-0.762 z "
         id="path5043" />
    </g>
    <g
       transform="matrix(7.8963521,0,0,-7.8963521,470.58339,535.68731)"
       id="g5045">
      <path
         style="fill:#2d2b2d;fill-rule:nonzero;stroke:none"
         d="M 0,0 L 1.275,0 C 1.259,0.289 0.994,0.577 0.638,0.577 C 0.282,0.577 0.018,0.289 0,0 M 1.138,-0.598 L 1.535,-0.598 C 1.327,-1.023 0.919,-1.162 0.634,-1.162 C 0.075,-1.162 -0.37,-0.681 -0.37,-0.121 C -0.37,0.47 0.086,0.916 0.641,0.916 C 1.176,0.916 1.642,0.481 1.647,-0.096 C 1.647,-0.161 1.64,-0.261 1.636,-0.286 L 0,-0.286 C 0.093,-0.666 0.399,-0.823 0.648,-0.823 C 0.864,-0.823 1.033,-0.724 1.138,-0.598 M -6.673,0 L -5.397,0 C -5.415,0.289 -5.679,0.577 -6.036,0.577 C -6.392,0.577 -6.655,0.289 -6.673,0 M -5.535,-0.598 L -5.137,-0.598 C -5.346,-1.023 -5.756,-1.162 -6.039,-1.162 C -6.597,-1.162 -7.044,-0.681 -7.044,-0.121 C -7.044,0.47 -6.587,0.916 -6.032,0.916 C -5.497,0.916 -5.031,0.481 -5.027,-0.096 C -5.027,-0.161 -5.034,-0.261 -5.038,-0.286 L -6.673,-0.286 C -6.58,-0.666 -6.273,-0.823 -6.025,-0.823 C -5.809,-0.823 -5.641,-0.724 -5.535,-0.598 M -0.623,0.207 C -0.698,0.499 -1.034,0.916 -1.593,0.916 C -2.216,0.916 -2.608,0.413 -2.608,-0.121 C -2.608,-0.631 -2.245,-1.162 -1.596,-1.162 C -1.158,-1.162 -0.773,-0.897 -0.623,-0.46 L -1.037,-0.46 C -1.128,-0.663 -1.318,-0.823 -1.596,-0.823 C -2.02,-0.823 -2.238,-0.464 -2.238,-0.121 C -2.238,0.178 -2.066,0.577 -1.589,0.577 C -1.236,0.577 -1.093,0.331 -1.034,0.207 L -0.623,0.207 z M -7.422,0.862 L -7.793,0.862 L -7.793,-1.112 L -7.422,-1.112 L -7.422,0.862 z M -8.144,0.207 C -8.22,0.499 -8.554,0.916 -9.113,0.916 C -9.737,0.916 -10.129,0.413 -10.129,-0.121 C -10.129,-0.631 -9.766,-1.162 -9.116,-1.162 C -8.678,-1.162 -8.293,-0.897 -8.144,-0.46 L -8.557,-0.46 C -8.649,-0.663 -8.839,-0.823 -9.116,-0.823 C -9.541,-0.823 -9.758,-0.464 -9.758,-0.121 C -9.758,0.178 -9.587,0.577 -9.109,0.577 C -8.758,0.577 -8.614,0.331 -8.554,0.207 L -8.144,0.207 z M -10.389,0.339 C -10.399,0.777 -10.771,0.916 -10.993,0.916 C -11.368,0.916 -11.614,0.638 -11.614,0.345 C -11.614,-0.075 -11.272,-0.171 -11.057,-0.249 C -10.866,-0.316 -10.713,-0.378 -10.713,-0.552 C -10.713,-0.72 -10.831,-0.823 -10.998,-0.823 C -11.204,-0.823 -11.318,-0.684 -11.332,-0.464 L -11.703,-0.464 C -11.703,-1.005 -11.254,-1.162 -11.005,-1.162 C -10.585,-1.162 -10.342,-0.88 -10.342,-0.531 C -10.342,-0.061 -10.784,0.064 -10.937,0.111 C -11.102,0.161 -11.244,0.203 -11.244,0.366 C -11.244,0.492 -11.148,0.577 -11.012,0.577 C -10.877,0.577 -10.781,0.499 -10.76,0.339 L -10.389,0.339 z M -2.908,0.05 L -2.908,-1.118 L -3.277,-1.118 L -3.277,-0.045 C -3.277,0.076 -3.278,0.396 -3.528,0.52 C -3.59,0.548 -3.661,0.564 -3.738,0.57 L -3.742,0.57 C -3.753,0.57 -3.767,0.57 -3.781,0.571 C -4.107,0.564 -4.275,0.361 -4.289,-0.004 L -4.289,-1.118 L -4.658,-1.118 L -4.658,0.05 C -4.655,0.272 -4.612,0.428 -4.533,0.556 C -4.391,0.778 -4.131,0.936 -3.825,0.936 L -3.787,0.936 L -3.76,0.936 C -3.454,0.936 -3.173,0.778 -3.032,0.556 C -2.953,0.428 -2.911,0.272 -2.908,0.05"
         id="path5047" />
    </g>
    <g
       transform="matrix(7.8963521,0,0,-7.8963521,488.03168,530.82205)"
       id="g5049">
      <path
         style="fill:#2d2b2d;fill-rule:nonzero;stroke:none"
         d="M 0,0 L 0,0.274 L -0.001,0.274 L -0.098,0 L -0.129,0 L -0.227,0.274 L -0.229,0.274 L -0.229,0 L -0.263,0 L -0.263,0.3 L -0.204,0.3 L -0.114,0.057 L -0.113,0.057 L -0.026,0.3 L 0.035,0.3 L 0.035,0 L 0,0 z M -0.43,0.271 L -0.43,0 L -0.469,0 L -0.469,0.271 L -0.574,0.271 L -0.574,0.3 L -0.326,0.3 L -0.326,0.271 L -0.43,0.271 z "
         id="path5051" />
    </g>
    <g
       id="g5069"
       clip-path="url(#id49)"
       transform="matrix(1,0,0,-1,-215.68221,258.83758)">
      <g
         id="g5071"
         transform="matrix(11.096527,0,0,-11.096558,482.18942,131.97762)">
        <use
           id="use5073"
           xlink:href="#id50"
           x="0"
           y="0"
           width="744.09448"
           height="1052.3622" />
      </g>
    </g>
    <g
       id="g5075"
       clip-path="url(#id51)"
       transform="matrix(1,0,0,-1,-215.68221,258.83758)">
      <g
         id="g5077"
         transform="matrix(11.577942,0,0,-11.096573,482.06912,131.97762)">
        <use
           id="use5079"
           xlink:href="#id52"
           x="0"
           y="0"
           width="744.09448"
           height="1052.3622" />
      </g>
    </g>
    <g
       id="g5081"
       clip-path="url(#id53)"
       transform="matrix(1,0,0,-1,-215.68221,258.83758)">
      <g
         id="g5083"
         transform="matrix(25.659226,0,0,-9.0505524,493.86371,130.6537)">
        <use
           id="use5085"
           xlink:href="#id54"
           x="0"
           y="0"
           width="744.09448"
           height="1052.3622" />
      </g>
    </g>
    <g
       id="g5153"
       clip-path="url(#id56)"
       transform="matrix(1,0,0,-1,-215.68221,258.83758)">
      <g
         id="g5155"
         transform="matrix(5.9213562,0,0,5.9213715,247.14029,124.612)">
        <use
           id="use5157"
           xlink:href="#id57"
           x="0"
           y="0"
           width="744.09448"
           height="1052.3622" />
      </g>
    </g>
    <g
       id="g5389"
       clip-path="url(#id72)"
       transform="matrix(1,0,0,-1,-215.68221,258.83758)">
      <g
         id="g5391"
         transform="matrix(6.5231171,0,0,6.5231628,419.72629,96.208649)">
        <use
           id="use5393"
           xlink:href="#id73"
           x="0"
           y="0"
           width="744.09448"
           height="1052.3622" />
      </g>
    </g>
    <g
       id="g5415"
       clip-path="url(#id76)"
       transform="matrix(1,0,0,-1,-215.68221,258.83758)">
      <g
         id="g5417"
         transform="matrix(5.5603027,0,0,5.560318,285.6532,71.175324)">
        <use
           id="use5419"
           xlink:href="#id77"
           x="0"
           y="0"
           width="744.09448"
           height="1052.3622" />
      </g>
    </g>
    <g
       id="g5673"
       clip-path="url(#id94)"
       transform="matrix(1,0,0,-1,-215.68221,258.83758)">
      <g
         id="g5675"
         transform="matrix(41.545822,0,0,29.390183,554.28082,110.16963)">
        <use
           id="use5677"
           xlink:href="#id95"
           x="0"
           y="0"
           width="744.09448"
           height="1052.3622" />
      </g>
    </g>
    <g
       id="g5679"
       clip-path="url(#id96)"
       transform="matrix(1,0,0,-1,-215.68221,258.83758)">
      <g
         id="g5681"
         transform="matrix(6.7638245,0,0,6.884201,537.07043,97.291901)">
        <use
           id="use5683"
           xlink:href="#id97"
           x="0"
           y="0"
           width="744.09448"
           height="1052.3622" />
      </g>
    </g>
  </g>
</svg>
