<?xml version="1.0" encoding="UTF-8" standalone="no"?>
<!-- Created with Inkscape (http://www.inkscape.org/) -->
<svg
   xmlns:dc="http://purl.org/dc/elements/1.1/"
   xmlns:cc="http://web.resource.org/cc/"
   xmlns:rdf="http://www.w3.org/1999/02/22-rdf-syntax-ns#"
   xmlns:svg="http://www.w3.org/2000/svg"
   xmlns="http://www.w3.org/2000/svg"
   xmlns:xlink="http://www.w3.org/1999/xlink"
   xmlns:sodipodi="http://sodipodi.sourceforge.net/DTD/sodipodi-0.dtd"
   xmlns:inkscape="http://www.inkscape.org/namespaces/inkscape"
   width="16"
   height="20"
   id="svg2"
   sodipodi:version="0.32"
   inkscape:version="0.45.1"
   version="1.0"
   inkscape:output_extension="org.inkscape.output.svg.inkscape">
  <defs
     id="defs4">

        
          
        </defs>
  <sodipodi:namedview
     id="base"
     pagecolor="#ffffff"
     bordercolor="#666666"
     borderopacity="1.0"
     gridtolerance="10000"
     guidetolerance="10"
     objecttolerance="10"
     inkscape:pageopacity="0.0"
     inkscape:pageshadow="2"
     inkscape:zoom="15.957672"
     inkscape:cx="8.1875"
     inkscape:cy="10.5625"
     inkscape:document-units="px"
     inkscape:current-layer="layer1"
     width="16px"
     height="20px"
     inkscape:window-width="784"
     inkscape:window-height="575"
     inkscape:window-x="138"
     inkscape:window-y="138" />
  <metadata
     id="metadata7">
    <rdf:RDF>
      <cc:Work
         rdf:about="">
        <dc:format>image/svg+xml</dc:format>
        <dc:type
           rdf:resource="http://purl.org/dc/dcmitype/StillImage" />
      </cc:Work>
    </rdf:RDF>
  </metadata>
  <g
     inkscape:label="Layer 1"
     inkscape:groupmode="layer"
     id="layer1"
     transform="translate(-4.4340227,-1027.3431)">
    <g
       id="g11344"
       clip-path="url(#id280)"
       transform="matrix(1,0,0,-1,65.157627,964.16404)">
        <g
   id="g11346"
   clip-path="url(#id281)">
          <g
   id="g11348"
   transform="matrix(7.5423,-14.745,-14.745,-7.5423,122.133,544.969)">
            <g
   id="g11350"
   clip-path="url(#id282)">
              <path
   id="path11352"
   d="M 25.936457,21.549918 L -19.319134,-1.599031 L -2.951184,-33.597946 L 42.304407,-10.448998 L 25.936457,21.549918 z "
   style="fill:url(#linearGradient20211)" />

            </g>

          </g>

        </g>

      </g>
    <g
       id="g11642"
       clip-path="url(#id390)"
       transform="matrix(1,0,0,-1,65.157627,964.16404)">
        <g
   id="g11644"
   clip-path="url(#id391)">
          <g
   id="g11646"
   transform="matrix(0.24,0,0,9.6004e-2,120.237,532.812)">
            <use
   id="use11648"
   xlink:href="#id392"
   x="0"
   y="0"
   width="744.09448"
   height="1052.3622" />

          </g>

        </g>

      </g>
    <g
       id="g12178"
       clip-path="url(#id565)"
       transform="matrix(1,0,0,-1,65.157627,964.16404)">
        <g
   id="g12180"
   clip-path="url(#id566)">
          <g
   id="g12182"
   transform="matrix(0.72601,0,0,0.75601,190.077,537.552)">
            <use
   id="use12184"
   xlink:href="#id567"
   x="0"
   y="0"
   width="744.09448"
   height="1052.3622" />

          </g>

        </g>

      </g>
    <g
       id="g12356"
       clip-path="url(#id632)"
       transform="matrix(1,0,0,-1,65.157627,964.16404)">
        <g
   id="g12358"
   clip-path="url(#id633)">
          <g
   id="g12360"
   transform="matrix(0.24001,0,0,9.6006e-2,179.757,532.812)">
            <use
   id="use12362"
   xlink:href="#id634"
   x="0"
   y="0"
   width="744.09448"
   height="1052.3622" />

          </g>

        </g>

      </g>
    <g
       id="g12874"
       clip-path="url(#id811)"
       transform="matrix(1,0,0,-1,65.157627,964.16404)">
        <g
   id="g12876"
   clip-path="url(#id812)">
          <g
   id="g12878"
   transform="matrix(0.24,0,0,9.6007e-2,239.277,532.812)">
            <use
   id="use12880"
   xlink:href="#id813"
   x="0"
   y="0"
   width="744.09448"
   height="1052.3622" />

          </g>

        </g>

      </g>
    <g
       id="g13030"
       clip-path="url(#id870)"
       transform="matrix(1,0,0,-1,65.157627,964.16404)">
        <g
   id="g13032"
   clip-path="url(#id871)">
          <g
   id="g13034"
   transform="matrix(0.23999,0,0,9.6007e-2,244.557,545.262)">
            <use
   id="use13036"
   xlink:href="#id872"
   x="0"
   y="0"
   width="744.09448"
   height="1052.3622" />

          </g>

        </g>

      </g>
    <g
       id="g13038"
       clip-path="url(#id873)"
       transform="matrix(1,0,0,-1,65.157627,964.16404)">
        <g
   id="g13040"
   clip-path="url(#id874)">
          <g
   id="g13042"
   transform="matrix(0.726,0,0,0.756,244.317,544.992)">
            <use
   id="use13044"
   xlink:href="#id875"
   x="0"
   y="0"
   width="744.09448"
   height="1052.3622" />

          </g>

        </g>

      </g>
    <g
       id="g13222"
       clip-path="url(#id939)"
       transform="matrix(1,0,0,-1,65.157627,964.16404)">
        <g
   id="g13224"
   transform="matrix(0.23996,0,0,0.12601,250.017,537.762)">
          <use
   id="use13226"
   xlink:href="#id940"
   x="0"
   y="0"
   width="744.09448"
   height="1052.3622" />

        </g>

      </g>
    <text
       id="text13340"
       x="65.157623"
       y="964.16406">
      <tspan
         id="tspan13342"
         x="104.67133"
         y="465.37204"
         letter-spacing="0"
         font-size="17.3175"
         style="font-size:17.31749916px;letter-spacing:0;fill:#221e1f;fill-rule:nonzero;stroke:none;font-family:font3"></tspan>
    </text>
    <text
       id="text13348"
       x="65.157623"
       y="964.16406">
      <tspan
         id="tspan13350"
         x="372.54562"
         y="465.37204"
         letter-spacing="0"
         font-size="17.3175"
         style="font-size:17.31749916px;letter-spacing:0;fill:#221e1f;fill-rule:nonzero;stroke:none;font-family:font3"></tspan>
    </text>
    <path
       style="fill:#3a373c;fill-rule:nonzero;stroke:none"
       d="M 14.600349,1045.2798 C 14.451349,1045.0478 14.156349,1044.8808 13.833349,1044.8808 L 13.764349,1044.8808 C 13.441349,1044.8808 13.167349,1045.0478 13.017349,1045.2798 C 12.935349,1045.4158 12.890349,1045.5798 12.886349,1045.8138 L 12.886349,1047.0448 L 13.276349,1047.0448 L 13.276349,1045.8718 C 13.291349,1045.4858 13.467349,1045.2718 13.811349,1045.2658 L 13.852349,1045.2668 L 13.856349,1045.2668 L 14.077349,1045.3188 C 14.341349,1045.4498 14.341349,1045.7858 14.341349,1045.9148 L 14.341349,1047.0448 L 14.731349,1047.0448 L 14.731349,1045.8138 C 14.728349,1045.5798 14.684349,1045.4158 14.600349,1045.2798"
       id="path13728" />
    <path
       id="path13734"
       d="M 6.45835,1045.5108 C 6.43635,1045.3418 6.33435,1045.2598 6.19235,1045.2598 C 6.04835,1045.2598 5.94735,1045.3488 5.94735,1045.4808 C 5.94735,1045.6528 6.09835,1045.6978 6.27135,1045.7508 C 6.43235,1045.7988 6.89735,1045.9308 6.89735,1046.4268 C 6.89735,1046.7938 6.64235,1047.0908 6.19935,1047.0908 C 5.93635,1047.0908 5.46435,1046.9258 5.46435,1046.3558 L 5.85435,1046.3558 C 5.86835,1046.5878 5.98835,1046.7338 6.20735,1046.7338 C 6.38335,1046.7338 6.50635,1046.6248 6.50635,1046.4488 C 6.50635,1046.2648 6.34635,1046.2008 6.14335,1046.1298 C 5.91835,1046.0478 5.55735,1045.9458 5.55735,1045.5038 C 5.55735,1045.1958 5.81635,1044.9028 6.21135,1044.9028 C 6.44735,1044.9028 6.83735,1045.0488 6.84835,1045.5108"
       style="fill:#3a373c;fill-rule:nonzero;stroke:none" />
    <path
       id="path13738"
       d="M 8.78235,1045.6498 C 8.71835,1045.5178 8.56735,1045.2588 8.19635,1045.2588 C 7.69335,1045.2588 7.51335,1045.6798 7.51335,1045.9948 C 7.51335,1046.3558 7.74235,1046.7348 8.18935,1046.7348 C 8.48135,1046.7348 8.68035,1046.5648 8.77835,1046.3518 L 9.21435,1046.3518 C 9.05635,1046.8138 8.65035,1047.0908 8.18935,1047.0908 C 7.50635,1047.0908 7.12335,1046.5318 7.12335,1045.9948 C 7.12335,1045.4318 7.53635,1044.9018 8.19335,1044.9018 C 8.78235,1044.9018 9.13535,1045.3418 9.21435,1045.6498"
       style="fill:#3a373c;fill-rule:nonzero;stroke:none" />
    <path
       id="path13740"
       d="M 9.585349,1047.0388 L 9.975359,1047.0388 L 9.975359,1044.9578 L 9.585349,1044.9578 L 9.585349,1047.0388 z "
       style="fill:#3a373c;fill-rule:nonzero;stroke:none" />
    <path
       id="path13746"
       d="M 16.70635,1045.6498 C 16.64235,1045.5178 16.49235,1045.2588 16.12035,1045.2588 C 15.61735,1045.2588 15.43735,1045.6798 15.43735,1045.9948 C 15.43735,1046.3558 15.66635,1046.7348 16.11335,1046.7348 C 16.40635,1046.7348 16.60535,1046.5648 16.70235,1046.3518 L 17.13835,1046.3518 C 16.98035,1046.8138 16.57535,1047.0908 16.11335,1047.0908 C 15.43035,1047.0908 15.04735,1046.5318 15.04735,1045.9948 C 15.04735,1045.4318 15.46035,1044.9018 16.11635,1044.9018 C 16.70635,1044.9018 17.05935,1045.3418 17.13835,1045.6498"
       style="fill:#3a373c;fill-rule:nonzero;stroke:none" />
    <path
       style="fill:#3a373c;fill-rule:nonzero;stroke:none"
       d="M 11.435349,1045.2588 C 11.811349,1045.2588 12.089349,1045.5628 12.107349,1045.8668 L 10.764349,1045.8668 C 10.783349,1045.5628 11.060349,1045.2588 11.435349,1045.2588 M 11.446349,1046.7348 C 11.184349,1046.7348 10.862349,1046.5688 10.764349,1046.1678 L 12.487349,1046.1678 L 12.498349,1045.9688 C 12.495349,1045.3598 12.002349,1044.9018 11.439349,1044.9018 C 10.854349,1044.9018 10.373349,1045.3718 10.373349,1045.9958 C 10.373349,1046.5848 10.843349,1047.0908 11.432349,1047.0908 C 11.731349,1047.0908 12.161349,1046.9458 12.382349,1046.4978 L 11.963349,1046.4978 C 11.851349,1046.6298 11.674349,1046.7348 11.446349,1046.7348"
       id="path13750" />
    <path
       style="fill:#3a373c;fill-rule:nonzero;stroke:none"
       d="M 18.467349,1045.2588 C 18.842349,1045.2588 19.119349,1045.5628 19.139349,1045.8668 L 17.794349,1045.8668 C 17.813349,1045.5628 18.091349,1045.2588 18.467349,1045.2588 M 18.477349,1046.7348 C 18.216349,1046.7348 17.892349,1046.5688 17.794349,1046.1678 L 19.517349,1046.1678 L 19.529349,1045.9688 C 19.525349,1045.3598 19.034349,1044.9018 18.470349,1044.9018 C 17.885349,1044.9018 17.404349,1045.3718 17.404349,1045.9958 C 17.404349,1046.5848 17.873349,1047.0908 18.462349,1047.0908 C 18.762349,1047.0908 19.192349,1046.9458 19.412349,1046.4978 L 18.993349,1046.4978 C 18.882349,1046.6298 18.705349,1046.7348 18.477349,1046.7348"
       id="path13754" />
    <path
       style="fill:#3a373c;fill-rule:nonzero;stroke:none"
       d="M 10.170349,1043.2268 C 9.898349,1043.2268 9.765349,1043.4628 9.765349,1043.6488 C 9.765349,1043.8618 9.934349,1044.0648 10.168349,1044.0648 C 10.401349,1044.0648 10.579349,1043.8748 10.579349,1043.6488 C 10.579349,1043.3978 10.398349,1043.2268 10.170349,1043.2268 M 10.579349,1044.2368 L 10.579349,1044.0678 L 10.575349,1044.0678 C 10.481349,1044.1978 10.330349,1044.2668 10.158349,1044.2668 C 9.765349,1044.2668 9.544349,1043.9618 9.544349,1043.6508 C 9.544349,1043.3638 9.740349,1043.0248 10.158349,1043.0248 C 10.321349,1043.0248 10.473349,1043.0928 10.558349,1043.2008 L 10.562349,1043.2008 L 10.562349,1042.6598 L 10.784349,1042.6598 L 10.784349,1044.2368"
       id="path13758" />
    <path
       id="path13760"
       d="M 11.070349,1044.2368 L 11.291389,1044.2368 L 11.291389,1043.0558 L 11.070349,1043.0558 L 11.070349,1044.2368 z "
       style="fill:#3a373c;fill-rule:nonzero;stroke:none" />
    <path
       style="fill:#3a373c;fill-rule:nonzero;stroke:none"
       d="M 12.122349,1043.3698 C 12.110349,1043.2728 12.053349,1043.2268 11.971349,1043.2268 L 11.832349,1043.3528 C 11.832349,1043.4498 11.918349,1043.4768 12.016349,1043.5058 C 12.107349,1043.5338 12.371349,1043.6078 12.371349,1043.8898 C 12.371349,1044.0978 12.227349,1044.2668 11.975349,1044.2668 C 11.826349,1044.2668 11.558349,1044.1728 11.558349,1043.8488 L 11.779349,1043.8488 C 11.788349,1043.9808 11.856349,1044.0648 11.980349,1044.0648 C 12.079349,1044.0648 12.150349,1044.0028 12.150349,1043.9018 C 12.150349,1043.7968 12.058349,1043.7618 11.943349,1043.7208 C 11.816349,1043.6738 11.611349,1043.6168 11.611349,1043.3658 C 11.611349,1043.1908 11.758349,1043.0248 11.982349,1043.0248 C 12.116349,1043.0248 12.337349,1043.1078 12.344349,1043.3698"
       id="path13764" />
    <path
       style="fill:#3a373c;fill-rule:nonzero;stroke:none"
       d="M 13.441349,1043.4488 C 13.405349,1043.3738 13.320349,1043.2268 13.109349,1043.2268 C 12.823349,1043.2268 12.721349,1043.4658 12.721349,1043.6438 C 12.721349,1043.8488 12.850349,1044.0638 13.104349,1044.0638 C 13.271349,1044.0638 13.383349,1043.9688 13.439349,1043.8468 L 13.686349,1043.8468 C 13.596349,1044.1088 13.366349,1044.2668 13.104349,1044.2668 C 12.717349,1044.2668 12.499349,1043.9488 12.499349,1043.6438 C 12.499349,1043.3248 12.734349,1043.0238 13.106349,1043.0238 C 13.441349,1043.0238 13.641349,1043.2738 13.686349,1043.4488"
       id="path13768" />
    <path
       style="fill:#3a373c;fill-rule:nonzero;stroke:none"
       d="M 14.472349,1043.2268 C 14.222349,1043.2268 14.057349,1043.4328 14.057349,1043.6448 C 14.057349,1043.8578 14.225349,1044.0648 14.472349,1044.0648 C 14.711349,1044.0648 14.887349,1043.8658 14.887349,1043.6418 C 14.887349,1043.4328 14.721349,1043.2268 14.472349,1043.2268 M 14.472349,1044.2668 C 14.075349,1044.2668 13.834349,1043.9368 13.834349,1043.6388 C 13.834349,1043.3158 14.106349,1043.0248 14.472349,1043.0248 C 14.830349,1043.0248 15.108349,1043.3058 15.108349,1043.6418 C 15.108349,1043.9298 14.872349,1044.2668 14.472349,1044.2668"
       id="path13772" />
    <path
       style="fill:#3a373c;fill-rule:nonzero;stroke:none"
       d="M 15.780349,1044.2368 L 15.624349,1044.2368 L 15.156349,1043.0558 L 15.393349,1043.0558 L 15.702349,1043.8998 L 15.705349,1043.8998 L 16.008349,1043.0558 L 16.245349,1043.0558"
       id="path13776" />
    <path
       style="fill:#3a373c;fill-rule:nonzero;stroke:none"
       d="M 17.741349,1044.2368 L 17.741349,1043.0558 L 17.947349,1043.0558 L 17.947349,1043.1638 L 17.951349,1043.1638 C 18.045349,1043.0308 18.197349,1043.0268 18.251349,1043.0238 L 18.251349,1043.2518 L 18.092349,1043.2948 C 18.022349,1043.3338 17.962349,1043.4228 17.962349,1043.5908 L 17.962349,1044.2368"
       id="path13780" />
    <path
       style="fill:#3a373c;fill-rule:nonzero;stroke:none"
       d="M 18.952349,1044.5408 L 18.722349,1044.5408 L 18.856349,1044.2128 L 18.385349,1043.0568 L 18.624349,1043.0568 L 18.971349,1043.9718 L 19.327349,1043.0568 L 19.565349,1043.0568"
       id="path13784" />
    <path
       style="fill:#3a373c;fill-rule:nonzero;stroke:none"
       d="M 16.917349,1043.2258 C 17.130349,1043.2258 17.289349,1043.3988 17.300349,1043.5718 L 16.535349,1043.5718 C 16.546349,1043.3988 16.703349,1043.2258 16.917349,1043.2258 M 17.217349,1043.9298 C 17.154349,1044.0058 17.053349,1044.0648 16.923349,1044.0648 C 16.774349,1044.0648 16.590349,1043.9708 16.535349,1043.7428 L 17.515349,1043.7428 L 17.522349,1043.6298 C 17.520349,1043.2828 17.240349,1043.0228 16.919349,1043.0228 C 16.586349,1043.0228 16.312349,1043.2898 16.312349,1043.6448 C 16.312349,1043.9798 16.579349,1044.2678 16.915349,1044.2678 C 17.085349,1044.2678 17.330349,1044.1848 17.455349,1043.9298"
       id="path13788" />
    <path
       style="fill:#3a373c;fill-rule:nonzero;stroke:none"
       d="M 7.301349,1038.7638 L 7.371349,1038.7628 C 8.083349,1038.7348 8.577349,1038.2778 8.577349,1037.5518 L 8.575349,1037.4788 C 8.534349,1036.7528 7.864349,1036.4898 7.030349,1036.1958 C 6.375349,1035.9558 5.454349,1035.6748 4.935349,1034.9198 L 4.935349,1037.1528 L 5.801349,1037.1528 C 5.865349,1038.1418 6.376349,1038.7638 7.301349,1038.7638"
       id="path13792" />
    <path
       id="path13798"
       d="M 16.51435,1038.1588 C 16.09235,1039.3948 14.98535,1040.1928 13.69435,1040.1928 C 11.78535,1040.1928 10.75635,1038.6398 10.75635,1037.1788 C 10.75635,1035.7028 11.85935,1034.1748 13.70435,1034.1748 C 15.36735,1034.1748 16.31335,1035.4448 16.51935,1036.2448 L 16.59535,1036.5388 L 15.04935,1036.5388 L 14.98535,1036.4068 C 14.80535,1036.0388 14.47935,1035.5498 13.71235,1035.5498 C 12.53135,1035.5498 12.21635,1036.5738 12.21635,1037.1788 C 12.21635,1037.9928 12.72435,1038.8168 13.69435,1038.8168 C 14.26535,1038.8168 14.73235,1038.5138 14.97335,1037.9848 L 15.03635,1037.8468 L 16.62035,1037.8468 L 16.51435,1038.1588 z M 4.93635,1027.5898 L 4.93635,1032.2178 L 5.02635,1032.0848 C 5.50235,1031.4358 6.30335,1030.9798 7.31735,1030.9798 C 8.29035,1030.9798 9.87835,1031.5638 10.01935,1033.3838 L 10.02835,1033.5648 L 8.36935,1033.5648 C 8.27435,1032.8468 7.84335,1032.4958 7.23735,1032.4958 C 6.63035,1032.4958 6.20035,1032.8788 6.20035,1033.4368 L 6.21535,1033.6148 L 6.27735,1033.8248 C 6.46735,1034.2498 6.98935,1034.4078 7.57235,1034.5848 C 7.92635,1034.6918 8.62335,1034.8918 9.21535,1035.3498 C 9.77235,1035.7798 10.23635,1036.4368 10.23635,1037.4568 C 10.23635,1038.9218 9.28235,1040.1208 7.61235,1040.2638 C 7.50035,1040.2738 7.38635,1040.2788 7.26835,1040.2788 C 6.60335,1040.2788 5.62135,1040.0278 4.93635,1039.3118 L 4.93635,1041.9328 L 19.91435,1041.9328 L 19.91435,1027.5898"
       style="fill:#3a373c;fill-rule:nonzero;stroke:none" />
    <text
       id="text13876"
       x="65.157623"
       y="964.16406">
      <tspan
         id="tspan13878"
         x="105.29333"
         y="607.31104"
         letter-spacing="-.0105412"
         font-size="17.5687"
         style="font-size:17.56870079px;letter-spacing:-0.0105412;fill:#221e1f;fill-rule:nonzero;stroke:none;font-family:font3"></tspan>
    </text>
    <text
       id="text13888"
       x="65.157623"
       y="964.16406">
      <tspan
         id="tspan13890"
         x="373.16763"
         y="199.12303"
         letter-spacing="0"
         font-size="17.5687"
         style="font-size:17.56870079px;letter-spacing:0;fill:#221e1f;fill-rule:nonzero;stroke:none;font-family:font3"></tspan>
    </text>
    <text
       id="text13900"
       x="65.157623"
       y="964.16406">
      <tspan
         id="tspan13902"
         x="105.29333"
         y="383.37405"
         letter-spacing="0"
         font-size="17.5687"
         style="font-size:17.56870079px;letter-spacing:0;fill:#221e1f;fill-rule:nonzero;stroke:none;font-family:font3"></tspan>
    </text>
    <text
       id="text13908"
       x="65.157623"
       y="964.16406">
      <tspan
         id="tspan13910"
         x="373.16763"
         y="383.37405"
         letter-spacing="0"
         font-size="17.5687"
         style="font-size:17.56870079px;letter-spacing:0;fill:#221e1f;fill-rule:nonzero;stroke:none;font-family:font3"></tspan>
    </text>
  </g>
</svg>
