<?xml version="1.0" encoding="UTF-8" standalone="no"?>
<!-- Created with Inkscape (http://www.inkscape.org/) -->
<svg
   xmlns:dc="http://purl.org/dc/elements/1.1/"
   xmlns:cc="http://creativecommons.org/ns#"
   xmlns:rdf="http://www.w3.org/1999/02/22-rdf-syntax-ns#"
   xmlns:svg="http://www.w3.org/2000/svg"
   xmlns="http://www.w3.org/2000/svg"
   xmlns:xlink="http://www.w3.org/1999/xlink"
   xmlns:sodipodi="http://sodipodi.sourceforge.net/DTD/sodipodi-0.dtd"
   xmlns:inkscape="http://www.inkscape.org/namespaces/inkscape"
   width="675"
   height="295"
   id="svg3798"
   sodipodi:version="0.32"
   inkscape:version="0.46"
   version="1.0"
   sodipodi:docname="Eurosport 2 HD Logo.svg"
   inkscape:output_extension="org.inkscape.output.svg.inkscape">
  <defs
     id="defs3800">
    <linearGradient
       id="linearGradient3508">
      <stop
         style="stop-color:#ffffff;stop-opacity:1;"
         offset="0"
         id="stop3510" />
      <stop
         id="stop3512"
         offset="0.46115464"
         style="stop-color:#646567;stop-opacity:1;" />
      <stop
         style="stop-color:#ffffff;stop-opacity:1;"
         offset="1"
         id="stop3514" />
    </linearGradient>
    <linearGradient
       inkscape:collect="always"
       xlink:href="#linearGradient3508"
       id="linearGradient3522"
       gradientUnits="userSpaceOnUse"
       x1="708.61615"
       y1="270.46408"
       x2="778.14746"
       y2="130.32689" />
    <linearGradient
       id="linearGradient3492">
      <stop
         id="stop3494"
         offset="0"
         style="stop-color:#ffffff;stop-opacity:1;" />
      <stop
         style="stop-color:#646567;stop-opacity:1;"
         offset="0.45277649"
         id="stop3496" />
      <stop
         id="stop3498"
         offset="1"
         style="stop-color:#ffffff;stop-opacity:1;" />
    </linearGradient>
    <linearGradient
       inkscape:collect="always"
       xlink:href="#linearGradient3492"
       id="linearGradient3520"
       gradientUnits="userSpaceOnUse"
       x1="669.06982"
       y1="132.44676"
       x2="610.10962"
       y2="287.96487" />
    <inkscape:perspective
       sodipodi:type="inkscape:persp3d"
       inkscape:vp_x="0 : 526.18109 : 1"
       inkscape:vp_y="0 : 1000 : 0"
       inkscape:vp_z="744.09448 : 526.18109 : 1"
       inkscape:persp3d-origin="372.04724 : 350.78739 : 1"
       id="perspective3806" />
    <inkscape:perspective
       id="perspective3907"
       inkscape:persp3d-origin="512 : 178.33333 : 1"
       inkscape:vp_z="1024 : 267.5 : 1"
       inkscape:vp_y="0 : 1000 : 0"
       inkscape:vp_x="0 : 267.5 : 1"
       sodipodi:type="inkscape:persp3d" />
    <linearGradient
       inkscape:collect="always"
       xlink:href="#linearGradient3492"
       id="linearGradient3966"
       gradientUnits="userSpaceOnUse"
       x1="669.06982"
       y1="132.44676"
       x2="610.10962"
       y2="287.96487" />
    <linearGradient
       inkscape:collect="always"
       xlink:href="#linearGradient3508"
       id="linearGradient3968"
       gradientUnits="userSpaceOnUse"
       x1="708.61615"
       y1="270.46408"
       x2="778.14746"
       y2="130.32689" />
  </defs>
  <sodipodi:namedview
     id="base"
     pagecolor="#ffffff"
     bordercolor="#666666"
     borderopacity="1.0"
     inkscape:pageopacity="0.0"
     inkscape:pageshadow="2"
     inkscape:zoom="0.97214088"
     inkscape:cx="337.5"
     inkscape:cy="146.47134"
     inkscape:document-units="px"
     inkscape:current-layer="layer1"
     showgrid="false"
     inkscape:window-width="1024"
     inkscape:window-height="749"
     inkscape:window-x="-4"
     inkscape:window-y="-4" />
  <metadata
     id="metadata3803">
    <rdf:RDF>
      <cc:Work
         rdf:about="">
        <dc:format>image/svg+xml</dc:format>
        <dc:type
           rdf:resource="http://purl.org/dc/dcmitype/StillImage" />
      </cc:Work>
    </rdf:RDF>
  </metadata>
  <g
     inkscape:label="Ebene 1"
     inkscape:groupmode="layer"
     id="layer1"
     transform="translate(-23.678992,-374.05493)">
    <g
       id="g3936"
       transform="translate(3.0859725,4.11463)">
      <g
         transform="matrix(0.503038,0,0,0.503038,283.47512,420.64103)"
         id="g3516">
        <path
           style="fill:url(#linearGradient3966);fill-opacity:1;fill-rule:evenodd;stroke:#737476;stroke-width:2.09200001;stroke-linecap:butt;stroke-linejoin:miter;stroke-miterlimit:4;stroke-dasharray:none;stroke-opacity:1"
           d="M 609.24034,145.271 L 576.77159,257.2085 L 606.27159,257.2085 L 620.20909,209.771 L 658.52159,209.771 L 644.77159,257.2085 L 674.27159,257.2085 L 707.17784,145.271 L 677.24034,145.271 L 665.83409,184.5835 L 627.61534,184.5835 L 639.17784,145.271 L 609.24034,145.271 z"
           id="path3481" />
        <path
           style="fill:url(#linearGradient3968);fill-opacity:1;fill-rule:evenodd;stroke:#737476;stroke-width:2.09200001;stroke-linecap:butt;stroke-linejoin:miter;stroke-miterlimit:4;stroke-dasharray:none;stroke-opacity:1"
           d="M 725.90625,145.28125 L 694.28125,257.21875 C 694.28124,257.21875 725.97602,257.21875 739.5625,257.21875 C 777.25994,257.21875 800.549,233.64981 807.09375,209.78125 C 812.70679,189.31055 823.60971,145.28125 773.3125,145.28125 C 757.67522,145.28125 725.90625,145.28125 725.90625,145.28125 z M 748.96875,170.0625 C 748.96873,170.0625 760.03882,170.0625 764.78125,170.0625 C 786.96808,170.0625 782.03557,191.27727 780.15625,201.65625 C 777.63629,215.57333 763.1627,234.15626 745.96875,234.15625 C 741.6108,234.15625 731.46878,234.15626 731.46875,234.15625 L 748.96875,170.0625 z"
           id="path3479" />
      </g>
      <g
         transform="matrix(0.5449496,0,0,0.5449496,20.353029,372.1177)"
         inkscape:label="Ebene 1"
         id="g3910">
        <g
           id="g17656"
           transform="matrix(1.2012708,0,0,1.2012708,12.362421,-24.499441)">
          <path
             id="path4490"
             style="fill:#ed174c;fill-opacity:1;fill-rule:nonzero;stroke:none"
             d="M 717.43516,183.05275 L 837.96037,183.05275 L 803.06993,303.25077 L 682.54471,303.25077" />
          <path
             id="path4492"
             style="fill:#0060af;fill-opacity:1;fill-rule:nonzero;stroke:none"
             d="M 241.78889,101.07657 L 241.78889,124.1584 L 270.99811,124.1584 C 270.99811,124.18814 270.99811,124.18814 270.96837,124.18814 L 241.78889,137.1568 L 241.78889,160.26837 C 241.78889,160.29811 241.78889,160.29811 241.78889,160.29811 L 221.44357,146.19916 L 189.76554,160.26837 C 189.76554,160.29811 189.76554,160.29811 189.76554,160.26837 L 189.76554,160.23863 L 209.48623,137.81118 L 189.76554,124.18814 C 189.76554,124.18814 189.7358,124.18814 189.7358,124.1584 L 221.44357,124.1584 L 241.78889,101.07657" />
          <path
             id="path4494"
             style="fill:#0060af;fill-opacity:1;fill-rule:nonzero;stroke:none"
             d="M 154.3397,323.09044 C 154.3397,323.09044 154.3397,323.09044 154.39919,323.09044 L 154.39919,346.14252 L 183.54892,346.14252 C 183.54892,346.20201 183.54892,346.20201 183.54892,346.20201 L 154.39919,359.14092 L 154.39919,382.28224 L 154.3397,382.28224 L 134.05387,368.21303 L 102.3461,382.28224 L 122.06678,359.82505 L 102.3461,346.2615 C 102.3461,346.20201 102.31635,346.20201 102.31635,346.14252 C 102.3461,346.14252 102.3461,346.14252 102.3461,346.14252 L 134.05387,346.14252 L 154.3397,323.09044" />
          <path
             id="path4504"
             style="fill:#0060af;fill-opacity:1;fill-rule:nonzero;stroke:none"
             d="M 207.55283,381.41964 C 207.58257,381.41964 207.58257,381.41964 207.61232,381.41964 L 207.61232,404.53121 L 236.79179,404.53121 C 236.79179,404.53121 236.79179,404.53121 236.76205,404.53121 L 207.61232,417.52961 L 207.61232,440.67093 L 207.58257,440.67093 L 187.267,426.51249 L 155.55923,440.67093 C 155.52948,440.67093 155.52948,440.67093 155.52948,440.67093 C 155.52948,440.67093 155.52948,440.61144 155.52948,440.55195 L 175.25017,418.21374 L 155.52948,404.53121 L 187.267,404.53121 L 207.55283,381.41964" />
          <path
             id="path4506"
             style="fill:#0060af;fill-opacity:1;fill-rule:nonzero;stroke:none"
             d="M 302.5869,402.68705 L 302.5869,425.79862 L 331.73663,425.79862 C 331.73663,425.79862 331.76637,425.79862 331.76637,425.82836 C 331.76637,425.82836 331.76637,425.82836 331.73663,425.82836 L 302.5869,438.85651 L 302.5869,461.93834 C 302.5869,461.93834 302.5869,461.96808 302.5869,461.93834 L 282.27132,447.83938 L 250.56355,461.93834 C 250.56355,461.93834 250.56355,461.93834 250.53381,461.93834 L 250.56355,461.87885 L 270.28424,439.42166 L 250.56355,425.82836 C 250.53381,425.82836 250.53381,425.82836 250.53381,425.82836 C 250.53381,425.79862 250.53381,425.79862 250.56355,425.79862 L 282.27132,425.79862 L 302.5869,402.68705" />
          <path
             id="path4510"
             style="fill:#0060af;fill-opacity:1;fill-rule:nonzero;stroke:none"
             d="M 343.7832,46.733144 C 343.7832,46.703399 343.7832,46.703399 343.81295,46.703399 C 343.81295,46.733144 343.81295,46.762888 343.81295,46.762888 L 343.81295,69.814971 L 372.99242,69.814971 L 343.81295,82.813371 L 343.81295,105.92494 C 343.81295,105.95469 343.7832,105.95469 343.7832,105.95469 L 323.46763,91.855737 L 291.75986,105.92494 C 291.75986,105.95469 291.75986,105.92494 291.75986,105.92494 L 311.51029,83.438009 L 291.75986,69.844716 C 291.75986,69.814971 291.75986,69.814971 291.75986,69.814971 L 323.46763,69.814971 L 343.7832,46.733144" />
          <path
             id="path4512"
             style="fill:#0060af;fill-opacity:1;fill-rule:nonzero;stroke:none"
             d="M 450.17972,23.35387 C 450.23921,23.35387 450.23921,23.35387 450.23921,23.35387 L 450.23921,46.465442 L 479.41868,46.465442 C 479.41868,46.495187 479.38894,46.495187 479.38894,46.495187 L 450.23921,59.463842 L 450.23921,82.575414 C 450.23921,82.634904 450.23921,82.634904 450.17972,82.634904 L 429.86414,68.506208 L 398.18612,82.575414 C 398.15637,82.634904 398.15637,82.575414 398.15637,82.575414 L 417.9068,60.118224 L 398.15637,46.495187 C 398.15637,46.495187 398.15637,46.495187 398.15637,46.465442 L 429.86414,46.465442 L 450.17972,23.35387" />
          <path
             id="path4514"
             style="fill:#0060af;fill-opacity:1;fill-rule:nonzero;stroke:none"
             d="M 542.98294,46.733144 C 542.98294,46.703399 542.98294,46.703399 542.98294,46.703399 C 542.98294,46.733144 542.98294,46.762888 542.98294,46.762888 L 542.98294,69.814971 L 572.16242,69.814971 L 542.98294,82.813371 L 542.98294,105.92494 C 542.98294,105.95469 542.98294,105.95469 542.98294,105.95469 L 522.66737,91.855737 L 490.9596,105.92494 C 490.9596,105.95469 490.9596,105.92494 490.9596,105.92494 C 490.92985,105.92494 490.9596,105.92494 490.9596,105.92494 L 510.68028,83.438009 L 490.9596,69.844716 C 490.92985,69.814971 490.92985,69.814971 490.92985,69.814971 C 490.92985,69.814971 490.92985,69.814971 490.9596,69.814971 L 522.66737,69.814971 L 542.98294,46.733144" />
          <path
             id="path4516"
             style="fill:#0060af;fill-opacity:1;fill-rule:nonzero;stroke:none"
             d="M 603.36453,101.07657 C 603.36453,101.07657 603.36453,101.07657 603.39427,101.07657 L 603.39427,124.1584 L 632.544,124.1584 C 632.544,124.18814 632.544,124.18814 632.544,124.18814 L 603.39427,137.1568 L 603.39427,160.26837 C 603.39427,160.29811 603.36453,160.29811 603.36453,160.29811 L 583.07869,146.19916 L 551.37093,160.26837 C 551.34118,160.29811 551.34118,160.29811 551.34118,160.26837 L 551.34118,160.23863 L 571.06187,137.81118 L 551.34118,124.18814 C 551.34118,124.18814 551.31144,124.18814 551.31144,124.1584 L 583.07869,124.1584 L 603.36453,101.07657" />
          <path
             id="path4518"
             style="fill:#ffffff;fill-opacity:1;fill-rule:nonzero;stroke:none"
             d="M 344.97299,183.05275 L 717.43516,183.05275 L 682.54471,303.25077 L 310.11229,303.25077" />
          <path
             id="path4520"
             style="fill:#0060af;fill-opacity:1;fill-rule:nonzero;stroke:none"
             d="M 29.679984,183.05275 L 345.00273,183.05275 L 310.11229,303.25077 L -5.210459,303.25077" />
          <path
             id="path4522"
             style="fill:#ed174c;fill-opacity:1;fill-rule:nonzero;stroke:none"
             d="M 582.90023,213.83844 L 595.06578,213.83844 C 604.85176,213.83844 604.52457,219.40068 602.65066,225.91475 C 600.747,232.45857 597.80228,238.02081 588.0163,238.02081 L 575.85075,238.02081 L 582.90023,213.83844 z M 605.05997,287.96204 L 599.67619,250.48381 C 610.414,246.34931 615.64906,237.33669 619.0102,225.91475 C 623.68011,210.03112 621.83594,198.84715 600.03313,198.84715 L 571.09161,198.84715 L 545.00558,288.05127 L 562.64414,288.05127 L 572.87629,253.0121 L 581.6807,253.0121 L 586.23162,287.96204" />
          <path
             id="path4524"
             style="fill:#ed174c;fill-opacity:1;fill-rule:nonzero;stroke:none"
             d="M 439.91782,238.02081 L 427.72253,238.02081 L 434.80175,213.83844 L 446.9673,213.83844 C 456.78303,213.83844 456.48558,219.40068 454.58192,225.91475 C 452.64852,232.45857 449.70381,238.02081 439.91782,238.02081 z M 451.9644,198.84715 L 423.02288,198.84715 L 396.93684,288.05127 L 414.54566,288.05127 L 424.80756,253.0121 L 436.14026,253.0121 C 457.91332,253.0121 466.27156,241.82813 470.94147,225.91475 C 475.58163,210.03112 473.79695,198.84715 451.9644,198.84715" />
          <path
             id="path4526"
             style="fill:#ffffff;fill-opacity:1;fill-rule:nonzero;stroke:none"
             d="M 273.49666,223.86237 C 276.41163,214.0169 281.23026,212.64865 288.22025,212.64865 C 295.21023,212.64865 299.31499,214.0169 296.42976,223.86237 L 285.00783,262.91706 C 282.15234,272.79228 277.27423,274.10104 270.28424,274.10104 C 263.29425,274.10104 259.21924,272.79228 262.10447,262.91706 L 273.49666,223.86237 z M 244.7931,262.08421 C 238.36826,284.03575 248.86811,289.15182 265.91178,289.15182 C 282.95545,289.15182 296.40002,284.03575 302.79511,262.08421 L 313.71139,224.69522 C 320.13623,202.74369 309.66612,197.62762 292.62245,197.62762 C 275.57878,197.62762 262.10447,202.74369 255.70937,224.69522" />
          <path
             id="path4528"
             style="fill:#ffffff;fill-opacity:1;fill-rule:nonzero;stroke:none"
             d="M 19.68579,287.96204 L 45.712336,198.84715 L 93.779646,198.84715 L 89.377442,213.89792 L 58.859459,213.89792 L 52.851045,234.39197 L 76.141085,234.39197 L 71.738881,249.44275 L 48.478585,249.44275 L 41.637322,272.88151 L 73.434324,272.88151 L 69.03212,287.96204" />
          <path
             id="path4530"
             style="fill:#ffffff;fill-opacity:1;fill-rule:nonzero;stroke:none"
             d="M 127.56954,198.84715 L 108.9494,262.56013 C 106.4806,271.03735 109.39557,274.10104 117.90254,274.10104 C 126.43924,274.10104 131.28762,271.03735 133.75642,262.56013 L 152.37655,198.84715 L 169.92588,198.84715 L 150.88932,264.0771 C 145.17835,283.67881 131.61481,289.15182 113.53008,289.15182 C 95.445345,289.15182 85.213195,283.67881 90.953907,264.0771 L 110.02021,198.84715" />
          <path
             id="path4532"
             style="fill:#ed174c;fill-opacity:1;fill-rule:nonzero;stroke:none"
             d="M 386.49648,222.28591 C 386.02057,213.86818 382.80815,211.66708 376.74024,211.66708 C 370.52362,211.66708 366.38912,214.0169 364.63418,220.05506 C 360.67815,233.46989 398.39433,238.64545 390.2443,266.54591 C 385.75287,281.83464 372.81395,289.15182 354.37229,289.15182 C 340.12461,289.15182 330.84429,283.02443 331.26072,265.4751 L 349.61315,261.90575 C 348.5126,272.6733 354.13433,275.1421 359.33964,275.1421 C 365.49678,275.1421 370.94004,272.55432 372.87344,265.89153 C 377.78131,249.08581 339.88666,244.68361 347.14435,219.75762 C 351.60604,204.46888 363.05772,197.62762 381.20194,197.62762 C 396.87735,197.62762 404.19453,205.2125 403.59964,217.82422" />
          <path
             id="path4534"
             style="fill:#ed174c;fill-opacity:1;fill-rule:nonzero;stroke:none"
             d="M 502.0246,223.86237 C 504.88008,214.0169 509.72845,212.64865 516.74819,212.64865 C 523.73817,212.64865 527.78344,214.0169 524.89821,223.86237 L 513.50602,262.91706 C 510.62079,272.79228 505.77242,274.10104 498.78243,274.10104 C 491.79245,274.10104 487.71743,272.79228 490.60266,262.91706 L 502.0246,223.86237 z M 473.29129,262.08421 C 466.8962,284.03575 477.3663,289.15182 494.40997,289.15182 C 511.45364,289.15182 524.89821,284.03575 531.29331,262.08421 L 542.23933,224.69522 C 548.63442,202.74369 538.16431,197.62762 521.12064,197.62762 C 504.07698,197.62762 490.66215,202.74369 484.20757,224.69522" />
          <path
             id="path4536"
             style="fill:#ed174c;fill-opacity:1;fill-rule:nonzero;stroke:none"
             d="M 697.06009,198.84715 L 692.65789,213.89792 L 672.16384,213.89792 L 650.56924,287.96204 L 633.01992,287.96204 L 654.61451,213.89792 L 634.12047,213.89792 L 638.55242,198.84715" />
          <path
             id="path4538"
             style="fill:#ffffff;fill-opacity:1;fill-rule:nonzero;stroke:none"
             d="M 200.8008,213.83844 L 212.9961,213.83844 C 222.78208,213.83844 222.45489,219.40068 220.55123,225.91475 C 218.67732,232.45857 215.7326,238.02081 205.94662,238.02081 L 193.75132,238.02081 L 200.8008,213.83844 z M 222.96054,287.96204 L 217.57677,250.48381 C 228.37407,246.34931 233.60912,237.33669 236.94052,225.91475 C 241.61042,210.03112 239.796,198.84715 217.96345,198.84715 L 188.99218,198.84715 L 162.93589,288.05127 L 180.54471,288.05127 L 190.80661,253.0121 L 199.58127,253.0121 L 204.16194,287.96204" />
          <path
             id="path4540"
             style="fill:#ffffff;fill-opacity:1;fill-rule:nonzero;stroke:none"
             d="M 790.36897,264.73149 L 786.35345,278.77095 L 712.40832,278.77095 C 726.56676,235.81971 775.28845,246.43854 780.34503,228.77024 C 782.07022,222.79157 778.17368,218.65706 769.4585,218.65706 C 761.39771,218.65706 752.38509,221.95872 748.31008,232.19087 L 727.60782,232.19087 C 734.41934,211.63733 752.92049,205.2125 772.58169,205.2125 C 798.66772,205.2125 804.28946,217.52677 800.9878,229.09743 C 796.88304,243.3451 784.42005,247.89603 762.88494,253.99368 L 753.75334,256.55171 C 748.87522,258.12818 742.68834,260.478 738.28614,264.73149" />
          <path
             id="path4542"
             style="fill:#0060af;fill-opacity:1;fill-rule:nonzero;stroke:none"
             d="M 408.92393,386.80342 L 408.92393,386.80342 C 408.95367,386.80342 408.95367,386.86291 408.95367,386.86291 L 408.95367,409.94474 L 438.13315,409.94474 C 438.13315,409.94474 438.13315,409.94474 438.1034,409.94474 L 408.95367,422.94314 L 408.95367,446.02496 C 408.95367,446.08445 408.92393,446.08445 408.92393,446.08445 L 388.60835,431.95576 L 356.93033,446.08445 C 356.90058,446.08445 356.90058,446.08445 356.90058,446.02496 C 356.90058,445.99522 356.90058,445.99522 356.90058,445.99522 L 376.62127,423.56777 L 356.90058,409.94474 L 356.87084,409.94474 C 356.90058,409.94474 356.90058,409.94474 356.90058,409.94474 L 388.60835,409.94474 L 408.92393,386.80342" />
          <path
             id="path4544"
             style="fill:#0060af;fill-opacity:1;fill-rule:nonzero;stroke:none"
             d="M 514.48759,329.78298 C 514.48759,329.78298 514.48759,329.78298 514.51734,329.78298 L 514.51734,352.83506 L 543.69681,352.83506 C 543.69681,352.89455 543.69681,352.89455 543.69681,352.89455 L 514.51734,365.83346 L 514.51734,388.97478 L 514.48759,388.97478 L 494.17202,374.87582 L 462.49399,388.97478 L 462.4345,388.97478 C 462.4345,388.97478 462.4345,388.97478 462.49399,388.97478 L 482.21468,366.51759 L 462.4345,352.95404 C 462.4345,352.89455 462.4345,352.89455 462.4345,352.83506 C 462.4345,352.83506 462.4345,352.83506 462.49399,352.83506 L 494.17202,352.83506 L 514.48759,329.78298" />
        </g>
      </g>
    </g>
  </g>
</svg>
