<?xml version="1.0" encoding="UTF-8" standalone="no"?>
<!-- Created with Inkscape (http://www.inkscape.org/) -->

<svg
   xmlns:dc="http://purl.org/dc/elements/1.1/"
   xmlns:cc="http://creativecommons.org/ns#"
   xmlns:rdf="http://www.w3.org/1999/02/22-rdf-syntax-ns#"
   xmlns:svg="http://www.w3.org/2000/svg"
   xmlns="http://www.w3.org/2000/svg"
   xmlns:xlink="http://www.w3.org/1999/xlink"
   xmlns:sodipodi="http://sodipodi.sourceforge.net/DTD/sodipodi-0.dtd"
   xmlns:inkscape="http://www.inkscape.org/namespaces/inkscape"
   width="727"
   height="233"
   id="svg2"
   version="1.1">
  <g
     inkscape:label="Layer 1"
     inkscape:groupmode="layer"
     id="layer1"
     transform="translate(-177.91959,-442.90779)">
    <g
       id="g8033"
       clip-path="url(#id75)"
       transform="matrix(741.00457,0,0,-607.60045,163.9146,920.71001)">
      <path
         style="fill:#221e1f;fill-rule:evenodd;stroke:none"
         id="path8035"
         d="m 0.0989,0.4083 -0.08,0 0,0.3663 0.08,0 0,-0.1379 0.057,0 0,0.1379 0.079,0 0,-0.3663 -0.079,0 0,0.1425 -0.057,0" />
      <path
         style="fill:#221e1f;fill-rule:evenodd;stroke:none"
         id="path8037"
         d="m 0.3724,0.6337 -0.0417,0 0,0.0565 0.0425,0 C 0.3829,0.6901 0.3922,0.676 0.3922,0.662 0.3922,0.6477 0.3831,0.6337 0.3724,0.6337 m 0.0016,-0.1395 -0.0429,0 0,0.0565 0.0395,0 c 0.0123,2e-4 0.0216,-0.0135 0.0216,-0.0285 0,-0.0137 -0.0067,-0.0277 -0.0182,-0.028 m 0.0494,0.0972 c 0.0284,0.0077 0.0496,0.0385 0.0496,0.0754 0,0.0644 -0.0304,0.1078 -0.0809,0.1078 l -0.1411,-10e-5 0,-0.3663 0.1395,10e-5 c 7e-4,-10e-5 0.0013,-10e-5 0.002,-10e-5 0.0505,0 0.0809,0.0434 0.0809,0.1077 0,0.0371 -0.0214,0.068 -0.05,0.0755" />
      <path
         style="fill:#221e1f;fill-rule:evenodd;stroke:none"
         id="path8039"
         d="m 0.6077,0.5004 c -0.0423,0 -0.0765,0.0418 -0.0765,0.0933 0,0.0516 0.0342,0.0934 0.0765,0.0934 0.0423,0 0.0765,-0.0418 0.0765,-0.0934 0,-0.0515 -0.0342,-0.0933 -0.0765,-0.0933 m 0,0.2841 c -0.0864,0 -0.1564,-0.0854 -0.1564,-0.1908 0,-0.1053 0.07,-0.1908 0.1564,-0.1908 0.0864,0 0.1564,0.0855 0.1564,0.1908 0,0.1054 -0.07,0.1908 -0.1564,0.1908" />
      <path
         style="fill:#221e1f;fill-rule:evenodd;stroke:none"
         id="path8041"
         d="m 0.6077,0.6669 c -0.0332,0 -0.06,-0.0328 -0.06,-0.0732 0,-0.0404 0.0268,-0.0732 0.06,-0.0732 0.0331,0 0.06,0.0328 0.06,0.0732 0,0.0404 -0.0269,0.0732 -0.06,0.0732" />
      <path
         style="fill:#3db740;fill-rule:nonzero;stroke:none"
         id="path8043"
         d="m 1,0.5009 c -0.0242,0 -0.0658,0 -0.0812,0 0.0128,0.0199 0.0533,0.0827 0.0533,0.0827 0.0146,0.0227 0.022,0.0485 0.022,0.0766 0,0.0348 -0.0107,0.0649 -0.0316,0.0893 C 0.9416,0.7739 0.9154,0.7874 0.8862,0.7863 0.8633,0.7854 0.842,0.777 0.8236,0.7611 0.8043,0.7446 0.7847,0.7128 0.7808,0.6682 l -9e-4,-0.0093 0.0749,3e-4 0.001,0.0069 C 0.8569,0.6746 0.8604,0.6815 0.8662,0.6872 0.8721,0.693 0.8787,0.6958 0.8864,0.6958 0.8953,0.6958 0.9025,0.6923 0.9087,0.6852 0.9147,0.6782 0.9176,0.67 0.9176,0.6601 0.9176,0.6522 0.9154,0.6451 0.9108,0.6382 0.9107,0.6381 0.7639,0.4104 0.7639,0.4104 l 0.1928,0 L 1,0.4101" />
      <path
         style="fill:#221e1f;fill-rule:evenodd;stroke:none"
         id="path8045"
         d="m 0.0989,1.5164 -0.08,0 0,0.3663 0.08,0 0,-0.1379 0.057,0 0,0.1379 0.079,0 0,-0.3663 -0.079,0 0,0.1425 -0.057,0" />
      <path
         style="fill:#221e1f;fill-rule:evenodd;stroke:none"
         id="path8047"
         d="m 0.3724,1.7418 -0.0417,0 0,0.0565 0.0425,0 c 0.0097,-10e-5 0.019,-0.0142 0.019,-0.0282 0,-0.0143 -0.0091,-0.0283 -0.0198,-0.0283 m 0.0016,-0.1395 -0.0429,0 0,0.0565 0.0395,0 C 0.3829,1.659 0.3922,1.6453 0.3922,1.6302 0.3922,1.6166 0.3855,1.6026 0.374,1.6023 M 0.4234,1.6995 C 0.4518,1.7072 0.473,1.738 0.473,1.7749 c 0,0.0644 -0.0304,0.1078 -0.0809,0.1078 l -0.1411,-10e-5 0,-0.3663 0.1395,0 c 7e-4,0 0.0013,0 0.002,0 0.0505,0 0.0809,0.0433 0.0809,0.1077 0,0.0371 -0.0214,0.068 -0.05,0.0755" />
      <path
         style="fill:#221e1f;fill-rule:evenodd;stroke:none"
         id="path8049"
         d="m 0.6077,1.6085 c -0.0423,0 -0.0765,0.0417 -0.0765,0.0933 0,0.0516 0.0342,0.0934 0.0765,0.0934 0.0423,0 0.0765,-0.0418 0.0765,-0.0934 0,-0.0516 -0.0342,-0.0933 -0.0765,-0.0933 m 0,0.2841 c -0.0864,0 -0.1564,-0.0854 -0.1564,-0.1908 0,-0.1053 0.07,-0.1908 0.1564,-0.1908 0.0864,0 0.1564,0.0855 0.1564,0.1908 0,0.1054 -0.07,0.1908 -0.1564,0.1908" />
      <path
         style="fill:#221e1f;fill-rule:evenodd;stroke:none"
         id="path8051"
         d="m 0.6077,1.775 c -0.0332,0 -0.06,-0.0327 -0.06,-0.0732 0,-0.0404 0.0268,-0.0732 0.06,-0.0732 0.0331,0 0.06,0.0328 0.06,0.0732 0,0.0405 -0.0269,0.0732 -0.06,0.0732" />
      <path
         style="fill:#221e1f;fill-rule:evenodd;stroke:none"
         id="path8053"
         d="m 0.0939,3.175 0.0581,0 0,-0.1451 0.0804,0 0,0.373 -0.0804,0 0,-0.1404 -0.0581,0 0,0.1404 -0.0815,0 0,-0.373 0.0815,0" />
      <path
         style="fill:#221e1f;fill-rule:evenodd;stroke:none"
         id="path8055"
         d="m 0.3724,3.2594 -0.0424,0 0,0.0575 0.0432,0 C 0.3831,3.3168 0.3926,3.3025 0.3926,3.2882 0.3926,3.2737 0.3833,3.2594 0.3724,3.2594 m 0.0017,-0.142 -0.0438,0 0,0.0575 0.0403,0 c 0.0125,10e-5 0.022,-0.0138 0.022,-0.0291 0,-0.0139 -0.0069,-0.0282 -0.0185,-0.0284 m 0.0503,0.0989 c 0.0289,0.0078 0.0505,0.0392 0.0505,0.0768 0,0.0656 -0.0309,0.1098 -0.0823,0.1098 l -0.1438,-10e-5 0,-0.373 0.1421,0 c 7e-4,0 0.0013,-10e-5 0.002,-10e-5 0.0515,0 0.0824,0.0442 0.0824,0.1097 0,0.0378 -0.0219,0.0693 -0.0509,0.0769" />
      <path
         style="fill:#221e1f;fill-rule:evenodd;stroke:none"
         id="path8057"
         d="m 0.6121,3.1236 c -0.0431,0 -0.078,0.0426 -0.078,0.0951 0,0.0525 0.0349,0.095 0.078,0.095 0.043,0 0.0779,-0.0425 0.0779,-0.095 0,-0.0525 -0.0349,-0.0951 -0.0779,-0.0951 m 0,0.2894 c -0.088,0 -0.1594,-0.087 -0.1594,-0.1943 0,-0.1073 0.0714,-0.1943 0.1594,-0.1943 0.0879,0 0.1593,0.087 0.1593,0.1943 C 0.7714,3.326 0.7,3.413 0.6121,3.413" />
      <path
         style="fill:#221e1f;fill-rule:evenodd;stroke:none"
         id="path8060"
         d="m 0.6121,3.2932 c -0.0338,0 -0.0612,-0.0334 -0.0612,-0.0745 0,-0.0412 0.0274,-0.0745 0.0612,-0.0745 0.0337,0 0.0611,0.0333 0.0611,0.0745 0,0.0411 -0.0274,0.0745 -0.0611,0.0745" />
      <path
         style="fill:#e97e16;fill-rule:nonzero;stroke:none"
         id="path8062"
         d="M 0.107,2.9433 C 0.0922,2.9538 0.0795,2.9585 0.0656,2.9585 c -0.0274,0 -0.0478,-0.0238 -0.0478,-0.056 0,-0.0328 0.0197,-0.0556 0.0486,-0.0556 0.0135,0 0.0283,0.0058 0.0418,0.0165 l 0,-0.023 C 0.0965,2.8329 0.0836,2.8276 0.0648,2.8276 0.0197,2.8276 0,2.8699 0,2.9006 c 0,0.0446 0.0276,0.0772 0.0658,0.0772 0.0123,0 0.0248,-0.0036 0.0412,-0.012" />
      <path
         style="fill:#e97e16;fill-rule:nonzero;stroke:none"
         id="path8064"
         d="m 0.1885,2.8469 c 0.0269,0 0.0468,0.0238 0.0468,0.0558 0,0.0322 -0.0199,0.0558 -0.0468,0.0558 -0.0268,0 -0.0466,-0.0236 -0.0466,-0.0558 0,-0.032 0.0198,-0.0558 0.0466,-0.0558 z m 0,0.1309 c 0.0396,0 0.0646,-0.0343 0.0646,-0.0751 0,-0.0395 -0.0243,-0.0751 -0.0649,-0.0751 -0.0393,0 -0.0641,0.0354 -0.0641,0.0751 0,0.0406 0.0255,0.0751 0.0644,0.0751" />
      <path
         style="fill:#e97e16;fill-rule:nonzero;stroke:none"
         id="path8066"
         d="m 0.3799,2.8295 -0.0173,0 0,0.114 -3e-4,0 -0.037,-0.0567 -0.0028,0 -0.037,0.0567 -3e-4,0 0,-0.114 -0.0173,0 0,0.1464 0.0162,0 0.0398,-0.0601 0.04,0.0601 0.016,0" />
      <path
         style="fill:#ab4b1d;fill-rule:nonzero;stroke:none"
         id="path8068"
         d="M 0.451,2.9699 0.4147,2.9265 0.44,2.8949 0.4751,2.9368 0.4859,2.9233 0.4509,2.8814 0.477,2.8489 0.5145,2.8936 0.5253,2.8801 0.4755,2.8206 0.3915,2.9253 0.4402,2.9834" />
      <path
         style="fill:#e97e16;fill-rule:nonzero;stroke:none"
         id="path8070"
         d="m 0.5529,2.8484 0.0274,0 c 0.0391,0 0.0481,0.0363 0.0481,0.0543 0,0.0294 -0.0153,0.0543 -0.049,0.0543 l -0.0265,0 0,-0.1086 z m -0.0173,0.1275 0.0466,0 c 0.0444,0 0.0639,-0.0386 0.0639,-0.0732 0,-0.0376 -0.0241,-0.0732 -0.0637,-0.0732 l -0.0468,0" />
      <path
         style="fill:#e97e16;fill-rule:nonzero;stroke:none"
         id="path8072"
         d="m 0.7286,2.9759 0.0208,0 -0.0446,-0.0691 0,-0.0773 -0.0172,0 0,0.0775 -0.0446,0.0689 0.0208,0 0.0322,-0.0505" />
      <path
         style="fill:#ffffff;fill-rule:evenodd;stroke:none"
         id="path8074"
         d="m 0.0898,-1.0501 -0.0801,0 0,0.3663 0.0801,0 0,-0.1379 0.057,0 0,0.1379 0.079,0 0,-0.3663 -0.079,0 0,0.1425 -0.057,0" />
      <path
         style="fill:#ffffff;fill-rule:evenodd;stroke:none"
         id="path8076"
         d="m 0.3633,-0.8247 -0.0417,0 0,0.0564 0.0425,0 c 0.0097,0 0.019,-0.0141 0.019,-0.0281 0,-0.0143 -0.0091,-0.0283 -0.0198,-0.0283 m 0.0016,-0.1395 -0.0429,0 0,0.0565 0.0395,0 c 0.0123,10e-5 0.0216,-0.0135 0.0216,-0.0286 0,-0.0136 -0.0067,-0.0276 -0.0182,-0.0279 m 0.0494,0.0972 c 0.0284,0.0077 0.0496,0.0385 0.0496,0.0754 0,0.0644 -0.0304,0.1077 -0.0809,0.1077 l -0.1411,0 0,-0.3663 0.1395,0 c 7e-4,0 0.0013,-10e-5 0.002,-10e-5 0.0505,0 0.0809,0.0434 0.0809,0.1078 0,0.0371 -0.0214,0.068 -0.05,0.0755" />
      <path
         style="fill:#ffffff;fill-rule:evenodd;stroke:none"
         id="path8078"
         d="m 0.5986,-0.958 c -0.0423,0 -0.0766,0.0417 -0.0766,0.0933 0,0.0516 0.0343,0.0933 0.0766,0.0933 0.0423,0 0.0765,-0.0417 0.0765,-0.0933 0,-0.0516 -0.0342,-0.0933 -0.0765,-0.0933 m 0,0.2841 c -0.0864,0 -0.1565,-0.0854 -0.1565,-0.1908 0,-0.1054 0.0701,-0.1908 0.1565,-0.1908 0.0864,0 0.1564,0.0854 0.1564,0.1908 0,0.1054 -0.07,0.1908 -0.1564,0.1908" />
      <path
         style="fill:#ffffff;fill-rule:evenodd;stroke:none"
         id="path8080"
         d="m 0.5986,-0.7915 c -0.0332,0 -0.06,-0.0328 -0.06,-0.0732 0,-0.0404 0.0268,-0.0732 0.06,-0.0732 0.0331,0 0.06,0.0328 0.06,0.0732 0,0.0404 -0.0269,0.0732 -0.06,0.0732" />
      <path
         style="fill:#3db740;fill-rule:nonzero;stroke:none"
         id="path8082"
         d="m 0.9909,-0.9575 c -0.0242,0 -0.0658,0 -0.0812,0 0.0128,0.0198 0.0533,0.0827 0.0533,0.0827 0.0146,0.0227 0.022,0.0485 0.022,0.0765 0,0.0349 -0.0107,0.065 -0.0316,0.0894 C 0.9325,-0.6845 0.9063,-0.671 0.8771,-0.6721 0.8541,-0.673 0.8329,-0.6814 0.8145,-0.6973 0.7952,-0.7139 0.7755,-0.7456 0.7716,-0.7902 l -8e-4,-0.0094 0.0749,4e-4 0.001,0.0068 c 0.0012,0.0085 0.0046,0.0154 0.0104,0.0211 0.0059,0.0058 0.0125,0.0087 0.0202,0.0087 0.0088,0 0.0161,-0.0035 0.0222,-0.0106 0.0061,-0.007 0.009,-0.0152 0.009,-0.0251 0,-0.0079 -0.0022,-0.0151 -0.0068,-0.0219 -10e-5,-10e-5 -0.1469,-0.2279 -0.1469,-0.2279 l 0.1928,0 0.0433,-2e-4" />
      <path
         style="fill:#ffffff;fill-rule:evenodd;stroke:none"
         id="path8084"
         d="m 0.0898,-2.1293 -0.0801,0 0,0.3663 0.0801,0 0,-0.1379 0.057,0 0,0.1379 0.079,0 0,-0.3663 -0.079,0 0,0.1425 -0.057,0" />
      <path
         style="fill:#ffffff;fill-rule:evenodd;stroke:none"
         id="path8086"
         d="m 0.3633,-1.904 -0.0417,0 0,0.0565 0.0425,0 c 0.0097,-10e-5 0.019,-0.0142 0.019,-0.0281 0,-0.0144 -0.0091,-0.0284 -0.0198,-0.0284 m 0.0016,-0.1394 -0.0429,0 0,0.0564 0.0395,0 c 0.0123,2e-4 0.0216,-0.0135 0.0216,-0.0285 0,-0.0136 -0.0067,-0.0276 -0.0182,-0.0279 m 0.0494,0.0972 c 0.0284,0.0076 0.0496,0.0385 0.0496,0.0754 0,0.0643 -0.0304,0.1077 -0.0809,0.1077 l -0.1411,0 0,-0.3663 0.1395,0 c 7e-4,-1e-4 0.0013,-1e-4 0.002,-1e-4 0.0505,0 0.0809,0.0434 0.0809,0.1077 0,0.0371 -0.0214,0.068 -0.05,0.0756" />
      <path
         style="fill:#ffffff;fill-rule:evenodd;stroke:none"
         id="path8088"
         d="m 0.5986,-2.0373 c -0.0423,0 -0.0766,0.0418 -0.0766,0.0934 0,0.0515 0.0343,0.0933 0.0766,0.0933 0.0423,0 0.0765,-0.0418 0.0765,-0.0933 0,-0.0516 -0.0342,-0.0934 -0.0765,-0.0934 m 0,0.2841 c -0.0864,0 -0.1565,-0.0854 -0.1565,-0.1907 0,-0.1054 0.0701,-0.1908 0.1565,-0.1908 0.0864,0 0.1564,0.0854 0.1564,0.1908 0,0.1053 -0.07,0.1907 -0.1564,0.1907" />
      <path
         style="fill:#ffffff;fill-rule:evenodd;stroke:none"
         id="path8091"
         d="m 0.5986,-1.8707 c -0.0332,0 -0.06,-0.0328 -0.06,-0.0732 0,-0.0405 0.0268,-0.0732 0.06,-0.0732 0.0331,0 0.06,0.0327 0.06,0.0732 0,0.0404 -0.0269,0.0732 -0.06,0.0732" />
    </g>
  </g>
</svg>
