<?xml version="1.0" encoding="UTF-8" standalone="no"?>
<!-- Created with Inkscape (http://www.inkscape.org/) -->
<svg
   xmlns:dc="http://purl.org/dc/elements/1.1/"
   xmlns:cc="http://web.resource.org/cc/"
   xmlns:rdf="http://www.w3.org/1999/02/22-rdf-syntax-ns#"
   xmlns:svg="http://www.w3.org/2000/svg"
   xmlns="http://www.w3.org/2000/svg"
   xmlns:xlink="http://www.w3.org/1999/xlink"
   xmlns:sodipodi="http://sodipodi.sourceforge.net/DTD/sodipodi-0.dtd"
   xmlns:inkscape="http://www.inkscape.org/namespaces/inkscape"
   width="233"
   height="204"
   id="svg2"
   sodipodi:version="0.32"
   inkscape:version="0.45.1"
   version="1.0"
   inkscape:output_extension="org.inkscape.output.svg.inkscape">
  <g
     inkscape:label="Layer 1"
     inkscape:groupmode="layer"
     id="layer1"
     transform="translate(-364.29225,-408.96339)">
    <g
       id="g5340"
       clip-path="url(#id897)"
       transform="matrix(1,0,0,-1,140.14535,311.36341)">
      <g
         id="g5342"
         transform="matrix(0.7200012,0,0,24,704.05597,174.59372)">
        <use
           id="use5344"
           xlink:href="#id898"
           x="0"
           y="0"
           width="744.09448"
           height="1052.3622" />
      </g>
    </g>
    <g
       id="g5348"
       clip-path="url(#id899)"
       transform="matrix(1,0,0,-1,140.14535,311.36341)">
      <g
         id="g5350"
         transform="matrix(0.7200012,0,0,24.23999,704.05597,147.71371)">
        <use
           id="use5352"
           xlink:href="#id898"
           x="0"
           y="0"
           width="744.09448"
           height="1052.3622" />
      </g>
    </g>
    <g
       clip-path="url(#id918)"
       id="g5822"
       transform="matrix(16.702509,0,0,-16.702509,-6945.4439,7405.5776)">
      <path
         style="fill:#00a093;fill-rule:nonzero;stroke:none"
         d="M 446.87,407.256 L 451.02,411.406 C 451.784,412.17 451.784,413.409 451.02,414.173 L 446.87,418.323 C 446.485,418.708 445.981,418.899 445.477,418.896 C 445.474,418.896 437.642,418.896 437.642,418.896 L 437.642,411.07 C 437.642,409.99 438.518,409.114 439.598,409.114 L 442.245,409.114 L 444.103,407.256 C 444.867,406.491 446.106,406.491 446.87,407.256"
         id="path5824" />
      <path
         style="fill:#ffffff;fill-rule:nonzero;stroke:none"
         d="M 440.6,412.599 C 440.6,412.091 440.188,411.679 439.68,411.679 C 439.172,411.679 438.76,412.091 438.761,412.599 L 438.761,415.855 C 438.761,416.363 439.172,416.775 439.68,416.775 C 440.188,416.775 440.6,416.363 440.6,415.855 L 440.6,412.599 z "
         id="path5826" />
      <path
         style="fill:#ffffff;fill-rule:nonzero;stroke:none"
         d="M 445.383,412.568 L 443.623,414.328 L 445.302,416.008 C 445.661,416.367 445.661,416.949 445.302,417.308 C 444.943,417.667 444.361,417.667 444.002,417.308 L 441.025,414.33 L 444.082,411.268 C 444.441,410.909 445.024,410.909 445.383,411.268 C 445.742,411.627 445.742,412.209 445.383,412.568"
         id="path5828" />
      <path
         style="fill:#ffffff;fill-rule:nonzero;stroke:none"
         d="M 449.27,412.826 L 449.824,412.273 C 449.944,412.152 450.147,412.16 450.276,412.289 L 450.801,412.814 C 450.848,412.861 450.85,412.936 450.805,412.98 C 450.76,413.025 450.689,413.022 450.641,412.975 L 450.11,412.443 C 450.072,412.405 450.021,412.401 449.989,412.433 L 449.682,412.739 C 449.675,412.746 449.675,412.757 449.682,412.764 L 450.137,413.219 C 450.184,413.266 450.185,413.341 450.139,413.386 C 450.096,413.43 450.024,413.427 449.977,413.379 L 449.522,412.925 C 449.515,412.918 449.504,412.918 449.497,412.925 L 449.432,412.989 C 449.387,413.035 449.315,413.035 449.27,412.989 C 449.224,412.943 449.224,412.872 449.27,412.826"
         id="path5830" />
      <path
         style="fill:#ffffff;fill-rule:nonzero;stroke:none"
         d="M 447.655,411.057 C 447.53,410.932 447.524,410.734 447.642,410.616 L 448.042,410.216 C 448.087,410.171 448.158,410.171 448.204,410.217 C 448.249,410.262 448.25,410.333 448.205,410.378 L 447.808,410.775 C 447.776,410.807 447.779,410.862 447.815,410.897 L 448.246,411.329 C 448.282,411.365 448.339,411.368 448.37,411.337 L 448.767,410.94 C 448.812,410.895 448.883,410.896 448.928,410.941 C 448.974,410.987 448.974,411.058 448.929,411.103 L 448.529,411.503 C 448.411,411.621 448.212,411.615 448.087,411.489 L 447.655,411.057 z "
         id="path5832" />
      <path
         style="fill:#ffffff;fill-rule:nonzero;stroke:none"
         d="M 446.446,410.003 L 447,409.449 C 447.12,409.328 447.323,409.336 447.452,409.465 L 447.978,409.991 C 448.024,410.037 448.026,410.112 447.981,410.156 C 447.937,410.201 447.865,410.198 447.817,410.151 L 447.286,409.619 C 447.248,409.581 447.197,409.577 447.164,409.609 L 446.858,409.915 C 446.851,409.922 446.851,409.934 446.858,409.941 L 447.313,410.395 C 447.36,410.442 447.361,410.517 447.315,410.562 C 447.272,410.606 447.2,410.603 447.153,410.555 L 446.698,410.101 C 446.691,410.094 446.68,410.094 446.673,410.101 L 446.608,410.165 C 446.563,410.211 446.491,410.211 446.446,410.165 C 446.4,410.119 446.4,410.048 446.446,410.003"
         id="path5834" />
      <path
         style="fill:#ffffff;fill-rule:nonzero;stroke:none"
         d="M 446.032,408.897 C 446.025,408.89 446.014,408.89 446.007,408.897 L 445.967,408.937 C 445.94,408.963 445.937,409.018 445.973,409.055 L 446.354,409.435 C 446.39,409.471 446.449,409.465 446.47,409.444 C 446.503,409.41 446.5,409.365 446.462,409.327 L 446.032,408.897 z M 447.034,409.207 C 446.99,409.251 446.917,409.251 446.873,409.206 L 446.346,408.68 C 446.313,408.646 446.259,408.645 446.227,408.676 L 446.192,408.712 C 446.185,408.719 446.185,408.73 446.192,408.737 L 446.623,409.168 C 446.749,409.294 446.754,409.487 446.634,409.608 C 446.517,409.724 446.316,409.719 446.194,409.597 L 445.814,409.216 C 445.69,409.092 445.684,408.894 445.802,408.776 L 446.07,408.509 C 446.187,408.391 446.384,408.397 446.507,408.521 L 447.033,409.046 C 447.078,409.091 447.078,409.163 447.034,409.207"
         id="path5836" />
      <path
         style="fill:#ffffff;fill-rule:nonzero;stroke:none"
         d="M 448.862,411.727 C 448.855,411.719 448.843,411.719 448.836,411.727 L 448.796,411.767 C 448.77,411.793 448.766,411.848 448.803,411.884 L 449.183,412.265 C 449.22,412.301 449.278,412.295 449.3,412.273 C 449.333,412.24 449.33,412.194 449.292,412.156 L 448.862,411.727 z M 449.864,412.037 C 449.819,412.081 449.747,412.08 449.702,412.036 L 449.176,411.509 C 449.143,411.476 449.088,411.474 449.057,411.506 L 449.021,411.541 C 449.014,411.548 449.014,411.56 449.021,411.567 L 449.453,411.998 C 449.579,412.124 449.583,412.317 449.463,412.437 C 449.347,412.553 449.146,412.548 449.024,412.427 L 448.644,412.046 C 448.519,411.922 448.514,411.724 448.632,411.606 L 448.899,411.339 C 449.017,411.221 449.213,411.226 449.337,411.35 L 449.862,411.875 C 449.907,411.92 449.908,411.993 449.864,412.037"
         id="path5838" />
      <path
         style="fill:#ffffff;fill-rule:nonzero;stroke:none"
         d="M 444.748,408.102 L 445.326,407.524 C 445.374,407.476 445.454,407.476 445.502,407.524 C 445.551,407.573 445.551,407.652 445.502,407.701 L 444.924,408.279 C 444.875,408.327 444.796,408.327 444.748,408.279 C 444.699,408.23 444.699,408.151 444.748,408.102"
         id="path5840" />
      <path
         style="fill:#ffffff;fill-rule:nonzero;stroke:none"
         d="M 445.233,408.91 L 445.233,408.91 L 445.238,408.07 L 446.08,408.064 C 446.154,408.06 446.215,408.11 446.221,408.18 C 446.224,408.215 446.211,408.251 446.187,408.279 C 446.185,408.281 446.183,408.284 446.181,408.286 C 446.159,408.307 446.132,408.32 446.105,408.321 C 446.105,408.321 445.486,408.322 445.486,408.322 L 445.489,408.939 C 445.488,408.967 445.471,408.998 445.444,409.021 C 445.416,409.045 445.38,409.056 445.346,409.052 C 445.275,409.043 445.231,408.989 445.233,408.91"
         id="path5842" />
    </g>
    <g
       id="g6762"
       clip-path="url(#id1054)"
       transform="matrix(1,0,0,-1,54.43106,928.50623)" />
  </g>
</svg>
