<?xml version="1.0" encoding="UTF-8" standalone="no"?>
<!-- Created with Inkscape (http://www.inkscape.org/) -->

<svg
   xmlns:dc="http://purl.org/dc/elements/1.1/"
   xmlns:cc="http://creativecommons.org/ns#"
   xmlns:rdf="http://www.w3.org/1999/02/22-rdf-syntax-ns#"
   xmlns:svg="http://www.w3.org/2000/svg"
   xmlns="http://www.w3.org/2000/svg"
   xmlns:sodipodi="http://sodipodi.sourceforge.net/DTD/sodipodi-0.dtd"
   xmlns:inkscape="http://www.inkscape.org/namespaces/inkscape"
   width="205.40965"
   height="111.03349"
   id="svg2"
   version="1.1"
   inkscape:version="0.48.2 r9819"
   sodipodi:docname="New document 1">
  <defs
     id="defs4">
    <clipPath
       id="clipPath7063"
       clipPathUnits="userSpaceOnUse">
      <path
         inkscape:connector-curvature="0"
         id="path7065"
         d="m 0,0 1242,0 0,792 L 0,792 0,0 z" />
    </clipPath>
    <clipPath
       id="clipPath7039"
       clipPathUnits="userSpaceOnUse">
      <path
         inkscape:connector-curvature="0"
         id="path7041"
         d="m 0,0 1242,0 0,792 L 0,792 0,0 z" />
    </clipPath>
    <clipPath
       id="clipPath7019"
       clipPathUnits="userSpaceOnUse">
      <path
         inkscape:connector-curvature="0"
         id="path7021"
         d="m 0,0 1242,0 0,792 L 0,792 0,0 z" />
    </clipPath>
    <linearGradient
       id="linearGradient7007"
       spreadMethod="pad"
       gradientTransform="matrix(1.5248871,-11.944992,-11.944992,-1.5248871,1011.2935,123.30273)"
       gradientUnits="userSpaceOnUse"
       y2="0"
       x2="1"
       y1="0"
       x1="0">
      <stop
         id="stop7009"
         offset="0"
         style="stop-opacity:1;stop-color:#d3463d" />
      <stop
         id="stop7011"
         offset="1"
         style="stop-opacity:1;stop-color:#993f39" />
    </linearGradient>
    <clipPath
       id="clipPath6981"
       clipPathUnits="userSpaceOnUse">
      <path
         inkscape:connector-curvature="0"
         id="path6983"
         d="m 0,0 1242,0 0,792 L 0,792 0,0 z" />
    </clipPath>
    <clipPath
       id="clipPath6965"
       clipPathUnits="userSpaceOnUse">
      <path
         inkscape:connector-curvature="0"
         id="path6967"
         d="m 0,0 1242,0 0,792 L 0,792 0,0 z" />
    </clipPath>
    <clipPath
       id="clipPath6945"
       clipPathUnits="userSpaceOnUse">
      <path
         inkscape:connector-curvature="0"
         id="path6947"
         d="m 0,0 1242,0 0,792 L 0,792 0,0 z" />
    </clipPath>
    <clipPath
       id="clipPath6911"
       clipPathUnits="userSpaceOnUse">
      <path
         inkscape:connector-curvature="0"
         id="path6913"
         d="m 0,0 1242,0 0,792 L 0,792 0,0 z" />
    </clipPath>
  </defs>
  <sodipodi:namedview
     id="base"
     pagecolor="#ffffff"
     bordercolor="#666666"
     borderopacity="1.0"
     inkscape:pageopacity="0.0"
     inkscape:pageshadow="2"
     inkscape:zoom="1.4182101"
     inkscape:cx="100.97458"
     inkscape:cy="52.648488"
     inkscape:document-units="px"
     inkscape:current-layer="layer1"
     showgrid="false"
     fit-margin-top="0"
     fit-margin-left="0"
     fit-margin-right="0"
     fit-margin-bottom="0"
     inkscape:window-width="475"
     inkscape:window-height="458"
     inkscape:window-x="154"
     inkscape:window-y="154"
     inkscape:window-maximized="0" />
  <metadata
     id="metadata7">
    <rdf:RDF>
      <cc:Work
         rdf:about="">
        <dc:format>image/svg+xml</dc:format>
        <dc:type
           rdf:resource="http://purl.org/dc/dcmitype/StillImage" />
        <dc:title></dc:title>
      </cc:Work>
    </rdf:RDF>
  </metadata>
  <g
     inkscape:label="Layer 1"
     inkscape:groupmode="layer"
     id="layer1"
     transform="translate(-428.69329,-642.15663)">
    <g
       id="g3164">
      <g
         id="g6903"
         transform="matrix(5.6619437,0,0,-5.6619437,429.92248,740.84032)">
        <path
           inkscape:connector-curvature="0"
           d="m 0,0 0.577,0 0,-1.7 1.294,0 0,-0.422 L 0,-2.122 0,0 z"
           style="fill:#373535;fill-opacity:1;fill-rule:nonzero;stroke:none"
           id="path6905" />
      </g>
      <g
         id="g6907"
         transform="matrix(5.6619437,0,0,-5.6619437,-5058.1319,1339.8779)">
        <g
           id="g6909"
           clip-path="url(#clipPath6911)">
          <g
             id="g6915"
             transform="translate(972.6677,105.86)">
            <path
               inkscape:connector-curvature="0"
               d="m 0,0 c 1.142,0 1.321,-0.677 1.321,-1.12 0,-0.443 -0.179,-1.12 -1.321,-1.12 -1.142,0 -1.321,0.677 -1.321,1.12 C -1.321,-0.677 -1.142,0 0,0 m 0,-1.836 c 0.524,0 0.708,0.386 0.708,0.716 0,0.33 -0.184,0.716 -0.708,0.716 -0.524,0 -0.708,-0.386 -0.708,-0.716 0,-0.33 0.184,-0.716 0.708,-0.716"
               style="fill:#373535;fill-opacity:1;fill-rule:nonzero;stroke:none"
               id="path6917" />
          </g>
          <g
             id="g6919"
             transform="translate(976.0533,104.9985)">
            <path
               inkscape:connector-curvature="0"
               d="m 0,0 c -0.054,0.306 -0.306,0.457 -0.607,0.457 -0.547,0 -0.663,-0.427 -0.663,-0.716 0,-0.288 0.116,-0.716 0.663,-0.716 0.28,0 0.55,0.134 0.607,0.47 l 0.628,0 c -0.072,-0.618 -0.58,-0.874 -1.256,-0.874 -0.773,0 -1.255,0.333 -1.255,1.12 0,0.788 0.482,1.12 1.255,1.12 0.512,0 1.164,-0.13 1.25,-0.861 L 0,0 z"
               style="fill:#373535;fill-opacity:1;fill-rule:nonzero;stroke:none"
               id="path6921" />
          </g>
        </g>
      </g>
      <g
         id="g6923"
         transform="matrix(5.6619437,0,0,-5.6619437,481.90483,750.37789)">
        <path
           inkscape:connector-curvature="0"
           d="m 0,0 -0.976,0 -0.172,-0.437 -0.622,0 0.934,2.122 0.696,0 0.934,-2.122 -0.621,0 L 0,0 z m -0.488,1.227 -0.333,-0.841 0.666,0 -0.333,0.841 z"
           style="fill:#373535;fill-opacity:1;fill-rule:nonzero;stroke:none"
           id="path6925" />
      </g>
      <g
         id="g6927"
         transform="matrix(5.6619437,0,0,-5.6619437,487.48239,740.84032)">
        <path
           inkscape:connector-curvature="0"
           d="m 0,0 0.577,0 0,-1.7 1.294,0 0,-0.422 L 0,-2.122 0,0 z"
           style="fill:#373535;fill-opacity:1;fill-rule:nonzero;stroke:none"
           id="path6929" />
      </g>
      <path
         inkscape:connector-curvature="0"
         d="m 500.14702,752.85329 3.26695,0 0,-2.86494 -3.26695,0 0,2.86494 z"
         style="fill:#373535;fill-opacity:1;fill-rule:nonzero;stroke:none"
         id="path6931" />
      <g
         id="g6933"
         transform="matrix(5.6619437,0,0,-5.6619437,512.61236,740.84032)">
        <path
           inkscape:connector-curvature="0"
           d="m 0,0 0.577,0 0,-1.7 1.294,0 0,-0.422 L 0,-2.122 0,0 z"
           style="fill:#373535;fill-opacity:1;fill-rule:nonzero;stroke:none"
           id="path6935" />
      </g>
      <g
         id="g6937"
         transform="matrix(5.6619437,0,0,-5.6619437,533.58533,750.37789)">
        <path
           inkscape:connector-curvature="0"
           d="m 0,0 -0.976,0 -0.173,-0.437 -0.621,0 0.934,2.122 0.696,0 0.934,-2.122 -0.621,0 L 0,0 z m -0.488,1.227 -0.333,-0.841 0.666,0 -0.333,0.841 z"
           style="fill:#373535;fill-opacity:1;fill-rule:nonzero;stroke:none"
           id="path6939" />
      </g>
      <g
         id="g6941"
         transform="matrix(5.6619437,0,0,-5.6619437,-5058.1319,1339.8779)">
        <g
           id="g6943"
           clip-path="url(#clipPath6945)">
          <g
             id="g6949"
             transform="translate(990.0183,105.1857)">
            <path
               inkscape:connector-curvature="0"
               d="m 0,0 c -0.036,0.276 -0.3,0.306 -0.532,0.306 -0.238,0 -0.393,-0.107 -0.393,-0.25 0,-0.113 0.095,-0.175 0.244,-0.199 l 0.723,-0.116 c 0.387,-0.062 0.681,-0.208 0.681,-0.594 0,-0.395 -0.268,-0.713 -1.104,-0.713 -0.517,0 -1.19,0.066 -1.196,0.728 l 0.649,0 c 0.006,-0.291 0.298,-0.342 0.547,-0.342 0.271,0 0.455,0.081 0.455,0.265 0,0.163 -0.13,0.208 -0.359,0.243 l -0.527,0.081 c -0.369,0.056 -0.726,0.166 -0.726,0.6 0,0.472 0.387,0.665 1.053,0.665 C -0.047,0.674 0.601,0.6 0.64,0 L 0,0 z"
               style="fill:#373535;fill-opacity:1;fill-rule:nonzero;stroke:none"
               id="path6951" />
          </g>
        </g>
      </g>
      <g
         id="g6953"
         transform="matrix(5.6619437,0,0,-5.6619437,557.94242,740.84032)">
        <path
           inkscape:connector-curvature="0"
           d="M 0,0 0.633,0 1.249,-1.616 1.865,0 2.499,0 1.556,-2.122 0.943,-2.122 0,0 z"
           style="fill:#373535;fill-opacity:1;fill-rule:nonzero;stroke:none"
           id="path6955" />
      </g>
      <g
         id="g6957"
         transform="matrix(5.6619437,0,0,-5.6619437,573.03662,740.84032)">
        <path
           inkscape:connector-curvature="0"
           d="m 0,0 1.984,0 0,-0.404 -1.407,0 0,-0.44 1.336,0 0,-0.386 -1.336,0 0,-0.487 1.419,0 0,-0.405 L 0,-2.122 0,0 z"
           style="fill:#373535;fill-opacity:1;fill-rule:nonzero;stroke:none"
           id="path6959" />
      </g>
      <g
         id="g6961"
         transform="matrix(5.6619437,0,0,-5.6619437,-5058.1319,1339.8779)">
        <g
           id="g6963"
           clip-path="url(#clipPath6965)">
          <g
             id="g6969"
             transform="translate(998.2533,104.8619)">
            <path
               inkscape:connector-curvature="0"
               d="m 0,0 1.083,0 0,-1.183 -0.291,0 -0.078,0.247 c -0.202,-0.217 -0.523,-0.306 -0.892,-0.306 -0.774,0 -1.256,0.333 -1.256,1.12 0,0.657 0.452,1.12 1.256,1.12 0.589,0 1.145,-0.172 1.249,-0.755 l -0.642,0 c -0.087,0.274 -0.334,0.351 -0.542,0.351 -0.523,0 -0.708,-0.386 -0.708,-0.716 0,-0.33 0.185,-0.716 0.708,-0.716 0.315,0 0.559,0.119 0.628,0.469 L 0,-0.369 0,0 z"
               style="fill:#373535;fill-opacity:1;fill-rule:nonzero;stroke:none"
               id="path6971" />
          </g>
        </g>
      </g>
      <g
         id="g6973"
         transform="matrix(5.6619437,0,0,-5.6619437,611.02147,750.37789)">
        <path
           inkscape:connector-curvature="0"
           d="m 0,0 -0.976,0 -0.173,-0.437 -0.621,0 0.934,2.122 0.696,0 0.934,-2.122 -0.622,0 L 0,0 z m -0.488,1.227 -0.333,-0.841 0.666,0 -0.333,0.841 z"
           style="fill:#373535;fill-opacity:1;fill-rule:nonzero;stroke:none"
           id="path6975" />
      </g>
      <g
         id="g6977"
         transform="matrix(5.6619437,0,0,-5.6619437,-5058.1319,1339.8779)">
        <g
           id="g6979"
           clip-path="url(#clipPath6981)">
          <g
             id="g6985"
             transform="translate(1003.6947,105.1857)">
            <path
               inkscape:connector-curvature="0"
               d="m 0,0 c -0.035,0.276 -0.3,0.306 -0.532,0.306 -0.238,0 -0.393,-0.107 -0.393,-0.25 0,-0.113 0.095,-0.175 0.244,-0.199 l 0.723,-0.116 c 0.387,-0.062 0.681,-0.208 0.681,-0.594 0,-0.395 -0.268,-0.713 -1.103,-0.713 -0.518,0 -1.19,0.066 -1.196,0.728 l 0.648,0 c 0.006,-0.291 0.298,-0.342 0.548,-0.342 0.27,0 0.454,0.081 0.454,0.265 0,0.163 -0.13,0.208 -0.359,0.243 l -0.527,0.081 c -0.369,0.056 -0.726,0.166 -0.726,0.6 0,0.472 0.387,0.665 1.054,0.665 C -0.047,0.674 0.601,0.6 0.64,0 L 0,0 z"
               style="fill:#373535;fill-opacity:1;fill-rule:nonzero;stroke:none"
               id="path6987" />
          </g>
        </g>
      </g>
      <path
         inkscape:connector-curvature="0"
         d="m 630.83035,752.85329 3.2726,0 0,-2.86494 -3.2726,0 0,2.86494 z"
         style="fill:#373535;fill-opacity:1;fill-rule:nonzero;stroke:none"
         id="path6989" />
      <path
         inkscape:connector-curvature="0"
         d="m 632.86865,733.21767 -204.17536,0 0,-91.06104 204.17536,0 0,91.06104 z"
         style="fill:#424142;fill-opacity:1;fill-rule:nonzero;stroke:none"
         id="path6991" />
      <path
         inkscape:connector-curvature="0"
         d="m 429.46332,732.10227 202.58434,0 0,-26.93953 -202.58434,0 0,26.93953 z"
         style="fill:#ffffff;fill-opacity:1;fill-rule:nonzero;stroke:none"
         id="path6993" />
      <g
         id="g6995"
         transform="matrix(5.6619437,0,0,-5.6619437,-5058.1319,1339.8779)">
        <g
           id="g6997">
          <g
             id="g7003">
            <g
               id="g7005">
              <path
                 inkscape:connector-curvature="0"
                 d="m 992.956,112.291 12.006,0 0,10.77 -12.006,0 0,-10.77 z"
                 style="fill:url(#linearGradient7007);stroke:none"
                 id="path7013" />
            </g>
          </g>
        </g>
      </g>
      <g
         id="g7015"
         transform="matrix(5.6619437,0,0,-5.6619437,-5058.1319,1339.8779)">
        <g
           id="g7017"
           clip-path="url(#clipPath7019)">
          <g
             id="g7023"
             transform="translate(995.1266,122.3383)">
            <path
               inkscape:connector-curvature="0"
               d="m 0,0 8.472,0 0,-1.908 -6.496,0 -0.245,-1.355 c 0.645,0.258 1.511,0.426 2.763,0.426 2.673,0 4.533,-0.98 4.533,-3.018 0,-1.999 -1.692,-3.275 -5.152,-3.275 -3.642,0 -4.947,1.096 -5.192,3.03 l 3.177,0 c 0.168,-0.787 0.982,-1.044 1.976,-1.044 1.51,0 2.118,0.541 2.118,1.264 0,0.683 -0.62,1.315 -2.093,1.315 -0.735,0 -1.368,-0.142 -1.807,-0.465 l -2.932,0 L 0,0 z"
               style="fill:#ffffff;fill-opacity:1;fill-rule:nonzero;stroke:none"
               id="path7025" />
          </g>
        </g>
      </g>
      <g
         id="g7027"
         transform="matrix(5.6619437,0,0,-5.6619437,435.97288,699.21317)">
        <path
           inkscape:connector-curvature="0"
           d="m 0,0 0,9.179 5.536,0 0.17,-2.51 -3.098,0 0,-1.197 2.524,0 0,-2.505 -2.546,0 L 2.593,0 0,0 z"
           style="fill:#ffffff;fill-opacity:1;fill-rule:nonzero;stroke:none"
           id="path7029" />
      </g>
      <g
         id="g7031"
         transform="matrix(5.6619437,0,0,-5.6619437,556.59547,699.13956)">
        <path
           inkscape:connector-curvature="0"
           d="m 0,0 -2.767,4.763 2.514,4.389 -2.835,0 -1.085,-1.977 -1.064,1.977 -2.933,0 2.565,-4.42 L -8.322,0 -5.471,-0.005 -4.208,2.315 -2.929,0 0,0 z"
           style="fill:#ffffff;fill-opacity:1;fill-rule:nonzero;stroke:none"
           id="path7033" />
      </g>
      <g
         id="g7035"
         transform="matrix(5.6619437,0,0,-5.6619437,-5058.1319,1339.8779)">
        <g
           id="g7037"
           clip-path="url(#clipPath7039)">
          <g
             id="g7043"
             transform="translate(980.3226,122.1931)">
            <path
               inkscape:connector-curvature="0"
               d="m 0,0 c -2.419,0 -4.38,-1.998 -4.38,-4.463 0,-2.465 1.961,-4.463 4.38,-4.463 2.419,0 4.38,1.998 4.38,4.463 C 4.38,-1.998 2.419,0 0,0 m 0.012,-7.042 c -0.41,0 -0.743,0.339 -0.743,0.758 l 0.001,3.656 c 0,0.418 0.332,0.793 0.742,0.793 0.411,0 0.776,-0.375 0.776,-0.793 l 0,-3.667 c 0,-0.418 -0.365,-0.747 -0.776,-0.747"
               style="fill:#ffffff;fill-opacity:1;fill-rule:nonzero;stroke:none"
               id="path7045" />
          </g>
        </g>
      </g>
      <g
         id="g7047"
         transform="matrix(5.6619437,0,0,-5.6619437,446.51877,720.87404)">
        <path
           inkscape:connector-curvature="0"
           d="m 0,0 -0.485,-0.397 0,-0.93 -1.472,0 0,3.458 1.472,0 0,-1.22 1.367,1.22 1.951,0 -1.664,-1.337 1.805,-2.121 -1.957,0 L 0,0 z"
           style="fill:#373535;fill-opacity:1;fill-rule:nonzero;stroke:none"
           id="path7049" />
      </g>
      <g
         id="g7051"
         transform="matrix(5.6619437,0,0,-5.6619437,464.75707,708.80563)">
        <path
           inkscape:connector-curvature="0"
           d="m 0,0 1.618,0 0.819,-2.219 0.01,0 L 3.266,0 4.884,0 3.214,-3.459 1.67,-3.459 0,0 z"
           style="fill:#373535;fill-opacity:1;fill-rule:nonzero;stroke:none"
           id="path7053" />
      </g>
      <g
         id="g7055"
         transform="matrix(5.6619437,0,0,-5.6619437,493.54234,708.80563)">
        <path
           inkscape:connector-curvature="0"
           d="m 0,0 1.618,0 0.819,-2.219 0.01,0 L 3.266,0 4.884,0 3.214,-3.459 1.67,-3.459 0,0 z"
           style="fill:#373535;fill-opacity:1;fill-rule:nonzero;stroke:none"
           id="path7057" />
      </g>
      <g
         id="g7059"
         transform="matrix(5.6619437,0,0,-5.6619437,-5058.1319,1339.8779)">
        <g
           id="g7061"
           clip-path="url(#clipPath7063)">
          <g
             id="g7067"
             transform="translate(986.1094,111.4586)">
            <path
               inkscape:connector-curvature="0"
               d="m 0,0 1.471,0 0,-2.093 c 0,-0.445 0.277,-0.586 0.757,-0.586 0.48,0 0.757,0.141 0.757,0.586 l 0,2.093 1.471,0 0,-2.146 C 4.456,-3.245 3.741,-3.58 2.228,-3.58 0.715,-3.58 0,-3.245 0,-2.146 L 0,0 z"
               style="fill:#373535;fill-opacity:1;fill-rule:nonzero;stroke:none"
               id="path7069" />
          </g>
        </g>
      </g>
      <path
         inkscape:connector-curvature="0"
         d="m 557.34964,722.7091 10.72372,0 0,-4.76736 -10.72372,0 0,4.76736 z"
         style="fill:#373535;fill-opacity:1;fill-rule:nonzero;stroke:none"
         id="path7071" />
      <g
         id="g7073"
         transform="matrix(5.6619437,0,0,-5.6619437,581.01883,713.74339)">
        <path
           inkscape:connector-curvature="0"
           d="m 0,0 -1.361,0 0,0.872 4.195,0 0,-0.872 -1.362,0 0,-2.587 L 0,-2.587 0,0 z"
           style="fill:#373535;fill-opacity:1;fill-rule:nonzero;stroke:none"
           id="path7075" />
      </g>
      <g
         id="g7077"
         transform="matrix(5.6619437,0,0,-5.6619437,599.31882,708.80563)">
        <path
           inkscape:connector-curvature="0"
           d="m 0,0 1.618,0 0.818,-2.219 0.011,0 L 3.266,0 4.884,0 3.214,-3.459 1.67,-3.459 0,0 z"
           style="fill:#373535;fill-opacity:1;fill-rule:nonzero;stroke:none"
           id="path7079" />
      </g>
    </g>
  </g>
</svg>
