<?xml version="1.0" encoding="utf-8"?>
<!-- Generator: Adobe Illustrator 15.1.0, SVG Export Plug-In . SVG Version: 6.00 Build 0)  -->
<!DOCTYPE svg PUBLIC "-//W3C//DTD SVG 1.1//EN" "http://www.w3.org/Graphics/SVG/1.1/DTD/svg11.dtd">
<svg version="1.1" id="Layer_1" xmlns="http://www.w3.org/2000/svg" xmlns:xlink="http://www.w3.org/1999/xlink" x="0px" y="0px"
	 width="595.279px" height="841.89px" viewBox="0 0 595.279 841.89" enable-background="new 0 0 595.279 841.89"
	 xml:space="preserve">
<g>
	<g id="g3350" transform="matrix(0.6134676,0,0,0.6134676,-67.162069,666.52892)">
		<path id="path2457" fill="#707173" d="M410.513-210.543c-1.904-7.805-33.884-161.359-33.653-161.588
			c0.298-0.299,41.345-5.108,41.496-4.862c0.416,0.688,12.138,74.156,15.459,96.885c1.707,11.688,3.209,21.358,3.337,21.484
			c0.32,0.32,0.434-0.111,4.281-16.291c5.682-23.892,20.029-77.844,26.262-98.76c0.293-0.981,1.654-1.065,17.334-1.065h17.017
			l0.566,1.488c0.95,2.498,17.336,60.058,20.978,73.683c1.878,7.031,4.983,19.144,6.898,26.92
			c1.917,7.776,3.627,14.144,3.801,14.152c0.176,0.01,0.946-4.849,1.714-10.79c3.403-26.322,15.414-106.98,16.017-107.571
			c0.284-0.277,35.187,4.325,35.549,4.688c0.156,0.156-7.046,36.896-16.005,81.642l-16.288,81.361l-23.101-0.158l-23.102-0.159
			l-2.338-7.913c-9.513-32.208-18.599-65.455-22.706-83.085c-0.896-3.851-1.814-7.202-2.042-7.45
			c-0.225-0.248-1.73,5.505-3.339,12.783c-2.798,12.639-15.092,62.023-19.432,78.056l-2.059,7.608l-23.155,0.161l-23.153,0.159
			L410.513-210.543z M596.969-291.959v-82.782h20.392h20.39v82.782v82.781h-20.39h-20.392V-291.959z M656.62-291.959v-82.782h20.698
			h20.694v67.565v67.564h25.26h25.26v15.218v15.215h-45.954H656.62V-291.959z M761.315-291.924v-82.817h29.192
			c30.876,0,38.023,0.415,47.196,2.736c12.679,3.206,21.825,8.088,30.443,16.248c11.627,11.005,18.553,25.452,21.358,44.552
			c1.223,8.322,0.898,28.275-0.589,36.174c-3.687,19.59-10.013,32.688-21.387,44.267c-10.478,10.667-21.035,16.436-36.826,20.124
			c-3.969,0.928-8.789,1.097-36.978,1.297l-32.411,0.234v-82.816H761.315z M823.488-241.564c7.522-2.799,13.152-8.119,17.23-16.282
			c4.093-8.195,6.06-16.364,7.138-29.625c1.729-21.261-3.182-38.358-13.886-48.358c-6.665-6.224-11.568-7.869-23.461-7.869h-8.411
			v51.636c0,28.399,0.204,51.849,0.455,52.107c0.253,0.259,4.155,0.344,8.674,0.185C818-240.005,820.154-240.322,823.488-241.564z
			 M623.997-392.963c-8.942-1.414-15.605-5.357-21.527-12.733c-5.148-6.414-7.822-14.236-8.364-24.461
			c-0.7-13.216,3.386-24.531,11.764-32.582c10.067-9.673,26.387-12.218,38.616-6.021c1.684,0.852,3.193,1.896,3.356,2.316
			c0.161,0.421-0.533,2.588-1.544,4.815l-1.835,4.049l-3.335-1.474c-11.861-5.246-24.448-1.219-29.914,9.569
			c-2.448,4.832-3.313,8.224-3.703,14.541c-0.809,13.152,4.273,24.31,13.305,29.207c3.55,1.923,4.257,2.084,9.026,2.057
			c2.843-0.017,5.925-0.353,6.845-0.747l1.675-0.715v-11.883v-11.885h6.391h6.391v15.818v15.818l-2.283,0.961
			C642.436-393.613,630.268-391.973,623.997-392.963z M734.077-393.314c-11.126-2.418-20.083-12.316-23.673-26.165
			c-1.555-5.997-1.578-20.9-0.043-26.478c3.583-13.001,12.885-23.049,23.63-25.527c3.426-0.79,9.831-0.79,13.254,0
			c7.53,1.734,15.978,8.552,19.948,16.093c3.86,7.328,4.777,11.676,4.749,22.521c-0.029,11.17-0.726,14.615-4.61,22.698
			c-4.276,8.899-11.699,15.027-20.456,16.883C741.868-392.226,739.061-392.233,734.077-393.314z M748.181-405.42
			c6.756-3.959,10.697-14.258,10.697-27.935c0-16.739-7.154-27.917-17.934-28.019c-8.816-0.083-15.194,6.518-17.692,18.3
			c-2.907,13.724,1.2,31.672,8.424,36.817C736.422-402.879,743.256-402.532,748.181-405.42z M389.41-434.087v-40.477l5.022,0.023
			l5.022,0.023l2.394,3.477c7.991,11.612,28.665,42.758,31.7,47.758c1.981,3.264,3.816,5.935,4.079,5.935
			c0.264,0,0.479-12.873,0.479-28.609v-28.608h5.174h5.174v40.477v40.479h-4.764h-4.762l-11.489-16.848
			c-6.319-9.268-14.926-22.295-19.129-28.951l-7.641-12.102l-0.158,28.951l-0.158,28.951h-5.472h-5.473v-40.479H389.41
			L389.41-434.087z M454.538-394.067c0-0.252,6.065-18.466,13.475-40.477l13.476-40.021l5.546,0.008l5.547,0.007l11.207,36.058
			c6.165,19.83,11.827,38.042,12.584,40.468l1.375,4.414h-7.471h-7.473l-2.919-10.502c-1.605-5.774-3.189-10.845-3.52-11.273
			c-0.459-0.587-3.38-0.734-12.187-0.608l-11.584,0.166l-3.395,11.101l-3.396,11.1l-5.631,0.01
			C457.072-393.613,454.538-393.815,454.538-394.067z M494.207-425.569c0.268-0.267-7.447-29.5-8.432-31.953
			c-0.231-0.576-0.586-0.017-0.963,1.523c-0.328,1.339-2.342,8.571-4.479,16.074c-2.135,7.5-3.883,13.869-3.883,14.151
			C476.45-425.235,493.675-425.035,494.207-425.569z M531.841-428.608v-34.999h-10.346h-10.35v-5.478v-5.478h27.391h27.391v5.478
			v5.478h-10.346h-10.348v34.999v35h-6.695h-6.695v-35H531.841z M665.143-432.261v-38.651h17.043h17.044v5.174v5.174h-10.651h-10.65
			v10.65v10.651h10.344h10.349v4.87v4.869h-10.349h-10.344v12.783v12.782h12.477h12.477v5.175v5.174h-18.87h-18.867v-38.651H665.143
			L665.143-432.261z"/>
		<path id="rect2529" fill="#FFCD05" d="M152.996-474.273v264.738h184.64v-264.738H152.996z M179.778-447.492
			c43.692,0,87.384,0,131.077,0c0,70.392,0,140.784,0,211.175c-43.692,0-87.385,0-131.077,0
			C179.778-306.708,179.778-377.1,179.778-447.492z"/>
	</g>
	<g>
		<path fill="#707173" d="M532.558,505.389h-1.373v8.439c0,4.642,0.033,8.473,0.072,8.515c0.041,0.043,0.678,0.059,1.418,0.03
			c1.108-0.039,1.46-0.09,2.005-0.293c1.229-0.456,2.149-1.326,2.815-2.661c0.668-1.339,0.989-2.673,1.167-4.841
			c0.283-3.475-0.521-6.27-2.27-7.902C535.303,505.657,534.502,505.389,532.558,505.389z"/>
		<path fill="#707173" d="M487.05,491.303c-3.49,24.562-8.083,34.371-24.042,44.835h94.326v-44.835H487.05L487.05,491.303z
			 M518.886,527.386h-6.444v-11.987h-7.31v11.966h-6.443v-27.073h6.443v10.287h7.31v-10.266h6.444V527.386z M545.373,516.612
			c-0.604,3.2-1.637,5.341-3.494,7.233c-1.714,1.744-3.438,2.688-6.02,3.289c-0.649,0.152-1.438,0.182-6.044,0.213l-5.296,0.039
			v-13.533v-13.536h4.772c5.045,0,6.213,0.066,7.711,0.446c2.072,0.525,3.566,1.321,4.975,2.656c1.902,1.8,3.033,4.159,3.49,7.281
			C545.67,512.059,545.617,515.321,545.373,516.612z"/>
	</g>
</g>
</svg>
