<?xml version="1.0" encoding="UTF-8" standalone="no"?>
<!-- Created with Inkscape (http://www.inkscape.org/) -->

<svg
   xmlns:dc="http://purl.org/dc/elements/1.1/"
   xmlns:cc="http://creativecommons.org/ns#"
   xmlns:rdf="http://www.w3.org/1999/02/22-rdf-syntax-ns#"
   xmlns:svg="http://www.w3.org/2000/svg"
   xmlns="http://www.w3.org/2000/svg"
   version="1.1"
   width="1000"
   height="1000"
   id="svg11216">
  <defs
     id="defs11218" />
  <metadata
     id="metadata11221">
    <rdf:RDF>
      <cc:Work
         rdf:about="">
        <dc:format>image/svg+xml</dc:format>
        <dc:type
           rdf:resource="http://purl.org/dc/dcmitype/StillImage" />
        <dc:title></dc:title>
      </cc:Work>
    </rdf:RDF>
  </metadata>
  <g
     transform="translate(-422.98339,664.90815)"
     id="layer1">
    <g
       transform="matrix(19.796715,0,0,19.796715,-7900.6952,-6348.6533)"
       id="g11293">
      <path
         d="m 467.42006,309.73205 c 1.41875,1.63 1.30625,4.09375 0.025,5.22625 l -19.42625,19.35125 c -1.07,1.045 -3.41,1.0325 -4.47375,0.025 l -19.52625,-19.45 c -1.41875,-1.59375 -1.36875,-3.68375 0.0825,-5.165 l 19.12625,-19.14 c 1.43125,-1.25625 3.63375,-1.29375 4.99125,0.075 l 19.20125,19.0775 z"
         id="path2090"
         style="fill:#f5a749;fill-opacity:1;fill-rule:nonzero;stroke:none" />
      <path
         d="m 432.78125,304.40625 c -0.96625,0 -1.75,0.785 -1.75,1.75 l 0,0.28125 c 0,0.96625 0.78375,1.75 1.75,1.75 l 6.5,0 1.375,0 c 0.48586,0.0404 0.5,0.22 0.5,0.90625 l 0,0.5625 c 0,0.17321 0.009,0.32295 0,0.4375 -0.0267,0.34366 -0.1356,0.44104 -0.5,0.46875 l -1.21875,0 -6.375,0 -0.28125,0 c -0.60391,0 -1.12296,0.28479 -1.4375,0.75 -0.063,0.0913 -0.14316,0.17807 -0.1875,0.28125 -0.0948,0.21528 -0.125,0.43738 -0.125,0.6875 l 0,0.28125 0,5.78125 0,0.28125 c 0,0.12078 0.008,0.22985 0.0312,0.34375 0.0232,0.12401 0.0364,0.23503 0.0937,0.34375 0.18086,0.48565 0.50385,0.75821 0.9375,0.9375 0.20924,0.0885 0.44594,0.125 0.6875,0.125 l 0.28125,0 10.125,0 c 0.96625,0 1.75,-0.78375 1.75,-1.75 l 0,-0.28125 c 0,-0.96625 -0.78375,-1.75 -1.75,-1.75 l -7.46875,0 c -0.84617,-0.007 -0.90625,-0.0845 -0.90625,-0.875 l 0,-0.53125 c 0,-0.79864 0.0595,-0.87427 0.90625,-0.875 l 7.1875,0 0.28125,0 c 0.24156,0 0.47814,-0.0364 0.6875,-0.125 0.16758,-0.0708 0.30146,-0.16447 0.4375,-0.28125 0.0338,-0.029 0.0623,-0.0623 0.0937,-0.0937 0.0494,-0.048 0.0815,-0.10273 0.125,-0.15625 0.0562,-0.0691 0.11097,-0.14147 0.15625,-0.21875 0.0792,-0.13511 0.1467,-0.28243 0.1875,-0.4375 0.0375,-0.14248 0.0625,-0.28327 0.0625,-0.4375 l 0,-0.28125 0,-5.84375 0,-0.28125 c 0,-0.965 -0.78375,-1.75 -1.75,-1.75 l -10.40625,0 z m 15.65625,0 c -0.965,0 -1.75,0.78375 -1.75,1.75 l 0,6.875 0,0.53125 c 0,0.96625 0.785,1.75 1.75,1.75 l 8.125,0 0,3.3125 c 0,0.96625 0.78375,1.75 1.75,1.75 l 0.59375,0 c 0.965,0 1.75,-0.78375 1.75,-1.75 l 0,-5.0625 0,-0.53125 0,-6.875 c 0,-0.96625 -0.785,-1.75 -1.75,-1.75 l -0.59375,0 c -0.96625,0 -1.75,0.78375 -1.75,1.75 l 0,5.125 -5.84375,0 0,-5.125 c 0,-0.96625 -0.785,-1.75 -1.75,-1.75 l -0.53125,0 z"
         id="path2092"
         style="fill:#ffffff;fill-opacity:1;fill-rule:nonzero;stroke:none" />
    </g>
  </g>
</svg>
