<?xml version="1.0" encoding="UTF-8"?>
<!DOCTYPE svg PUBLIC "-//W3C//DTD SVG 1.1//EN" "http://www.w3.org/Graphics/SVG/1.1/DTD/svg11.dtd">
<!-- Creator: CorelDRAW -->
<svg xmlns="http://www.w3.org/2000/svg" xml:space="preserve" width="2210px" height="1158px" style="shape-rendering:geometricPrecision; text-rendering:geometricPrecision; image-rendering:optimizeQuality; fill-rule:evenodd; clip-rule:evenodd"
viewBox="0 0 2132.69 1117.52"
 xmlns:xlink="http://www.w3.org/1999/xlink">
 <defs>
  <style type="text/css">
   <![CDATA[
    .fil0 {fill:#231F20}
    .fil1 {fill:#FB8438}
   ]]>
  </style>
 </defs>
 <g id="Ebene_x0020_1">
  <metadata id="CorelCorpID_0Corel-Layer"/>
  <path class="fil0" d="M290.479 496.681l0 -125.214c0,-5.38464 -4.30179,-9.74343 -9.65794,-9.87223 -28.9522,0 -79.7791,0 -79.7791,0 -138.879,0 -201.042,95.7074 -201.042,190.558l0 281.238c0.106006,5.37211 4.47619,9.70353 9.87565,9.70353 30.467,-0.00113985 123.092,0 159.13,0 5.44848,-0.0250767 9.85627,-4.43971 9.85627,-9.89617l0 -265.283c0,-38.5622 23.0204,-61.5758 61.5746,-61.5758 0,0 23.3065,0 42.2542,0 4.45111,-0.965452 7.78859,-4.91731 7.78859,-9.65908z"/>
  <path class="fil0" d="M1139.9 992.825c-21.4998,-21.3927 -37.2594,-38.3251 -57.6991,-71.6885l-0.156159 -0.278123c-15.6228,-26.5357 -23.5367,-67.6432 -23.5367,-122.186l0.00113985 -676.659c0,-5.38578 -4.51608,-11.378 -9.67162,-9.92922l-161.709 55.5653c-0.0125383,0.00569924 -0.0250767,0.0398947 -0.0284962,0.0410345 -4.31433,1.07032 -7.50818,4.96176 -7.5116,9.60322l0.0319158 629.256c0,58.5472 2.7345,125.54 35.6032,179.922 26.9745,46.3679 67.1485,86.5464 106.367,125.331 3.81963,3.3295 9.54965,3.25655 13.2576,-0.270144 24.1956,-24.1944 82.0714,-82.0714 105.752,-105.747 3.00806,-3.84813 2.79833,-9.38551 -0.699867,-12.9601z"/>
  <path class="fil0" d="M732.454 361.595l-78.3919 0 -13.6713 0c-5.31625,-0.124243 -9.58727,-4.42261 -9.64768,-9.75026l0.00113985 -136.146c0,-5.46557 -4.64944,-11.5957 -9.89617,-9.89503l0 -0.0205173 -150.351 54.5475c-3.45032,1.54677 -5.85426,5.00052 -5.85426,9.0276l-1.58439 82.329 -0.0319158 0.0364752c0,5.38692 -4.30293,9.74685 -9.65908,9.87109l-18.8759 0 -37.3198 0c-5.35615,0.128803 -9.6625,4.48758 -9.6625,9.87223l0 124.989c0,5.43594 4.3907,9.84373 9.81866,9.88363l45.0491 0c5.20341,0.294081 9.34106,4.56053 9.34106,9.83575l0.136782 0.165278 0 173.805c0,0.197194 0.00455939,0.370451 0.00455939,0.558526 0,0.2975 -0.00455939,0.59956 -0.00455939,0.897061 0,113.111 61.0252,211.416 150.793,261.571 3.59508,1.78842 8.03365,1.25383 11.1147,-1.60491l98.6414 -97.4001c3.60762,-3.88004 3.55177,-9.93606 -0.22911,-13.7158l0.0125383 -0.0159579c-46.9583,-35.7719 -78.1469,-91.1799 -81.1903,-154.025 -0.136782,-1.43963 -0.246207,-78.0226 -0.254186,-170.649 0.00113985,-4.47619 2.99666,-8.20349 7.0739,-9.42199l94.6371 0 0 -0.0113985c5.46899,0 9.89617,-4.43173 9.89617,-9.89617l0 -124.941c0,-5.46443 -4.42717,-9.89617 -9.89617,-9.89617z"/>
  <path class="fil1" d="M2132.69 307.688c0,-58.5517 -2.72994,-125.544 -35.5986,-179.924 -26.9734,-46.3679 -67.153,-86.5476 -106.367,-125.33 -3.82419,-3.32608 -9.54965,-3.25541 -13.2576,0.266725 -24.1978,24.2013 -82.0714,82.0714 -105.752,105.752 -3.00692,3.85155 -2.79833,9.38437 0.699867,12.9578 21.4975,21.3938 37.256,38.3263 57.6946,71.6896l0.158439 0.274704c15.6216,26.538 23.539,67.6443 23.539,122.191l0 486.396c0,54.5463 -7.91739,95.6504 -23.5402,122.191l-0.156159 0.272424c-20.4398,33.3634 -36.1993,50.297 -57.6957,71.6896 -3.4982,3.57457 -3.70793,9.10397 -0.699867,12.9601 23.6804,23.6804 81.5527,81.5448 105.752,105.752 3.70793,3.51757 9.43339,3.58596 13.2576,0.265585 39.2142,-38.7799 79.3939,-78.963 106.367,-125.331 32.8687,-54.3776 35.5986,-121.37 35.5986,-179.922l0 -502.151z"/>
  <polygon class="fil1" points="1696.71,806.265 1696.71,920.364 1518.45,920.364 1518.45,806.265 1233.26,806.265 1233.26,616.832 1431.89,187.017 1624.38,187.017 1415.59,637.212 1518.45,637.212 1518.45,523.129 1696.71,523.129 1696.71,637.212 1775.13,637.212 1775.13,806.265 "/>
 </g>
</svg>
