<?xml version="1.0" encoding="UTF-8" standalone="no"?>
<!-- Created with Inkscape (http://www.inkscape.org/) -->

<svg
   xmlns:dc="http://purl.org/dc/elements/1.1/"
   xmlns:cc="http://creativecommons.org/ns#"
   xmlns:rdf="http://www.w3.org/1999/02/22-rdf-syntax-ns#"
   xmlns:svg="http://www.w3.org/2000/svg"
   xmlns="http://www.w3.org/2000/svg"
   version="1.1"
   width="800"
   height="300"
   id="svg2">
  <defs
     id="defs4" />
  <metadata
     id="metadata7">
    <rdf:RDF>
      <cc:Work
         rdf:about="">
        <dc:format>image/svg+xml</dc:format>
        <dc:type
           rdf:resource="http://purl.org/dc/dcmitype/StillImage" />
        <dc:title></dc:title>
      </cc:Work>
    </rdf:RDF>
  </metadata>
  <rect
     width="748.7"
     height="216.6"
     ry="0"
     x="26.71"
     y="46.6"
     id="rect3100"
     style="fill:#ffdd00;fill-opacity:1;stroke:none" />
  <path
     d="m 74.93,96 0,117.6 29.27,0 0,-43.6 8.8,0 20.6,43.6 34.6,0 -25.5,-48.6 c 11.3,-6 19,-16.9 19,-31.3 0,-24.3 -19.3,-37.7 -41.9,-37.7 l -44.87,0 z m 29.27,26.1 16.9,0 c 15.4,0 15,23.4 0,23.4 l -16.9,0 0,-23.4 z"
     id="path3000"
     style="fill:#000000;stroke:none" />
  <path
     d="m 230.4,213.6 0,-90.9 29.2,0 0,-26.7 -86.9,0 0,26.7 29.3,0 0,90.9 z"
     id="path3005-6"
     style="fill:#000000;stroke:none" />
  <path
     d="m 275.3,96 0,117.6 78.2,0 8.9,-26.3 -58,0 0,-91.3 z"
     id="path3026"
     style="fill:#000000;stroke:none" />
  <path
     d="M 434.6,225.1 478.3,96 l -86.1,0 -9.5,27.9 58,0 -34.6,101.2 z"
     id="path3026-8"
     style="fill:#000000;stroke:none" />
  <path
     d="m 506.8,225.1 48.4,-143 -15.1,0 -48.6,143 z"
     id="path3026-8-0"
     style="fill:#000000;stroke:none" />
  <path
     d="m 591.1,225.1 48.4,-143 -28.3,0 -48.6,143 z"
     id="path3026-8-0-4"
     style="fill:#000000;stroke:none" />
  <path
     d="m 678,225.1 48.4,-143 -44.1,0 -48.6,143 z"
     id="path3026-8-0-4-7"
     style="fill:#000000;stroke:none" />
</svg>
