<?xml version="1.0" encoding="UTF-8" standalone="no"?>
<!-- Created with Inkscape (http://www.inkscape.org/) -->
<svg
   xmlns:dc="http://purl.org/dc/elements/1.1/"
   xmlns:cc="http://web.resource.org/cc/"
   xmlns:rdf="http://www.w3.org/1999/02/22-rdf-syntax-ns#"
   xmlns:svg="http://www.w3.org/2000/svg"
   xmlns="http://www.w3.org/2000/svg"
   xmlns:xlink="http://www.w3.org/1999/xlink"
   xmlns:sodipodi="http://sodipodi.sourceforge.net/DTD/sodipodi-0.dtd"
   xmlns:inkscape="http://www.inkscape.org/namespaces/inkscape"
   width="323"
   height="128"
   id="svg2"
   sodipodi:version="0.32"
   inkscape:version="0.45.1"
   version="1.0"
   inkscape:output_extension="org.inkscape.output.svg.inkscape">
  <g
     inkscape:label="Layer 1"
     inkscape:groupmode="layer"
     id="layer1"
     transform="translate(-243.83786,-375.8906)">
    <path
       id="path2362"
       d="M 100.27916,119.84132 L 100.27916,119.84132"
       style="fill:#ffffff;fill-rule:nonzero;stroke:none" />
    <path
       id="path3068"
       d="M 311.18051,407.14258 C 306.92303,400.8006 300.37525,394.66992 292.47608,394.46063 C 285.51261,394.35773 278.65553,396.54143 275.22514,402.87819 C 273.64865,405.77998 273.85795,409.73887 274.95794,412.96296 C 275.53374,414.91595 277.56933,416.91754 277.56933,416.91754 C 285.54381,424.57391 295.63557,427.9111 305.36473,432.08149 C 316.66669,436.93047 327.29015,447.98263 329.16144,460.24408 C 331.34763,473.44773 326.76954,485.81199 316.37929,494.54395 C 304.63473,505.24641 284.99191,506.07921 270.54706,500.46903 C 257.03861,495.06185 246.85045,481.1347 243.83786,467.62545 L 263.79289,463.67447 C 265.86978,472.61494 272.62765,482.7967 282.39442,484.77079 C 290.08419,486.32988 297.98336,485.08569 303.69914,480.09631 C 308.68582,474.90113 310.87201,467.52265 307.96232,460.66188 C 304.63473,453.59562 297.25906,450.16522 290.91699,447.04703 C 278.02843,441.01915 261.1953,435.61467 255.79082,420.02563 C 251.94273,408.28477 254.64952,395.08772 263.27219,386.35386 C 273.55965,376.17119 289.77569,373.7793 303.69914,377.6273 C 312.8461,380.32719 320.95377,387.60355 326.46095,395.91432 L 311.18051,407.14258"
       style="fill:#000000;fill-rule:nonzero;stroke:none" />
    <path
       id="path3070"
       d="M 325.04236,501.81603 L 375.72086,392.79863 L 382.99434,377.4202 L 405.23646,423.66753 L 441.71192,501.39823 L 441.89372,501.81603 L 420.1979,501.81603 L 407.73075,473.75623 L 407.46995,473.34483 L 359.53412,473.36593 L 359.09243,474.17123 L 346.35078,501.81603 L 325.04236,501.81603 z M 367.61509,455.985 L 399.31268,455.985 L 383.40974,419.92283 C 378.42075,431.97869 372.81017,443.93164 367.61509,455.985"
       style="fill:#000000;fill-rule:nonzero;stroke:none" />
    <path
       id="path3072"
       d="M 424.87879,400.595 L 451.05349,400.595 L 451.06739,401.0063 L 451.06739,409.73887 L 451.05349,501.81603 L 471.12521,501.81603 L 471.12521,400.6189 L 497.62711,400.595 L 497.62711,381.57567 L 424.87879,381.57567 L 424.87879,400.6189 L 424.87879,400.595"
       style="fill:#000000;fill-rule:nonzero;stroke:none" />
    <path
       id="path3074"
       d="M 537.37797,381.58937 L 528.8039,400.6189 L 546.08234,400.6189 L 546.01714,501.81603 L 566.73486,501.81603 L 566.83786,381.58937 L 537.37797,381.58937"
       style="fill:#000000;fill-rule:nonzero;stroke:none" />
    <path
       id="path3076"
       d="M 508.73697,503.61842 C 525.79501,503.61842 539.62416,489.78777 539.62416,472.73513 C 539.62416,455.6761 525.79501,441.84825 508.73697,441.84825 C 491.68344,441.84825 477.85489,455.6761 477.85489,472.73513 C 477.85489,489.78777 491.68344,503.61842 508.73697,503.61842"
       style="fill:#ffffff;fill-rule:nonzero;stroke:none" />
    <g
       id="g3078"
       clip-path="url(#id113)"
       transform="matrix(4.6798676,0,0,-4.6798676,-81.431729,2297.2333)">
        <path
   id="path3080"
   d="M 126.587,396.472 C 124.903,396.198 123.612,390.963 123.846,387.405 C 123.727,387.42 123.611,387.413 123.504,387.386 C 121.963,390.843 122.063,395.148 123.948,396.129 C 124.626,396.363 125.352,396.489 126.108,396.489 C 126.269,396.489 126.429,396.483 126.587,396.472"
   style="fill:#5793ce;fill-rule:nonzero;stroke:none" />

        <path
   id="path3082"
   d="M 120.889,393.945 C 119.561,392.21 120.798,389.325 123.141,387.177 C 123.213,387.257 123.303,387.316 123.404,387.356 C 121.71,390.236 121.159,394.375 123.042,395.734 C 122.198,395.294 121.471,394.688 120.889,393.945"
   style="fill:#009fe1;fill-rule:nonzero;stroke:none" />

        <path
   id="path3084"
   d="M 119.488,390.178 C 119.406,388.669 121.027,387.399 122.977,386.806 C 122.988,386.912 123.023,387.012 123.083,387.102 L 123.083,387.103 C 120.961,388.631 119.474,391.008 120.196,392.859 C 119.783,392.047 119.533,391.139 119.488,390.178"
   style="fill:#00a5b7;fill-rule:nonzero;stroke:none" />

        <path
   id="path3086"
   d="M 119.542,388.953 C 119.914,387.619 121.62,386.964 122.971,386.702 C 122.974,386.581 123.008,386.456 123.066,386.338 C 122.13,386.11 120.665,386.041 120.294,386.679 C 119.914,387.372 119.654,388.138 119.542,388.953"
   style="fill:#00aa5a;fill-rule:nonzero;stroke:none" />

        <path
   id="path3088"
   d="M 129.511,395.55 C 128.926,395.084 125.727,389.791 124.296,387.245 C 124.185,387.312 124.069,387.36 123.953,387.386 C 124.305,391.705 126.127,396.172 127.341,396.375 C 128.121,396.228 128.853,395.944 129.511,395.55"
   style="fill:#7c77b3;fill-rule:nonzero;stroke:none" />

        <path
   id="path3090"
   d="M 131.633,393.523 C 132.162,392.364 128.415,388.812 124.651,386.922 C 124.582,387.018 124.494,387.107 124.39,387.183 C 126.77,390.201 130.08,394.789 130.129,395.131 C 130.715,394.683 131.224,394.139 131.633,393.523"
   style="fill:#b7426d;fill-rule:nonzero;stroke:none" />

        <path
   id="path3092"
   d="M 132.728,390.182 C 132.535,388.03 128.384,386.374 124.827,386.504 C 124.81,386.615 124.77,386.726 124.709,386.831 C 128.134,387.989 132.278,391.027 132.09,392.716 C 132.461,391.941 132.685,391.088 132.728,390.182"
   style="fill:#d20027;fill-rule:nonzero;stroke:none" />

        <path
   id="path3094"
   d="M 131.739,386.358 C 130.504,384.731 127.514,384.768 124.773,386.085 C 124.82,386.183 124.84,386.292 124.837,386.402 C 128.109,385.919 132.112,386.983 132.697,389.143 C 132.591,388.157 132.247,387.17 131.739,386.358"
   style="fill:#e96a19;fill-rule:nonzero;stroke:none" />

        <path
   id="path3096"
   d="M 128.658,383.74 C 127.435,383.335 125.734,384.229 124.487,385.786 C 124.581,385.837 124.665,385.91 124.726,386 C 124.727,386.002 124.725,385.999 124.726,386 C 126.929,384.601 129.687,384.163 131.049,385.435 L 131.047,385.442 C 130.393,384.711 129.577,384.124 128.658,383.74"
   style="fill:#ee9800;fill-rule:nonzero;stroke:none" />

        <path
   id="path3098"
   d="M 125.375,383.274 C 124.672,383.367 124.189,384.694 124.023,385.693 C 124.152,385.684 124.277,385.7 124.388,385.741 C 125.144,384.592 126.398,383.285 127.744,383.437 C 127.221,383.304 126.673,383.234 126.108,383.234 C 125.86,383.234 125.616,383.247 125.375,383.274"
   style="fill:#f6d900;fill-rule:nonzero;stroke:none" />

        <path
   id="path3100"
   d="M 120.703,386.026 C 121.211,385.619 122.386,385.957 123.119,386.242 C 123.191,386.127 123.287,386.02 123.406,385.93 C 122.929,385.357 122.342,384.644 122.156,384.543 C 121.6,384.957 121.105,385.46 120.703,386.026"
   style="fill:#75c425;fill-rule:nonzero;stroke:none" />

        <path
   id="path3102"
   d="M 122.702,384.175 C 122.724,384.386 123.163,385.198 123.509,385.86 C 123.635,385.783 123.769,385.732 123.902,385.708 C 123.922,384.919 124.049,383.689 124.621,383.401 C 123.937,383.558 123.287,383.824 122.702,384.175"
   style="fill:#c0dd00;fill-rule:nonzero;stroke:none" />

      </g>
  </g>
</svg>
