<?xml version="1.0" encoding="UTF-8" standalone="no"?>
<!-- Created with Inkscape (http://www.inkscape.org/) -->

<svg
   xmlns:dc="http://purl.org/dc/elements/1.1/"
   xmlns:cc="http://creativecommons.org/ns#"
   xmlns:rdf="http://www.w3.org/1999/02/22-rdf-syntax-ns#"
   xmlns:svg="http://www.w3.org/2000/svg"
   xmlns="http://www.w3.org/2000/svg"
   xmlns:xlink="http://www.w3.org/1999/xlink"
   xmlns:sodipodi="http://sodipodi.sourceforge.net/DTD/sodipodi-0.dtd"
   xmlns:inkscape="http://www.inkscape.org/namespaces/inkscape"
   width="580"
   height="580"
   id="svg3704"
   version="1.1"
   inkscape:version="0.47 r22583"
   sodipodi:docname="SBS6 Logo.svg">
  <defs
     id="defs3706">
    <inkscape:perspective
       sodipodi:type="inkscape:persp3d"
       inkscape:vp_x="0 : 526.18109 : 1"
       inkscape:vp_y="0 : 1000 : 0"
       inkscape:vp_z="744.09448 : 526.18109 : 1"
       inkscape:persp3d-origin="372.04724 : 350.78739 : 1"
       id="perspective3712" />
    <inkscape:perspective
       id="perspective3689"
       inkscape:persp3d-origin="0.5 : 0.33333333 : 1"
       inkscape:vp_z="1 : 0.5 : 1"
       inkscape:vp_y="0 : 1000 : 0"
       inkscape:vp_x="0 : 0.5 : 1"
       sodipodi:type="inkscape:persp3d" />
    <filter
       color-interpolation-filters="sRGB"
       inkscape:collect="always"
       id="filter3659">
      <feGaussianBlur
         inkscape:collect="always"
         stdDeviation="11.520682"
         id="feGaussianBlur3661" />
    </filter>
    <linearGradient
       inkscape:collect="always"
       xlink:href="#linearGradient3641"
       id="linearGradient3669"
       gradientUnits="userSpaceOnUse"
       x1="559.95636"
       y1="211.85161"
       x2="556.98273"
       y2="374.23795" />
    <linearGradient
       id="linearGradient3641">
      <stop
         style="stop-color:#fabfa6;stop-opacity:1;"
         offset="0"
         id="stop3643" />
      <stop
         style="stop-color:#ef4622;stop-opacity:1;"
         offset="1"
         id="stop3645" />
    </linearGradient>
  </defs>
  <sodipodi:namedview
     id="base"
     pagecolor="#ffffff"
     bordercolor="#666666"
     borderopacity="1.0"
     inkscape:pageopacity="0.0"
     inkscape:pageshadow="2"
     inkscape:zoom="0.92167712"
     inkscape:cx="290"
     inkscape:cy="290"
     inkscape:document-units="px"
     inkscape:current-layer="layer1"
     showgrid="false"
     inkscape:window-width="1280"
     inkscape:window-height="1005"
     inkscape:window-x="-4"
     inkscape:window-y="-4"
     inkscape:window-maximized="1"
     showguides="true"
     inkscape:guide-bbox="true">
    <sodipodi:guide
       orientation="1,0"
       position="289.6893,616.26787"
       id="guide2828" />
    <sodipodi:guide
       orientation="0,1"
       position="699.81123,291.85926"
       id="guide2830" />
  </sodipodi:namedview>
  <metadata
     id="metadata3709">
    <rdf:RDF>
      <cc:Work
         rdf:about="">
        <dc:format>image/svg+xml</dc:format>
        <dc:type
           rdf:resource="http://purl.org/dc/dcmitype/StillImage" />
        <dc:title />
      </cc:Work>
    </rdf:RDF>
  </metadata>
  <g
     inkscape:label="Ebene 1"
     inkscape:groupmode="layer"
     id="layer1"
     transform="translate(34.69679,-335.63038)">
    <path
       transform="matrix(0.80915484,0,0,0.80915484,-260.94187,198.26991)"
       d="m 970.16949,530.84747 a 329.49152,329.49152 0 1 1 -658.98303,0 329.49152,329.49152 0 1 1 658.98303,0 z"
       sodipodi:ry="329.49152"
       sodipodi:rx="329.49152"
       sodipodi:cy="530.84747"
       sodipodi:cx="640.67798"
       id="path3649"
       style="fill:#808080;fill-opacity:1;fill-rule:nonzero;stroke:none;filter:url(#filter3659)"
       sodipodi:type="arc" />
    <path
       sodipodi:type="arc"
       style="fill:#ed2324;fill-opacity:1;fill-rule:nonzero;stroke:none"
       id="path3633"
       sodipodi:cx="640.67798"
       sodipodi:cy="530.84747"
       sodipodi:rx="329.49152"
       sodipodi:ry="329.49152"
       d="m 970.16949,530.84747 c 0,181.97314 -147.51837,329.49152 -329.49151,329.49152 -181.97314,0 -329.49152,-147.51838 -329.49152,-329.49152 0,-181.97314 147.51838,-329.49151 329.49152,-329.49151 181.97314,0 329.49151,147.51837 329.49151,329.49151 z"
       transform="matrix(0.71155985,0,0,0.71155985,-200.13529,247.19504)" />
    <path
       sodipodi:type="arc"
       style="fill:url(#linearGradient3669);fill-opacity:1;stroke:none"
       id="path3635"
       sodipodi:cx="555.25421"
       sodipodi:cy="343.22034"
       sodipodi:rx="245.59322"
       sodipodi:ry="175.42372"
       d="m 800.84743,343.22034 c 0,96.88384 -109.95583,175.42372 -245.59322,175.42372 -135.63739,0 -245.59321,-78.53988 -245.59321,-175.42372 0,-96.88385 109.95582,-175.42372 245.59321,-175.42372 135.63739,0 245.59322,78.53987 245.59322,175.42372 z"
       transform="matrix(0.71611597,0,0,0.84131265,-143.03228,283.32078)" />
    <path
       sodipodi:nodetypes="cssscccscsccscsscccsssc"
       style="fill:#ffffff;stroke:none"
       d="m 255.52005,369.8547 c -140.50394,0 -254.404885,113.90094 -254.404885,254.40488 0,140.50394 113.900945,254.40488 254.404885,254.40488 140.50394,0 254.40488,-113.90094 254.40488,-254.40488 0,-140.50394 -113.90094,-254.40488 -254.40488,-254.40488 z m -35.19998,41.09258 c -36.60903,65.90961 -74.18389,130.06939 -108.13486,196.90192 -12.11687,22.72662 -18.989753,48.67153 -18.989753,76.22585 0,63.54171 36.524353,118.558 89.723253,145.18044 C 99.000903,799.30725 38.939018,719.13237 38.939018,624.92667 c 0,-107.68991 78.491862,-197.02966 181.381052,-213.97939 z m 85.69849,2.93518 c 95.58875,22.64419 166.70513,108.53238 166.70513,211.04421 0,95.28227 -61.44684,176.22713 -146.8704,205.35172 54.31799,-26.22294 91.79122,-81.84642 91.79122,-146.20331 0,-89.5992 -72.63645,-162.23564 -162.23564,-162.23564 -1.45233,0 -2.89291,0.006 -4.33607,0.0445 l 54.94576,-108.00145 z m -50.07602,184.00493 c 48.27795,0 87.41068,39.13273 87.41068,87.41068 0,48.27796 -39.13273,87.41069 -87.41068,87.41069 -48.27796,0 -87.41068,-39.13273 -87.41068,-87.41069 0,-48.27795 39.13272,-87.41068 87.41068,-87.41068 z"
       id="path2827" />
  </g>
</svg>
