<?xml version="1.0" encoding="UTF-8" standalone="no"?>
<!DOCTYPE svg PUBLIC "-//W3C//DTD SVG 1.1//EN" "http://www.w3.org/Graphics/SVG/1.1/DTD/svg11.dtd">
<!-- Passed misc2svg (http://www.network-science.de/tools/misc2svg/) -->
<svg
    xmlns:svg="http://www.w3.org/2000/svg"
    xmlns="http://www.w3.org/2000/svg"
    xmlns:xlink="http://www.w3.org/1999/xlink"
    version="1.1"
    width="800"
    height="450"
    id="svg2">
  <defs id="defs4" />
  <metadata id="metadata7"></metadata>
  <g
      transform="translate(0,-602)"
      id="layer1">
    <path
        d="m 119.688,23.8125 c -31.3315,0 -57.918,12.3 -73.688,30.5 -15.77,18.3 -20.9062,39.501 -20.9062,57.4995 0,27.302 15.9699,50.682 33,63.782 17.0399,13.2 35.1195,20.412 51.0002,27.312 15.9,7 29.502,13.483 36.312,19.094 3.338,2.75 6.997,8.849 7.5,13.094 0.915,7.723 -3.112,15 -8.312,19 -5.2,4 -14.481,6.594 -19.782,6.594 -14.798,0 -21.807,-4.488 -27.687,-11.188 -5.81,-6.8 -9.5938,-17.394 -9.5938,-28.094 l -67,0 c 0,25.4 8.0538,51.181 25.8438,71.782 17.77,20.6 46.2085,34.5 78.437,34.5 19.902,0 41.388,-5.702 60.688,-20.5 19.3,-14.9 34.406,-41.294 34.406,-72.094 0,-27.6 -15.4,-51.481 -32.5,-65.282 -17,-13.698 -35.4,-21.312 -51.5,-28.312 -16.1,-7 -29.94,-13.461 -36.8748,-18.906 -3.5879,-2.818 -6.0093,-4.406 -6.9374,-10.782 -0.6051,-4.155 1.7162,-10.318 4.6562,-13.7182 2.94,-3.4 6.837,-8.1491 22.938,-8.1491 24.098,0 30.624,14.5613 30.624,28.9613 l 67,0 c 0,-47.7997 -40.124,-95.0935 -97.624,-95.0935 z m 413.718,2 c -17.2,0 -38.718,4 -59.218,19 -20.601,15.101 -36.876,43.4938 -36.876,78.0935 l 0,196 67,0 0,-120 64.376,0 0,-64.5 -64.376,0 0,-11.5 c 0,-16.7 4.2,-20.1 9.5,-23.9998 5.4,-3.8999 15.194,-6.0937 19.594,-6.0937 l 50.406,0 0,-67 z M 231.5,134.406 231.5,230 c 0,32.8 12.4,60.906 32,77.406 19.7,16.6 42.9,21.406 62.5,21.406 8.8,0 18.194,-1.024 27.594,-3.624 l -0.25,13.406 0,3.156 c 0,11.706 -11.8,21.188 -26.344,21.188 -14.544,0 -26.312,-9.482 -26.312,-21.188 l -67,0 c -1.1,27.8 12.612,51.25 30.812,66.25 18.3,15 40.594,23 63.594,23 46,0 92.5,-37.906 92.5,-92.406 l 0,-108.594 0,-95.594 -67,0 0,95.594 c 0,17.5 -4.207,22.406 -8.406,25.906 -4.101,3.5 -11.488,5.906 -19.188,5.906 -8.1,0 -15.412,-2.324 -19.312,-5.624 C 302.788,252.887 298.5,248.3 298.5,230 l 0,-95.594 z m 352.312,0 0,95.594 c 0,32.8 12.4,60.906 32,77.406 19.702,16.6 42.9,21.406 62.5,21.406 8.8,0 18.194,-1.024 27.594,-3.624 l 0,16.718 0,0.156 c 0,11.707 -11.799,21.188 -26.344,21.188 -14.543,0 -26.312,-9.481 -26.312,-21.188 l 0,-0.156 -67.25,0 c -1.1,27.8 12.614,51.094 30.812,66.094 18.3,15 40.594,23 63.594,23 46,0 92.5,-37.906 92.5,-92.406 l 0,-108.594 0,-95.594 -67,0 0,95.594 c 0,17.5 -4.206,22.406 -8.406,25.906 -4.1,3.5 -11.486,5.906 -19.188,5.906 -8.1,0 -15.412,-2.324 -19.312,-5.624 -3.9,-3.301 -8.188,-7.888 -8.188,-26.188 l 0,-95.594 z"
        transform="translate(0,602)"
        id="path3925"
        style="font-size:medium;font-style:normal;font-variant:normal;font-weight:normal;font-stretch:normal;text-indent:0pt;text-align:start;text-decoration:none;line-height:normal;letter-spacing:normal;word-spacing:normal;text-transform:none;direction:ltr;text-anchor:start;color:#000000;fill:#533173;fill-opacity:1;stroke-width:67;visibility:visible;overflow:visible;"
    />
  </g>
</svg>
