<?xml version="1.0" encoding="UTF-8" standalone="no"?>
<!-- Created with Inkscape (http://www.inkscape.org/) -->

<svg
   xmlns:dc="http://purl.org/dc/elements/1.1/"
   xmlns:cc="http://creativecommons.org/ns#"
   xmlns:rdf="http://www.w3.org/1999/02/22-rdf-syntax-ns#"
   xmlns:svg="http://www.w3.org/2000/svg"
   xmlns="http://www.w3.org/2000/svg"
   xmlns:sodipodi="http://sodipodi.sourceforge.net/DTD/sodipodi-0.dtd"
   xmlns:inkscape="http://www.inkscape.org/namespaces/inkscape"
   width="590"
   height="215"
   id="svg2"
   version="1.1"
   inkscape:version="0.47 r22583">
  <g
     inkscape:label="Layer 1"
     inkscape:groupmode="layer"
     id="layer1"
     transform="translate(-207.50007,-241.68593)">
    <path
       id="path26587"
       d="m 672.40465,441.13612 c 2.50452,0 4.09435,1.93828 4.09435,4.26858 0,2.48274 -1.69872,4.20324 -4.09435,4.20324 -2.39563,0 -4.05079,-1.7205 -4.05079,-4.20324 0,-2.3303 1.52449,-4.26858 4.05079,-4.26858 m 0,-7.18689 c -6.59887,0 -12.04349,4.46458 -12.04349,11.32479 0,7.03444 5.40106,11.25946 12.04349,11.25946 6.64242,0 12.06526,-4.22502 12.06526,-11.25946 0,-6.86021 -5.44461,-11.32479 -12.06526,-11.32479"
       style="fill:#221e1f;fill-rule:nonzero;stroke:none" />
    <path
       id="path26589"
       d="m 745.014,455.98902 14.56978,0 0,-5.13971 -7.31756,0 0,-3.37566 6.51176,0 0,-4.96549 -6.51176,0 0,-3.44099 7.05622,0 0,-5.09616 -14.30844,0 0,22.01801"
       style="fill:#221e1f;fill-rule:nonzero;stroke:none" />
    <path
       id="path26591"
       d="m 770.84324,453.74584 c 3.20143,2.2214 5.59706,2.91831 8.34115,2.91831 4.66059,0 9.2994,-2.59163 9.2994,-7.92735 0,-3.78945 -1.80762,-5.88018 -5.9673,-6.57709 l -3.92012,-1.98184 2.5263,-1.87295 4.57347,1.69872 1.85117,-4.57348 c -2.13429,-1.32848 -4.39924,-1.96006 -6.86021,-1.96006 -4.70414,0 -9.27762,2.96187 -9.34295,8.25404 -0.0871,2.24318 1.89472,4.68236 5.61884,5.37927 1.98183,0.39202 4.63881,0.58802 4.63881,2.22141 l -2.85298,2.04717 c -2.17785,0.10889 -4.11613,-1.15426 -5.53173,-2.28674 l -0.39201,-0.32667 -1.98184,4.98726"
       style="fill:#221e1f;fill-rule:nonzero;stroke:none" />
    <path
       id="path26593"
       d="m 637.60268,445.38292 -0.196,0 -3.89834,-11.43369 -7.29579,0 -2.65697,22.01801 6.92555,0 0.74047,-9.73496 0.39201,-2.46097 0.23956,0 3.78945,12.19593 3.72412,0 3.81123,-12.19593 0.23956,0 0.37023,2.46097 0.74047,9.73496 6.90377,0 -2.63519,-22.01801 -7.274,0 -3.92013,11.43369 -0.196,0 0.196,0"
       style="fill:#221e1f;fill-rule:nonzero;stroke:none" />
    <path
       id="path26595"
       d="m 702.50247,447.5172 -0.78403,-3.17965 -3.04898,-10.38832 -7.49179,0 8.4936,22.03979 6.29397,0 8.47182,-22.03979 -7.49179,0 -3.04898,10.38832 -0.78403,3.17965 -0.60979,0"
       style="fill:#221e1f;fill-rule:nonzero;stroke:none" />
    <path
       id="path26597"
       d="m 723.36622,455.98902 7.09977,0 0,-22.01801 -7.09977,0 z"
       style="fill:#221e1f;fill-rule:nonzero;stroke:none" />
    <path
       id="path26599"
       d="m 211.76865,439.80763 4.46458,-0.0871 -0.0653,16.18139 7.44823,0.0218 0.0653,-16.18139 4.46459,0.13067 0.0436,-6.18508 -16.39917,-0.0436 -0.0218,6.1633"
       style="fill:#221e1f;fill-rule:nonzero;stroke:none" />
    <path
       id="path26601"
       d="m 254.23663,433.775 -0.0436,13.30664 c 0,1.74227 -0.76224,3.31032 -2.85298,3.28854 -2.09073,0 -2.83119,-1.54627 -2.83119,-3.31032 l 0.0653,-13.30664 -7.20867,-0.0218 -0.0435,13.21951 c -0.0436,6.53354 3.89834,9.49541 10.01808,9.53897 6.05441,0 10.03987,-2.91832 10.06165,-9.45185 l 0.0436,-13.2413 -7.20867,-0.0218"
       style="fill:#221e1f;fill-rule:nonzero;stroke:none" />
    <path
       id="path26603"
       d="m 282.24372,438.69693 0.93647,0 c 2.06895,0 3.89834,0.3049 3.89834,2.74409 0,2.37385 -2.00362,2.65697 -4.02901,2.63519 l -0.84936,0 0.0436,-5.37928 z m -7.20867,17.40098 7.16511,0.0218 0.0436,-8.9945 0.13067,0 5.20505,9.01628 8.45003,0.0218 -4.83481,-7.14333 -1.80761,-2.50452 0,-0.17423 c 3.00542,-1.00181 5.11793,-2.41741 5.11793,-5.79307 0.0218,-5.64062 -4.57347,-6.64243 -9.60429,-6.66421 l -9.80031,-0.0218 -0.0653,22.23579"
       style="fill:#221e1f;fill-rule:nonzero;stroke:none" />
    <path
       id="path26605"
       d="m 307.89873,456.20681 7.16511,0.0218 0.0218,-7.14333 -0.26134,-4.50814 0.23956,0 6.88199,11.67325 7.5789,0.0218 0.0653,-22.2358 -6.96911,-0.0218 -0.0436,6.70776 0.13068,5.68417 -0.26135,0 -7.05621,-12.41371 -7.42646,-0.0218 -0.0653,22.2358"
       style="fill:#221e1f;fill-rule:nonzero;stroke:none" />
    <path
       id="path26607"
       d="m 344.85676,456.33748 14.76579,0.0435 0.0218,-5.18327 -7.40468,-0.0218 0,-3.39743 6.59887,0 0.0218,-5.00905 -6.59887,-0.0218 0,-3.44099 7.20867,0 0.0218,-5.16149 -14.56979,-0.0653 -0.0653,22.25758"
       style="fill:#221e1f;fill-rule:nonzero;stroke:none" />
    <path
       id="path26609"
       d="m 380.74764,439.02361 0.95826,0 c 2.09073,0 3.92012,0.32668 3.92012,2.76586 -0.0218,2.37385 -2.0254,2.63519 -4.02902,2.63519 l -0.87113,0 0.0218,-5.40105 z m -7.20866,17.40098 7.18689,0.0218 0.0218,-8.9945 0.15245,0.0218 5.20505,9.01628 8.45004,0.0218 -4.81304,-7.16511 -1.82939,-2.48274 0,-0.196 c 3.02721,-0.98004 5.11794,-2.39563 5.11794,-5.79307 0.0218,-5.61884 -4.5517,-6.64243 -9.58252,-6.64243 l -9.82208,-0.0436 -0.0871,22.2358"
       style="fill:#221e1f;fill-rule:nonzero;stroke:none" />
    <path
       id="path26611"
       d="m 435.17199,434.34124 -5.42283,-0.91469 c -6.55532,0 -11.67325,5.18327 -11.67325,11.67325 0,6.33753 4.96548,11.28123 11.30301,11.28123 l 5.70596,-1.19781 0,-6.99088 -4.31214,1.02358 c -2.76586,-0.0871 -4.7477,-1.80761 -4.81303,-4.24679 -0.0436,-2.91832 1.13248,-4.76948 3.78945,-5.20505 2.09073,-0.37024 4.05079,0.15245 5.37927,1.1107 l 0.0436,-6.53354"
       style="fill:#221e1f;fill-rule:nonzero;stroke:none" />
    <path
       id="path26613"
       d="m 448.97953,456.07614 14.06888,0 0,-6.16331 -6.94733,0 0,-16.02894 -7.12155,0 0,22.19225"
       style="fill:#221e1f;fill-rule:nonzero;stroke:none" />
    <path
       id="path26615"
       d="m 532.45633,453.72406 c 3.22321,2.26496 5.64062,2.96187 8.40648,2.96187 4.68237,0 9.36473,-2.63519 9.36473,-7.99269 0,-3.83301 -1.80761,-5.94552 -6.01085,-6.64243 l -3.9419,-1.98184 2.5263,-1.89472 4.61703,1.7205 1.87295,-4.61703 c -2.13429,-1.37205 -4.42103,-1.98184 -6.94733,-1.98184 -4.70414,0 -9.32117,3.00542 -9.43007,8.34114 -0.0653,2.24318 1.93829,4.70415 5.70596,5.40106 2.00362,0.39201 4.68237,0.6098 4.68237,2.24318 l -2.85298,2.04717 c -2.26496,0.1089 -4.18146,-1.15425 -5.59706,-2.28673 l -0.41379,-0.32668 -1.98184,5.00904"
       style="fill:#221e1f;fill-rule:nonzero;stroke:none" />
    <path
       id="path26617"
       d="m 562.07502,456.14147 7.16489,0 0,-22.21402 -7.16489,0 z"
       style="fill:#221e1f;fill-rule:nonzero;stroke:none" />
    <path
       id="path26619"
       d="m 503.0772,453.72406 c 3.22321,2.26496 5.6624,2.96187 8.40648,2.96187 4.70415,0 9.38651,-2.63519 9.38651,-7.99269 0,-3.83301 -1.80761,-5.94552 -6.03263,-6.64243 l -3.9419,-1.98184 2.54808,-1.89472 4.61703,1.7205 1.82939,-4.61703 c -2.11251,-1.37205 -4.39925,-1.98184 -6.88199,-1.98184 -4.7477,0 -9.36473,3.00542 -9.47362,8.34114 -0.0653,2.24318 1.93828,4.70415 5.70595,5.40106 2.00362,0.39201 4.70414,0.6098 4.70414,2.24318 l -2.87475,2.04717 c -2.24318,0.1089 -4.20324,-1.15425 -5.59706,-2.28673 l -0.39201,-0.32668 -2.00362,5.00904"
       style="fill:#221e1f;fill-rule:nonzero;stroke:none" />
    <path
       id="path26621"
       d="m 597.74812,434.34124 -5.42283,-0.91469 c -6.51176,0 -11.6297,5.18327 -11.6297,11.67325 0,6.33753 4.96549,11.28123 11.30302,11.28123 l 5.68418,-1.19781 0,-6.99088 -4.33392,1.02358 c -2.7223,-0.0871 -4.72592,-1.80761 -4.79126,-4.24679 -0.0435,-2.91832 1.11071,-4.76948 3.76768,-5.20505 2.11251,-0.37024 4.05079,0.15245 5.40105,1.1107 l 0.0218,-6.53354"
       style="fill:#221e1f;fill-rule:nonzero;stroke:none" />
    <path
       id="path26623"
       d="m 486.11179,453.20138 0.67513,2.85298 7.47001,0 -7.64424,-22.17047 -8.16692,0 -7.62246,22.17047 7.51357,0 0.63157,-2.85298 7.14334,0 z m -6.16331,-4.00723 2.43919,-9.56074 0.13067,-0.0436 0.19601,0.0436 2.41741,9.56074 -5.18328,0"
       style="fill:#221e1f;fill-rule:nonzero;stroke:none" />
    <path
       style="fill:#ee1c23;fill-rule:nonzero;stroke:none"
       d="m 224.46549,407.61908 556.19983,0 0,-154.38743 -556.19983,0 z"
       id="path26627" />
    <path
       style="fill:#221e1f;fill-rule:nonzero;stroke:none"
       d="m 224.46549,253.23165 556.19983,0 0,154.38743 -556.19983,0 z m 571.18341,-11.54258 -586.31944,0 -1.82939,1.82939 0,173.83559 1.82939,1.82939 586.31944,0 1.85116,-1.82939 0,-173.83559 -1.85116,-1.82939"
       id="path26629" />
    <path
       id="path26631"
       d="m 454.38058,351.75736 1.48094,-2.74408 c -5.98907,-5.83663 -6.29397,-12.9364 -6.29397,-18.20679 -0.0218,-6.20686 0.3049,-12.34838 6.29397,-18.185 l -1.48094,-2.74409 c -2.76586,0.28312 -15.1578,7.66602 -15.1578,20.31929 0,13.13241 12.32661,21.29933 15.1578,21.56067 m -23.34649,-47.12857 c 26.30836,-16.81296 60.10852,-14.67867 91.0557,-9.21228 4.37746,0.76225 5.79306,-4.90015 5.79306,-4.90015 l 7.47001,0.54446 5.40106,32.6459 c 0,0 -0.43557,0.21778 -7.49179,2.46096 l -2.15607,-0.67513 c -4.96548,-12.26127 -20.75486,-20.25396 -37.91628,-20.62419 -7.60068,0.87114 -17.09608,-0.0436 -20.58063,8.01447 -1.76406,3.81123 -1.76406,30.59872 -0.65336,35.71665 0.63158,3.26677 2.13429,6.92555 5.70596,8.10159 19.25215,4.61703 40.33369,-0.21779 57.08131,-9.9092 l 2.5263,1.24138 3.72412,13.82931 c -33.38636,11.41191 -80.55849,16.3774 -111.09187,-4.4428 -9.23407,-6.48998 -15.44092,-14.06888 -15.44092,-26.00347 0,-11.60792 7.40467,-20.40641 16.5734,-26.7875"
       style="fill:#ffffff;fill-rule:nonzero;stroke:none" />
    <path
       id="path26633"
       d="m 697.55876,311.46723 5.3575,-2.13429 1.56804,1.08892 0,37.21937 -1.56804,2.35208 -5.3575,2.13428 -1.56805,-1.1107 0,-37.19759 1.56805,-2.35207 m -83.67281,-1.19782 -0.47912,-1.15426 1.48093,-1.56804 6.35931,0 0.0653,-0.0218 1.39382,0.58802 19.14326,20.27573 0.0436,2.89654 -2.67875,3.04898 -2.65697,0.0653 -22.82382,-24.34831 0.15245,0.21778 z m 40.48614,6.44642 -20.27574,-21.90912 0.13067,0 -63.07039,0 0,7.75313 c -0.17422,1.00181 0.23957,1.96006 2.80942,2.65697 2.26496,0.6098 5.13972,1.76406 7.3829,2.67875 1.98184,0.78403 2.50452,1.93828 2.41741,3.48455 l 0,42.11953 c 0.0871,1.54627 -0.43557,2.70052 -2.41741,3.50633 -2.24318,0.89291 -5.11794,2.06895 -7.3829,2.65697 -2.56985,0.71869 -2.98364,1.67694 -2.80942,2.65697 l 0,7.73135 39.31011,0 0,-7.73135 c 0.17422,-0.98003 -0.21779,-1.93828 -2.78765,-2.65697 -2.26496,-0.58802 -5.16149,-1.76406 -7.40467,-2.65697 -1.98184,-0.80581 -2.48274,-1.96006 -2.41741,-3.50633 l -0.0435,-33.38637 1.24137,-1.37204 0.78402,0.32668 36.32646,42.25019 36.67491,-43.23022 1.08892,-0.54446 1.13248,1.37204 0.0871,34.58418 c 0.0653,1.54627 -0.43557,2.70052 -2.41741,3.50633 -2.24318,0.89291 -5.13971,2.06895 -7.40467,2.65697 -2.56986,0.71869 -2.96187,1.67694 -2.78764,2.65697 l 0,7.73135 75.15743,0 0.0218,-7.73135 c 0.17423,-0.98003 -0.23956,-1.93828 -2.80942,-2.65697 -2.24318,-0.58802 -5.16149,-1.76406 -7.3829,-2.65697 -1.98183,-0.80581 -2.48274,-1.96006 -2.43918,-3.50633 l 0,-42.11953 c -0.0436,-1.54627 0.45735,-2.70052 2.43918,-3.48455 2.22141,-0.91469 5.13972,-2.06895 7.3829,-2.67875 2.56986,-0.69691 2.98365,-1.65516 2.80942,-2.65697 l -0.0218,-7.75313 -63.1575,0 -18.68591,21.86557 -0.71869,0.32667 -0.76225,-0.28312"
       style="fill:#ffffff;fill-rule:nonzero;stroke:none" />
    <path
       id="path26635"
       d="m 323.75344,315.69225 0,37.21937 1.56805,1.08892 5.37928,-2.13429 1.56805,-2.35207 0,-37.21937 -1.56805,-1.08892 -5.37928,2.13428 -1.56805,2.35208 m 71.67288,7.70957 -7.01266,2.87475 c -2.00362,0.84936 -2.24318,-0.5009 -3.35388,-1.72049 -5.92374,-12.1306 -18.88192,-21.05977 -31.60053,-16.81297 l 0,45.75653 c -0.0653,1.54627 0.45734,2.70052 2.4174,3.48455 2.26496,0.91469 5.1615,2.06895 7.40468,2.67875 2.56985,0.69691 3.00542,1.65516 2.8312,2.65697 l 0,7.73135 -76.8126,0 0,-7.73135 c -0.17422,-1.00181 0.21779,-1.96006 2.80942,-2.65697 2.26496,-0.6098 5.1615,-1.76406 7.40468,-2.67875 1.98184,-0.78403 2.48274,-1.93828 2.4174,-3.48455 l 0.0218,-45.75653 c -12.71861,-4.2468 -25.67679,4.68237 -31.60053,16.81297 -1.15426,1.21959 -1.35026,2.56985 -3.35388,1.72049 l -7.01266,-2.87475 c 2.59164,-9.08162 7.14333,-28.59511 7.14333,-28.59511 l 121.10996,0 c 0,0 4.59525,19.51349 7.18689,28.59511"
       style="fill:#ffffff;fill-rule:nonzero;stroke:none" />
    <path
       id="path26637"
       d="m 748.25899,303.75766 -1.76406,-6.79488 0,6.79488 -0.84936,0 0,-8.38471 1.17604,0 1.85117,7.14333 1.87295,-7.14333 1.15425,0 0,8.38471 -0.82758,0 0,-6.79488 -1.76405,6.79488 -0.84936,0"
       style="fill:#ffffff;fill-rule:nonzero;stroke:none" />
    <path
       id="path26639"
       d="m 742.13924,296.26587 -2.06895,0 0,-0.9147 5.09616,0 0,0.9147 -2.13429,0 0,7.47001 -0.89292,0 0,-7.47001"
       style="fill:#ffffff;fill-rule:nonzero;stroke:none" />
  </g>
</svg>
