<?xml version="1.0" encoding="UTF-8" standalone="no"?>
<!-- Created with Inkscape (http://www.inkscape.org/) -->
<svg
   xmlns:svg="http://www.w3.org/2000/svg"
   xmlns="http://www.w3.org/2000/svg"
   version="1.0"
   width="602.36218"
   height="244.27559"
   id="svg31390">
  <defs
     id="defs31392" />
  <g
     transform="matrix(0.640008,0,0,0.640008,14.31751,14.31645)"
     id="g10982">
    <path
       d="M 840.25,5.3125 C 812.10538,5.3124998 789.37497,28.044199 789.375,56.1875 C 789.37498,62.7301 790.49693,68.975696 792.78125,74.6875 C 800.15453,93.693796 818.64808,107.09375 840.25,107.09375 C 861.74728,107.09375 880.21913,93.693796 887.59375,74.6875 C 889.87803,68.975696 891.12497,62.730099 891.125,56.1875 C 891.12498,28.0442 868.28988,5.3125 840.25,5.3125 z M 840.25,12.78125 C 864.13618,12.78125 883.65625,32.197899 883.65625,56.1875 C 883.65623,62.8347 882.09559,69.080296 879.5,74.6875 C 872.54138,89.435496 857.59358,99.625001 840.25,99.625 C 822.80298,99.624996 807.83357,89.435496 800.875,74.6875 C 798.27818,69.080296 796.74998,62.834699 796.75,56.1875 C 796.74998,32.1979 816.26038,12.78125 840.25,12.78125 z M 860.59375,25.875 L 809.40625,44.25 L 809.40625,56.9375 L 826.34375,50.6875 L 826.34375,74.6875 L 826.34375,89.03125 L 860.59375,76.75 L 860.59375,74.6875 L 860.59375,25.875 z M 5.3125,26.28125 L 5.3125,331.625 L 387,331.625 L 387,255.28125 L 768.59375,255.28125 L 768.59375,26.28125 L 5.3125,26.28125 z "
       style="fill:#005ea8;fill-rule:evenodd;stroke:none"
       id="path42891" />
    <path
       d="M 223.75,114.15625 C 213.5107,114.15625 201.22725,114.46985 193.71875,114.78125 L 193.71875,211.65625 C 203.27294,211.96875 212.8302,212.28125 222.375,212.28125 C 250.6853,212.28124 272.5,197.3294 272.5,161.1875 C 272.5,119.2316 246.5987,114.15625 223.75,114.15625 z M 316.5,114.15625 C 306.95639,114.15625 296.05845,114.46985 287.53125,114.78125 L 287.53125,211.65625 L 312.40625,211.65625 L 312.40625,176.15625 L 313.78125,176.15625 C 316.51204,176.15624 317.18485,176.46595 319.90625,182.28125 L 333.21875,211.65625 L 364.25,211.65625 L 345.84375,177.5 C 343.11295,172.4121 340.7214,170.0376 338,168.6875 C 348.9149,165.9873 356.75,155.6909 356.75,143.125 C 356.74999,131.4933 350.6216,122.9652 342.4375,118.5 C 335.9571,115.0725 326.3868,114.15625 316.5,114.15625 z M 58.34375,114.78125 L 81.1875,211.65625 L 108.125,211.65625 L 115.625,173.75 C 117.3288,165.5447 118.35685,159.85045 119.03125,148.21875 C 120.05945,160.78584 121.42055,167.6472 122.78125,174.8125 L 129.625,211.65625 L 157.5625,211.65625 L 180.40625,114.78125 L 155.1875,114.78125 L 148.03125,152.25 C 146.65994,160.14269 145.65245,165.56325 144.28125,176.15625 C 143.26364,165.25184 142.2357,158.8176 140.875,153.3125 L 132,114.78125 L 108.125,114.78125 L 99.25,155.0625 C 97.878698,161.8131 96.5282,165.5558 95.5,177.1875 C 95.167501,165.5558 94.1425,159.12155 93.125,154.34375 L 84.9375,114.78125 L 58.34375,114.78125 z M 318.90625,134.59375 C 327.77545,134.59374 330.84375,139.6869 330.84375,146.4375 C 330.84376,154.3302 325.0428,159.125 318.5625,159.125 C 318.21941,159.125 315.12655,159.1239 312.40625,158.8125 L 312.40625,134.90625 C 316.15466,134.59486 318.56315,134.59375 318.90625,134.59375 z M 225.78125,135.21875 C 242.50084,135.21875 245.5625,147.88895 245.5625,163.15625 C 245.56251,181.95336 236.3549,190.46875 226.125,190.46875 C 223.74671,190.46875 221.3583,190.46765 219.3125,190.15625 L 219.3125,135.53125 C 222.0433,135.21996 224.42055,135.21875 225.78125,135.21875 z "
       style="fill:white;fill-rule:nonzero;stroke:none"
       id="path42897" />
  </g>
</svg>
