<?xml version="1.0" encoding="UTF-8" standalone="no"?>
<svg
   xmlns:dc="http://purl.org/dc/elements/1.1/"
   xmlns:cc="http://creativecommons.org/ns#"
   xmlns:rdf="http://www.w3.org/1999/02/22-rdf-syntax-ns#"
   xmlns:svg="http://www.w3.org/2000/svg"
   xmlns="http://www.w3.org/2000/svg"
   xmlns:sodipodi="http://sodipodi.sourceforge.net/DTD/sodipodi-0.dtd"
   xmlns:inkscape="http://www.inkscape.org/namespaces/inkscape"
   version="1.1"
   width="308"
   height="314"
   id="svg2"
   inkscape:version="0.48.3.1 r9886"
   sodipodi:docname="Één.svg"
   inkscape:export-filename="C:\Users\Dumon\Desktop\Één.png"
   inkscape:export-xdpi="90"
   inkscape:export-ydpi="90">
  <metadata
     id="metadata18">
    <rdf:RDF>
      <cc:Work
         rdf:about="">
        <dc:format>image/svg+xml</dc:format>
        <dc:type
           rdf:resource="http://purl.org/dc/dcmitype/StillImage" />
        <dc:title></dc:title>
      </cc:Work>
    </rdf:RDF>
  </metadata>
  <defs
     id="defs16" />
  <sodipodi:namedview
     pagecolor="#ffffff"
     bordercolor="#666666"
     borderopacity="1"
     objecttolerance="10"
     gridtolerance="10"
     guidetolerance="10"
     inkscape:pageopacity="0"
     inkscape:pageshadow="2"
     inkscape:window-width="729"
     inkscape:window-height="480"
     id="namedview14"
     showgrid="false"
     inkscape:zoom="0.75159236"
     inkscape:cx="154"
     inkscape:cy="157"
     inkscape:window-x="0"
     inkscape:window-y="0"
     inkscape:window-maximized="0"
     inkscape:current-layer="g4" />
  <g
     transform="translate(-3.4280729,3.1804071)"
     id="g4">
    <path
       transform="matrix(1.2035714,0,0,1.3346457,-438.20013,-199.20465)"
       d="M 619.34537,265.31439 A 124.224,112.68892 0 1 1 370.89737,265.31439 A 124.224,112.68892 0 1 1 619.34537,265.31439 z"
       style="fill:#ffffff;stroke:none;fill-opacity:1"
       id="path6" />
    <path
       d="M 74.43802,204.68045 C 62.31533,203.96004 53.6922,200.41254 46.98473,193.38636 C 40.80668,186.91476 36.85261,178.77128 35.00637,168.71673 C 33.31103,159.48394 33.38395,148.43856 35.19972,139.43052 C 37.33197,128.85247 41.98706,119.9451 48.85075,113.30974 C 51.91442,110.34798 54.1026,108.78271 57.66507,107.00457 C 64.95022,103.36831 74.28962,102.27941 83.68381,103.97098 C 94.08208,105.84335 102.14685,111.17543 108.11826,120.12598 C 111.70198,125.49763 114.77642,133.71717 116.02698,141.27007 C 116.15658,142.05281 116.3091,142.83046 116.36591,142.99819 C 116.42271,143.16592 116.68966,142.1138 116.95913,140.66014 C 118.69819,131.27871 122.11889,123.59961 127.57603,116.82642 C 130.91865,112.67767 134.98463,109.36476 139.49676,107.11358 C 146.55972,103.58973 154.50616,102.45719 163.69048,103.66543 C 176.87039,105.3993 186.91891,112.79221 192.97234,125.20869 C 195.1781,129.73301 196.66311,134.28239 197.85008,140.15187 L 198.3229,142.48992 L 198.33875,123.93801 L 198.35459,105.38611 L 209.33065,105.38611 L 220.30671,105.38611 L 220.36014,112.53021 L 220.41357,119.67432 L 222.2688,117.35879 C 228.42003,109.6814 235.3707,105.29233 243.85661,103.72697 C 246.64318,103.21294 252.39535,103.1163 255.28099,103.53503 C 261.75592,104.47458 266.88828,106.90151 271.20936,111.06704 C 273.45537,113.23222 274.72648,114.90779 275.99941,117.38131 C 277.27294,119.85593 278.10179,122.35782 278.73599,125.64145 C 280.01791,132.27877 280.08309,134.45312 280.08392,170.59733 L 280.08464,202.5676 L 268.30756,202.5676 L 256.53048,202.5676 L 256.44402,172.73207 C 256.38418,152.09325 256.28326,142.0505 256.11657,140.15187 C 255.46708,132.75383 254.38651,129.57345 251.54959,126.71 C 247.21934,122.33928 240.01099,121.48722 233.61779,124.5904 C 227.73573,127.44549 224.3926,132.28128 223.15252,139.72836 C 222.31166,144.77806 222.28218,145.85959 222.20006,174.6635 L 222.12053,202.5676 L 210.23757,202.5676 L 198.35459,202.5676 L 198.35459,181.93178 L 198.35459,161.29596 L 169.11601,161.29596 L 139.87744,161.29596 L 139.94607,162.56664 C 140.36412,170.3072 142.30366,175.60956 146.25244,179.80715 C 148.11772,181.78998 149.76492,182.998 152.03206,184.04589 C 154.5637,185.21603 156.31754,185.5852 159.31935,185.57976 C 163.52535,185.57214 166.31442,184.53573 169.00385,181.98102 C 171.36262,179.74044 173.29114,176.45866 174.28178,172.99958 L 174.64099,171.74532 L 186.04033,173.83015 C 192.30998,174.97681 197.58928,175.94217 197.77207,175.97541 C 198.05355,176.02657 197.95157,176.44056 197.10603,178.67884 C 191.42992,193.70465 181.03913,202.19421 165.72357,204.31914 C 162.80428,204.72418 156.00469,204.77422 152.81347,204.41416 C 147.38497,203.80167 142.83513,202.50617 138.48022,200.33296 C 133.97527,198.08487 130.51984,195.37423 127.38752,191.63119 C 122.17428,185.4015 118.85091,178.20081 117.14063,169.4294 C 116.72407,167.29303 116.01462,162.26537 116.01462,161.44969 C 116.01462,161.36514 102.93172,161.29596 86.9415,161.29596 L 57.86837,161.29596 L 57.86837,161.88435 C 57.86837,163.22152 58.3073,166.81578 58.70072,168.70021 C 59.72227,173.59334 61.73408,177.4144 64.93117,180.53378 C 68.14656,183.67101 71.78145,185.30389 76.23969,185.61383 C 83.83969,186.1422 89.51997,181.72707 92.23161,173.18373 L 92.68516,171.75479 L 104.29907,173.87054 C 110.68671,175.03421 115.95017,176.01939 115.99563,176.05984 C 116.15729,176.20368 114.32749,180.75361 113.06183,183.35494 C 107.12341,195.56023 96.8238,202.80425 83.18029,204.37151 C 81.0632,204.61471 76.2148,204.78604 74.43802,204.68045 L 74.43802,204.68045 z M 94.0573,145.2699 C 94.0573,144.17071 93.57293,140.21232 93.2399,138.5899 C 91.84731,131.80563 88.46809,127.00716 83.22277,124.36566 C 81.00385,123.24823 79.10536,122.82411 76.2678,122.81194 C 71.49438,122.79147 67.85977,124.28712 64.4872,127.65969 C 60.7198,131.42709 58.76793,136.39786 58.357,143.27134 L 58.21532,145.6412 L 76.1363,145.6412 C 93.35368,145.6412 94.0573,145.62662 94.0573,145.2699 z M 175.90571,143.56391 C 175.55681,138.49832 174.40653,134.38197 172.38788,130.9753 C 171.37414,129.26451 168.74681,126.54331 166.96525,125.35894 C 160.79801,121.25896 152.55462,122.00742 147.03868,127.16817 C 142.72577,131.20338 140.82766,135.91943 140.31974,143.86225 L 140.20596,145.6412 L 158.12737,145.6412 L 176.04878,145.6412 L 175.90571,143.56391 z"
       style="fill:#000000;stroke:#000000;stroke-width:0.2;stroke-miterlimit:4;stroke-dasharray:none"
       id="path8" />
    <path
       d="M 139.85294,85.55074 L 139.85294,76.7196 L 140.5137,76.70815 C 140.87711,76.70184 149.31696,76.03349 159.26891,75.2229 C 171.736,74.20746 177.40983,73.81584 177.51274,73.96368 C 177.5949,74.08169 177.66351,77.98892 177.66522,82.64641 L 177.66834,91.11458 L 176.49931,91.23903 C 175.85635,91.30746 167.64522,92.00097 158.25237,92.78014 C 148.85951,93.55932 140.87711,94.23846 140.5137,94.28935 L 139.85294,94.38188 L 139.85294,85.55074 z"
       style="fill:#000000;stroke:#000000;stroke-width:0.2;stroke-miterlimit:4;stroke-dasharray:none"
       id="path10" />
    <path
       d="M 55.71628,85.54418 L 55.71628,76.7196 L 56.18056,76.7196 C 56.71266,76.7196 91.62472,73.93403 92.74344,73.80231 L 93.48002,73.71559 L 93.63035,82.34443 C 93.71304,87.09029 93.74129,91.01266 93.69314,91.06081 C 93.64498,91.10897 85.42358,91.83318 75.42334,92.67018 C 65.42311,93.50717 56.89801,94.23176 56.47869,94.28037 L 55.71628,94.36875 L 55.71628,85.54418 z"
       style="fill:#000000;stroke:#000000;stroke-width:0.2;stroke-miterlimit:4;stroke-dasharray:none"
       id="path12" />
  </g>
</svg>
